<?xml version="1.0" encoding="utf-8"?>
<!-- Generator: Adobe Illustrator 25.2.3, SVG Export Plug-In . SVG Version: 6.00 Build 0)  -->
<svg version="1.1" id="Layer_1" xmlns="http://www.w3.org/2000/svg" xmlns:xlink="http://www.w3.org/1999/xlink" x="0px" y="0px"
	 viewBox="0 0 1671.7 1674" style="enable-background:new 0 0 1671.7 1674;" xml:space="preserve">
<style type="text/css">
	.st0{fill:none;stroke:#FFFFFF;stroke-miterlimit:10;}
</style>
<g>
	<polygon class="st0" points="384.6,452.7 525.8,332.1 597.9,385.7 	"/>
	<polygon class="st0" points="1388.2,1050.1 1251.9,1132 1342.1,918.3 	"/>
	<polygon class="st0" points="1429.1,822.5 1388.2,1050.1 1342.1,918.3 	"/>
	<polygon class="st0" points="681.9,263.5 866.8,247.3 875.7,331.9 	"/>
	<polygon class="st0" points="1429.1,822.5 1342.1,918.3 1341.4,744.5 	"/>
	<polygon class="st0" points="1258.5,426.3 1395.3,640 1265.7,559 	"/>
	<polygon class="st0" points="1395.3,640 1341.4,744.5 1265.7,559 	"/>
	<polygon class="st0" points="1395.3,640 1429.1,822.5 1341.4,744.5 	"/>
	<polygon class="st0" points="567.3,1365.3 376.1,1210.4 513.3,1236.4 	"/>
	<polygon class="st0" points="866.8,247.3 1062.9,289.8 875.7,331.9 	"/>
	<polygon class="st0" points="1062.9,289.8 1115,408.3 875.7,331.9 	"/>
	<polygon class="st0" points="681.9,263.5 875.7,331.9 597.9,385.7 	"/>
	<polygon class="st0" points="525.8,332.1 681.9,263.5 597.9,385.7 	"/>
	<polygon class="st0" points="989,1409.6 862.7,1349.9 1068.5,1294.8 	"/>
	<polygon class="st0" points="384.6,452.7 597.9,385.7 428,525.1 	"/>
	<polygon class="st0" points="287.6,611 384.6,452.7 428,525.1 	"/>
	<polygon class="st0" points="287.6,611 428,525.1 340.5,712.2 	"/>
	<polygon class="st0" points="244.2,791.6 287.6,611 340.5,712.2 	"/>
	<polygon class="st0" points="264.4,991.2 244.2,791.6 340.5,712.2 	"/>
	<polygon class="st0" points="264.4,991.2 340.5,712.2 353.1,994.8 	"/>
	<polygon class="st0" points="376.1,1210.4 264.4,991.2 353.1,994.8 	"/>
	<polygon class="st0" points="376.1,1210.4 353.1,994.8 513.3,1236.4 	"/>
	<polygon class="st0" points="567.3,1365.3 513.3,1236.4 689.9,1331 	"/>
	<polygon class="st0" points="789.3,1429.7 567.3,1365.3 689.9,1331 	"/>
	<polygon class="st0" points="789.3,1429.7 689.9,1331 862.7,1349.9 	"/>
	<polygon class="st0" points="989,1409.6 789.3,1429.7 862.7,1349.9 	"/>
	<polygon class="st0" points="1062.9,289.8 1258.5,426.3 1115,408.3 	"/>
	<polygon class="st0" points="1247.7,1260.7 989,1409.6 1068.5,1294.8 	"/>
	<polygon class="st0" points="1247.7,1260.7 1068.5,1294.8 1251.9,1132 	"/>
	<polygon class="st0" points="1388.2,1050.1 1247.7,1260.7 1251.9,1132 	"/>
	<polygon class="st0" points="1258.5,426.3 1265.7,559 1115,408.3 	"/>
	<polygon class="st0" points="862.7,1349.9 689.9,1331 778.9,1270.9 	"/>
	<polygon class="st0" points="862.7,1349.9 778.9,1270.9 915.4,1267.3 	"/>
	<polygon class="st0" points="1068.5,1294.8 862.7,1349.9 915.4,1267.3 	"/>
	<polygon class="st0" points="1068.5,1294.8 915.4,1267.3 1044.1,1221.7 	"/>
	<polygon class="st0" points="1251.9,1132 1068.5,1294.8 1044.1,1221.7 	"/>
	<polygon class="st0" points="1251.9,1132 1044.1,1221.7 1152.5,1138.6 	"/>
	<polygon class="st0" points="1251.9,1132 1152.5,1138.6 1225.7,1036.8 	"/>
	<polygon class="st0" points="1342.1,918.3 1251.9,1132 1225.7,1036.8 	"/>
	<polygon class="st0" points="1342.1,918.3 1225.7,1036.8 1260.3,940 	"/>
	<polygon class="st0" points="597.9,385.7 597.6,471.2 497.7,564.3 	"/>
	<polygon class="st0" points="353.1,994.8 415.5,950.7 497.7,1112 	"/>
	<polygon class="st0" points="1341.4,744.5 1272.8,815.2 1254.4,714.2 	"/>
	<polygon class="st0" points="428,525.1 597.9,385.7 497.7,564.3 	"/>
	<polygon class="st0" points="340.5,712.2 428,525.1 497.7,564.3 	"/>
	<polygon class="st0" points="340.5,712.2 497.7,564.3 424.4,692.4 	"/>
	<polygon class="st0" points="340.5,712.2 424.4,692.4 398.9,815.2 	"/>
	<polygon class="st0" points="353.1,994.8 340.5,712.2 398.9,815.2 	"/>
	<polygon class="st0" points="353.1,994.8 398.9,815.2 415.5,950.7 	"/>
	<polygon class="st0" points="513.3,1236.4 353.1,994.8 497.7,1112 	"/>
	<polygon class="st0" points="513.3,1236.4 497.7,1112 638.3,1225.8 	"/>
	<polygon class="st0" points="689.9,1331 513.3,1236.4 638.3,1225.8 	"/>
	<polygon class="st0" points="689.9,1331 638.3,1225.8 778.9,1270.9 	"/>
	<polygon class="st0" points="597.9,385.7 875.7,331.9 723.2,417.8 	"/>
	<polygon class="st0" points="1342.1,918.3 1260.3,940 1272.8,815.2 	"/>
	<polygon class="st0" points="1265.7,559 1341.4,744.5 1254.4,714.2 	"/>
	<polygon class="st0" points="1265.7,559 1254.4,714.2 1202.8,599.8 	"/>
	<polygon class="st0" points="1265.7,559 1202.8,599.8 1136.3,521.5 	"/>
	<polygon class="st0" points="1115,408.3 1265.7,559 1136.3,521.5 	"/>
	<polygon class="st0" points="1115,408.3 1136.3,521.5 1034.5,448.3 	"/>
	<polygon class="st0" points="1341.4,744.5 1342.1,918.3 1272.8,815.2 	"/>
	<polygon class="st0" points="875.7,331.9 1115,408.3 1034.5,448.3 	"/>
	<polygon class="st0" points="875.7,331.9 1034.5,448.3 903.9,408.3 	"/>
	<polygon class="st0" points="875.7,331.9 903.9,408.3 723.2,417.8 	"/>
	<polygon class="st0" points="597.9,385.7 723.2,417.8 597.6,471.2 	"/>
	<polygon class="st0" points="274.7,1202.6 264.4,991.2 376.1,1210.4 	"/>
	<polygon class="st0" points="1482.2,664.9 1504.1,803.1 1429.1,822.5 	"/>
	<polygon class="st0" points="1482.2,664.9 1429.1,822.5 1395.3,640 	"/>
	<polygon class="st0" points="1405,489.3 1482.2,664.9 1395.3,640 	"/>
	<polygon class="st0" points="1405,489.3 1395.3,640 1258.5,426.3 	"/>
	<polygon class="st0" points="1269.4,330.5 1405,489.3 1258.5,426.3 	"/>
	<polygon class="st0" points="1091.3,221.4 1269.4,330.5 1258.5,426.3 	"/>
	<polygon class="st0" points="1091.3,221.4 1258.5,426.3 1062.9,289.8 	"/>
	<polygon class="st0" points="940.5,177.2 1091.3,221.4 1062.9,289.8 	"/>
	<polygon class="st0" points="940.5,177.2 1062.9,289.8 866.8,247.3 	"/>
	<polygon class="st0" points="748.7,176.3 940.5,177.2 866.8,247.3 	"/>
	<polygon class="st0" points="1492.2,959.7 1432.1,1141.9 1388.2,1050.1 	"/>
	<polygon class="st0" points="1492.2,959.7 1388.2,1050.1 1429.1,822.5 	"/>
	<polygon class="st0" points="1504.1,803.1 1492.2,959.7 1429.1,822.5 	"/>
	<polygon class="st0" points="211.2,598.3 274.7,473.7 287.6,611 	"/>
	<polygon class="st0" points="274.7,473.7 384.6,452.7 287.6,611 	"/>
	<polygon class="st0" points="274.7,473.7 376.3,353.9 384.6,452.7 	"/>
	<polygon class="st0" points="376.3,353.9 525.8,332.1 384.6,452.7 	"/>
	<polygon class="st0" points="376.3,353.9 548.4,235.6 525.8,332.1 	"/>
	<polygon class="st0" points="548.4,235.6 681.9,263.5 525.8,332.1 	"/>
	<polygon class="st0" points="548.4,235.6 748.7,176.3 681.9,263.5 	"/>
	<polygon class="st0" points="167.6,873.1 174.9,733.4 244.2,791.6 	"/>
	<polygon class="st0" points="167.6,873.1 244.2,791.6 264.4,991.2 	"/>
	<polygon class="st0" points="206.6,1061 167.6,873.1 264.4,991.2 	"/>
	<polygon class="st0" points="274.7,1202.6 206.6,1061 264.4,991.2 	"/>
	<polygon class="st0" points="174.9,733.4 287.6,611 244.2,791.6 	"/>
	<polygon class="st0" points="362.7,1311.3 274.7,1202.6 376.1,1210.4 	"/>
	<polygon class="st0" points="471.4,1399.3 362.7,1311.3 376.1,1210.4 	"/>
	<polygon class="st0" points="471.4,1399.3 376.1,1210.4 567.3,1365.3 	"/>
	<polygon class="st0" points="174.9,733.4 211.2,598.3 287.6,611 	"/>
	<polygon class="st0" points="596.1,1462.8 471.4,1399.3 567.3,1365.3 	"/>
	<polygon class="st0" points="731.2,1499 596.1,1462.8 567.3,1365.3 	"/>
	<polygon class="st0" points="731.2,1499 567.3,1365.3 789.3,1429.7 	"/>
	<polygon class="st0" points="870.9,1506.4 731.2,1499 789.3,1429.7 	"/>
	<polygon class="st0" points="870.9,1506.4 789.3,1429.7 989,1409.6 	"/>
	<polygon class="st0" points="1009.1,1484.5 870.9,1506.4 989,1409.6 	"/>
	<polygon class="st0" points="1139.7,1434.3 1009.1,1484.5 989,1409.6 	"/>
	<polygon class="st0" points="1139.7,1434.3 989,1409.6 1247.7,1260.7 	"/>
	<polygon class="st0" points="748.7,176.3 866.8,247.3 681.9,263.5 	"/>
	<polygon class="st0" points="1257,1358.1 1139.7,1434.3 1247.7,1260.7 	"/>
	<polygon class="st0" points="1355.9,1259.2 1257,1358.1 1247.7,1260.7 	"/>
	<polygon class="st0" points="1432.1,1141.9 1355.9,1259.2 1247.7,1260.7 	"/>
	<polygon class="st0" points="1432.1,1141.9 1247.7,1260.7 1388.2,1050.1 	"/>
	<polygon class="st0" points="723.2,417.8 903.9,408.3 816.6,470.2 	"/>
	<polygon class="st0" points="903.9,408.3 921.7,480.7 816.6,470.2 	"/>
	<polygon class="st0" points="903.9,408.3 1027.9,524.7 921.7,480.7 	"/>
	<polygon class="st0" points="903.9,408.3 1034.5,448.3 1027.9,524.7 	"/>
	<polygon class="st0" points="1034.5,448.3 1136.3,521.5 1027.9,524.7 	"/>
	<polygon class="st0" points="1136.3,521.5 1115.4,599.4 1027.9,524.7 	"/>
	<polygon class="st0" points="1136.3,521.5 1202.8,599.8 1115.4,599.4 	"/>
	<polygon class="st0" points="1202.8,599.8 1164.1,670.8 1115.4,599.4 	"/>
	<polygon class="st0" points="1202.8,599.8 1254.4,714.2 1164.1,670.8 	"/>
	<polygon class="st0" points="1254.4,714.2 1197.8,780.8 1164.1,670.8 	"/>
	<polygon class="st0" points="1254.4,714.2 1272.8,815.2 1197.8,780.8 	"/>
	<polygon class="st0" points="1044.1,1221.7 967.9,1182.1 1044,1141 	"/>
	<polygon class="st0" points="497.7,564.3 597.6,471.2 604,551.8 	"/>
	<polygon class="st0" points="1272.8,815.2 1193.3,923.9 1197.8,780.8 	"/>
	<polygon class="st0" points="1272.8,815.2 1260.3,940 1193.3,923.9 	"/>
	<polygon class="st0" points="1260.3,940 1143.2,1037.7 1193.3,923.9 	"/>
	<polygon class="st0" points="1260.3,940 1225.7,1036.8 1143.2,1037.7 	"/>
	<polygon class="st0" points="1225.7,1036.8 1152.5,1138.6 1143.2,1037.7 	"/>
	<polygon class="st0" points="1152.5,1138.6 1044,1141 1143.2,1037.7 	"/>
	<polygon class="st0" points="1152.5,1138.6 1044.1,1221.7 1044,1141 	"/>
	<polygon class="st0" points="1044.1,1221.7 915.4,1267.3 967.9,1182.1 	"/>
	<polygon class="st0" points="915.4,1267.3 864.7,1204.5 967.9,1182.1 	"/>
	<polygon class="st0" points="915.4,1267.3 778.9,1270.9 864.7,1204.5 	"/>
	<polygon class="st0" points="778.9,1270.9 750,1195.5 864.7,1204.5 	"/>
	<polygon class="st0" points="778.9,1270.9 638.3,1225.8 750,1195.5 	"/>
	<polygon class="st0" points="638.3,1225.8 636.3,1145.4 750,1195.5 	"/>
	<polygon class="st0" points="638.3,1225.8 497.7,1112 636.3,1145.4 	"/>
	<polygon class="st0" points="497.7,1112 549.5,1070 636.3,1145.4 	"/>
	<polygon class="st0" points="497.7,1112 496.3,978.8 549.5,1070 	"/>
	<polygon class="st0" points="497.7,1112 415.5,950.7 496.3,978.8 	"/>
	<polygon class="st0" points="415.5,950.7 469.9,857.3 496.3,978.8 	"/>
	<polygon class="st0" points="415.5,950.7 398.9,815.2 469.9,857.3 	"/>
	<polygon class="st0" points="398.9,815.2 489.4,715.4 469.9,857.3 	"/>
	<polygon class="st0" points="398.9,815.2 424.4,692.4 489.4,715.4 	"/>
	<polygon class="st0" points="424.4,692.4 544.3,614.3 489.4,715.4 	"/>
	<polygon class="st0" points="424.4,692.4 497.7,564.3 544.3,614.3 	"/>
	<polygon class="st0" points="497.7,564.3 604,551.8 544.3,614.3 	"/>
	<polygon class="st0" points="597.6,471.2 704.6,496 604,551.8 	"/>
	<polygon class="st0" points="597.6,471.2 723.2,417.8 704.6,496 	"/>
	<polygon class="st0" points="723.2,417.8 816.6,470.2 704.6,496 	"/>
	<polygon class="st0" points="184.1,506 280.9,364.2 274.7,473.7 	"/>
	<polygon class="st0" points="184.1,506 274.7,473.7 211.2,598.3 	"/>
	<polygon class="st0" points="129.3,648.8 184.1,506 211.2,598.3 	"/>
	<polygon class="st0" points="129.3,648.8 211.2,598.3 174.9,733.4 	"/>
	<polygon class="st0" points="105.3,799.8 129.3,648.8 174.9,733.4 	"/>
	<polygon class="st0" points="105.3,799.8 174.9,733.4 167.6,873.1 	"/>
	<polygon class="st0" points="113.3,952.5 105.3,799.8 167.6,873.1 	"/>
	<polygon class="st0" points="113.3,952.5 167.6,873.1 206.6,1061 	"/>
	<polygon class="st0" points="152.9,1100.3 113.3,952.5 206.6,1061 	"/>
	<polygon class="st0" points="222.3,1236.5 152.9,1100.3 206.6,1061 	"/>
	<polygon class="st0" points="222.3,1236.5 206.6,1061 274.7,1202.6 	"/>
	<polygon class="st0" points="874.2,107.6 1043.1,138.4 940.5,177.2 	"/>
	<polygon class="st0" points="1280.2,1417.1 1139.7,1434.3 1257,1358.1 	"/>
	<polygon class="st0" points="1565.4,819 1492.2,959.7 1504.1,803.1 	"/>
	<polygon class="st0" points="1565.4,819 1542.5,1027.4 1492.2,959.7 	"/>
	<polygon class="st0" points="1542.5,1027.4 1432.1,1141.9 1492.2,959.7 	"/>
	<polygon class="st0" points="1542.5,1027.4 1487.7,1170.2 1432.1,1141.9 	"/>
	<polygon class="st0" points="1487.7,1170.2 1404.4,1298.5 1355.9,1259.2 	"/>
	<polygon class="st0" points="1404.4,1298.5 1257,1358.1 1355.9,1259.2 	"/>
	<polygon class="st0" points="1404.4,1298.5 1280.2,1417.1 1257,1358.1 	"/>
	<polygon class="st0" points="1280.2,1417.1 1098,1521.1 1139.7,1434.3 	"/>
	<polygon class="st0" points="1098,1521.1 1009.1,1484.5 1139.7,1434.3 	"/>
	<polygon class="st0" points="1098,1521.1 950.3,1560.6 1009.1,1484.5 	"/>
	<polygon class="st0" points="950.3,1560.6 870.9,1506.4 1009.1,1484.5 	"/>
	<polygon class="st0" points="1487.7,1170.2 1355.9,1259.2 1432.1,1141.9 	"/>
	<polygon class="st0" points="950.3,1560.6 797.6,1568.6 870.9,1506.4 	"/>
	<polygon class="st0" points="797.6,1568.6 731.2,1499 870.9,1506.4 	"/>
	<polygon class="st0" points="797.6,1568.6 646.5,1544.7 731.2,1499 	"/>
	<polygon class="st0" points="646.5,1544.7 596.1,1462.8 731.2,1499 	"/>
	<polygon class="st0" points="646.5,1544.7 487.7,1479.5 596.1,1462.8 	"/>
	<polygon class="st0" points="487.7,1479.5 471.4,1399.3 596.1,1462.8 	"/>
	<polygon class="st0" points="487.7,1479.5 362.7,1311.3 471.4,1399.3 	"/>
	<polygon class="st0" points="487.7,1479.5 318.6,1355.4 362.7,1311.3 	"/>
	<polygon class="st0" points="318.6,1355.4 274.7,1202.6 362.7,1311.3 	"/>
	<polygon class="st0" points="318.6,1355.4 222.3,1236.5 274.7,1202.6 	"/>
	<polygon class="st0" points="280.9,364.2 376.3,353.9 274.7,473.7 	"/>
	<polygon class="st0" points="280.9,364.2 437.4,224.6 376.3,353.9 	"/>
	<polygon class="st0" points="437.4,224.6 548.4,235.6 376.3,353.9 	"/>
	<polygon class="st0" points="437.4,224.6 573.7,155.2 548.4,235.6 	"/>
	<polygon class="st0" points="573.7,155.2 748.7,176.3 548.4,235.6 	"/>
	<polygon class="st0" points="573.7,155.2 721.4,115.6 748.7,176.3 	"/>
	<polygon class="st0" points="721.4,115.6 874.2,107.6 748.7,176.3 	"/>
	<polygon class="st0" points="874.2,107.6 940.5,177.2 748.7,176.3 	"/>
	<polygon class="st0" points="1043.1,138.4 1091.3,221.4 940.5,177.2 	"/>
	<polygon class="st0" points="1043.1,138.4 1234.3,224.6 1091.3,221.4 	"/>
	<polygon class="st0" points="1234.3,224.6 1269.4,330.5 1091.3,221.4 	"/>
	<polygon class="st0" points="1234.3,224.6 1353.1,320.8 1269.4,330.5 	"/>
	<polygon class="st0" points="1353.1,320.8 1405,489.3 1269.4,330.5 	"/>
	<polygon class="st0" points="1353.1,320.8 1428.5,407.5 1405,489.3 	"/>
	<polygon class="st0" points="1428.5,407.5 1487.7,506 1405,489.3 	"/>
	<polygon class="st0" points="1487.7,506 1482.2,664.9 1405,489.3 	"/>
	<polygon class="st0" points="1487.7,506 1542.5,648.8 1482.2,664.9 	"/>
	<polygon class="st0" points="1542.5,648.8 1504.1,803.1 1482.2,664.9 	"/>
	<polygon class="st0" points="1542.5,648.8 1565.4,819 1504.1,803.1 	"/>
	<polygon class="st0" points="1027.9,524.7 1115.4,599.4 1056.8,617.2 	"/>
	<polygon class="st0" points="1027.9,524.7 1056.8,617.2 970.8,555.2 	"/>
	<polygon class="st0" points="921.7,480.7 1027.9,524.7 970.8,555.2 	"/>
	<polygon class="st0" points="1193.3,923.9 1103.1,1001.9 1140.6,911.3 	"/>
	<polygon class="st0" points="921.7,480.7 970.8,555.2 852.2,526.1 	"/>
	<polygon class="st0" points="816.6,470.2 921.7,480.7 852.2,526.1 	"/>
	<polygon class="st0" points="704.6,496 816.6,470.2 852.2,526.1 	"/>
	<polygon class="st0" points="704.6,496 852.2,526.1 746.9,537.6 	"/>
	<polygon class="st0" points="704.6,496 746.9,537.6 658.4,579.8 	"/>
	<polygon class="st0" points="604,551.8 704.6,496 658.4,579.8 	"/>
	<polygon class="st0" points="544.3,614.3 604,551.8 658.4,579.8 	"/>
	<polygon class="st0" points="544.3,614.3 591.7,640.4 544.2,726.1 	"/>
	<polygon class="st0" points="489.4,715.4 544.3,614.3 544.2,726.1 	"/>
	<polygon class="st0" points="469.9,857.3 489.4,715.4 544.2,726.1 	"/>
	<polygon class="st0" points="469.9,857.3 544.2,726.1 522.1,821.7 	"/>
	<polygon class="st0" points="469.9,857.3 522.1,821.7 534.1,919 	"/>
	<polygon class="st0" points="496.3,978.8 469.9,857.3 534.1,919 	"/>
	<polygon class="st0" points="496.3,978.8 534.1,919 593,1034.7 	"/>
	<polygon class="st0" points="549.5,1070 496.3,978.8 593,1034.7 	"/>
	<polygon class="st0" points="636.3,1145.4 549.5,1070 593,1034.7 	"/>
	<polygon class="st0" points="750,1195.5 636.3,1145.4 672.1,1105.3 	"/>
	<polygon class="st0" points="750,1195.5 672.1,1105.3 762.7,1142.9 	"/>
	<polygon class="st0" points="864.7,1204.5 750,1195.5 762.7,1142.9 	"/>
	<polygon class="st0" points="864.7,1204.5 762.7,1142.9 852.3,1151.9 	"/>
	<polygon class="st0" points="864.7,1204.5 852.3,1151.9 924.9,1138.6 	"/>
	<polygon class="st0" points="967.9,1182.1 864.7,1204.5 924.9,1138.6 	"/>
	<polygon class="st0" points="1044,1141 967.9,1182.1 924.9,1138.6 	"/>
	<polygon class="st0" points="636.3,1145.4 593,1034.7 672.1,1105.3 	"/>
	<polygon class="st0" points="1044,1141 924.9,1138.6 1032.5,1080.9 	"/>
	<polygon class="st0" points="1143.2,1037.7 1044,1141 1032.5,1080.9 	"/>
	<polygon class="st0" points="1193.3,923.9 1143.2,1037.7 1103.1,1001.9 	"/>
	<polygon class="st0" points="1115.4,599.4 1125.4,718.2 1056.8,617.2 	"/>
	<polygon class="st0" points="1197.8,780.8 1193.3,923.9 1140.6,911.3 	"/>
	<polygon class="st0" points="1197.8,780.8 1140.6,911.3 1148.3,813.5 	"/>
	<polygon class="st0" points="544.3,614.3 658.4,579.8 591.7,640.4 	"/>
	<polygon class="st0" points="1115.4,599.4 1164.1,670.8 1125.4,718.2 	"/>
	<polygon class="st0" points="1164.1,670.8 1197.8,780.8 1125.4,718.2 	"/>
	<polygon class="st0" points="1143.2,1037.7 1032.5,1080.9 1103.1,1001.9 	"/>
	<polygon class="st0" points="1197.8,780.8 1148.3,813.5 1125.4,718.2 	"/>
	<polygon class="st0" points="1602.8,716.6 1565.4,819 1542.5,648.8 	"/>
	<polygon class="st0" points="1602.8,716.6 1611.3,878.7 1565.4,819 	"/>
	<polygon class="st0" points="1611.3,878.7 1542.5,1027.4 1565.4,819 	"/>
	<polygon class="st0" points="1611.3,878.7 1596.4,999.8 1542.5,1027.4 	"/>
	<polygon class="st0" points="1596.4,999.8 1560.8,1116.4 1542.5,1027.4 	"/>
	<polygon class="st0" points="1560.8,1116.4 1487.7,1170.2 1542.5,1027.4 	"/>
	<polygon class="st0" points="1560.8,1116.4 1487.1,1261 1487.7,1170.2 	"/>
	<polygon class="st0" points="1487.1,1261 1404.4,1298.5 1487.7,1170.2 	"/>
	<polygon class="st0" points="1487.1,1261 1384.9,1387.2 1404.4,1298.5 	"/>
	<polygon class="st0" points="1384.9,1387.2 1280.2,1417.1 1404.4,1298.5 	"/>
	<polygon class="st0" points="1384.9,1387.2 1258.8,1489.3 1280.2,1417.1 	"/>
	<polygon class="st0" points="1258.8,1489.3 1098,1521.1 1280.2,1417.1 	"/>
	<polygon class="st0" points="1258.8,1489.3 1114.1,1563 1098,1521.1 	"/>
	<polygon class="st0" points="1114.1,1563 950.3,1560.6 1098,1521.1 	"/>
	<polygon class="st0" points="1114.1,1563 997.5,1598.7 950.3,1560.6 	"/>
	<polygon class="st0" points="997.5,1598.7 876.5,1613.5 950.3,1560.6 	"/>
	<polygon class="st0" points="876.5,1613.5 797.6,1568.6 950.3,1560.6 	"/>
	<polygon class="st0" points="876.5,1613.5 714.4,1605 797.6,1568.6 	"/>
	<polygon class="st0" points="714.4,1605 646.5,1544.7 797.6,1568.6 	"/>
	<polygon class="st0" points="714.4,1605 557.6,1563 646.5,1544.7 	"/>
	<polygon class="st0" points="557.6,1563 487.7,1479.5 646.5,1544.7 	"/>
	<polygon class="st0" points="557.6,1563 413,1489.3 487.7,1479.5 	"/>
	<polygon class="st0" points="413,1489.3 318.6,1355.4 487.7,1479.5 	"/>
	<polygon class="st0" points="413,1489.3 286.8,1387.2 318.6,1355.4 	"/>
	<polygon class="st0" points="286.8,1387.2 222.3,1236.5 318.6,1355.4 	"/>
	<polygon class="st0" points="286.8,1387.2 184.7,1261 222.3,1236.5 	"/>
	<polygon class="st0" points="184.7,1261 152.9,1100.3 222.3,1236.5 	"/>
	<polygon class="st0" points="184.7,1261 111,1116.4 152.9,1100.3 	"/>
	<polygon class="st0" points="111,1116.4 113.3,952.5 152.9,1100.3 	"/>
	<polygon class="st0" points="111,1116.4 75.3,999.8 113.3,952.5 	"/>
	<polygon class="st0" points="75.3,999.8 60.4,878.7 113.3,952.5 	"/>
	<polygon class="st0" points="60.4,878.7 105.3,799.8 113.3,952.5 	"/>
	<polygon class="st0" points="60.4,878.7 68.9,716.6 105.3,799.8 	"/>
	<polygon class="st0" points="68.9,716.6 129.3,648.8 105.3,799.8 	"/>
	<polygon class="st0" points="68.9,716.6 111,559.8 129.3,648.8 	"/>
	<polygon class="st0" points="111,559.8 184.1,506 129.3,648.8 	"/>
	<polygon class="st0" points="876.5,62.7 1036.8,88.1 1043.1,138.4 	"/>
	<polygon class="st0" points="111,559.8 184.7,415.2 184.1,506 	"/>
	<polygon class="st0" points="184.7,415.2 280.9,364.2 184.1,506 	"/>
	<polygon class="st0" points="184.7,415.2 258,317.8 280.9,364.2 	"/>
	<polygon class="st0" points="258,317.8 347.2,234.7 280.9,364.2 	"/>
	<polygon class="st0" points="347.2,234.7 437.4,224.6 280.9,364.2 	"/>
	<polygon class="st0" points="347.2,234.7 447.1,164.7 437.4,224.6 	"/>
	<polygon class="st0" points="447.1,164.7 573.7,155.2 437.4,224.6 	"/>
	<polygon class="st0" points="447.1,164.7 557.6,113.2 573.7,155.2 	"/>
	<polygon class="st0" points="557.6,113.2 721.4,115.6 573.7,155.2 	"/>
	<polygon class="st0" points="557.6,113.2 714.4,71.2 721.4,115.6 	"/>
	<polygon class="st0" points="714.4,71.2 874.2,107.6 721.4,115.6 	"/>
	<polygon class="st0" points="714.4,71.2 876.5,62.7 874.2,107.6 	"/>
	<polygon class="st0" points="876.5,62.7 1043.1,138.4 874.2,107.6 	"/>
	<polygon class="st0" points="1036.8,88.1 1188.4,146.3 1043.1,138.4 	"/>
	<polygon class="st0" points="1188.4,146.3 1234.3,224.6 1043.1,138.4 	"/>
	<polygon class="st0" points="1188.4,146.3 1324.5,234.7 1234.3,224.6 	"/>
	<polygon class="st0" points="1324.5,234.7 1353.1,320.8 1234.3,224.6 	"/>
	<polygon class="st0" points="1324.5,234.7 1439.3,349.5 1353.1,320.8 	"/>
	<polygon class="st0" points="1439.3,349.5 1428.5,407.5 1353.1,320.8 	"/>
	<polygon class="st0" points="1439.3,349.5 1487.7,506 1428.5,407.5 	"/>
	<polygon class="st0" points="1439.3,349.5 1509.2,449.3 1487.7,506 	"/>
	<polygon class="st0" points="1509.2,449.3 1560.8,559.8 1487.7,506 	"/>
	<polygon class="st0" points="1560.8,559.8 1542.5,648.8 1487.7,506 	"/>
	<polygon class="st0" points="1560.8,559.8 1602.8,716.6 1542.5,648.8 	"/>
	<polygon class="st0" points="658.4,579.8 709.6,590.4 638.2,640.4 	"/>
	<polygon class="st0" points="1103.1,1001.9 1057.1,1007.9 1096.9,938.3 	"/>
	<polygon class="st0" points="1140.6,911.3 1103.1,1001.9 1096.9,938.3 	"/>
	<polygon class="st0" points="1140.6,911.3 1096.9,938.3 1112.4,874.5 	"/>
	<polygon class="st0" points="1148.3,813.5 1140.6,911.3 1112.4,874.5 	"/>
	<polygon class="st0" points="1148.3,813.5 1112.4,874.5 1110.1,787.3 	"/>
	<polygon class="st0" points="1125.4,718.2 1148.3,813.5 1110.1,787.3 	"/>
	<polygon class="st0" points="1125.4,718.2 1110.1,787.3 1069,686.7 	"/>
	<polygon class="st0" points="1056.8,617.2 1125.4,718.2 1069,686.7 	"/>
	<polygon class="st0" points="1056.8,617.2 1069,686.7 987.3,604.9 	"/>
	<polygon class="st0" points="970.8,555.2 1056.8,617.2 987.3,604.9 	"/>
	<polygon class="st0" points="970.8,555.2 987.3,604.9 879.4,563.5 	"/>
	<polygon class="st0" points="852.2,526.1 970.8,555.2 879.4,563.5 	"/>
	<polygon class="st0" points="852.2,526.1 879.4,563.5 792.1,562 	"/>
	<polygon class="st0" points="746.9,537.6 852.2,526.1 792.1,562 	"/>
	<polygon class="st0" points="746.9,537.6 792.1,562 709.6,590.4 	"/>
	<polygon class="st0" points="658.4,579.8 746.9,537.6 709.6,590.4 	"/>
	<polygon class="st0" points="924.9,1138.6 852.3,1151.9 886.7,1112.3 	"/>
	<polygon class="st0" points="591.7,640.4 658.4,579.8 638.2,640.4 	"/>
	<polygon class="st0" points="591.7,640.4 638.2,640.4 588.1,711.9 	"/>
	<polygon class="st0" points="544.2,726.1 591.7,640.4 588.1,711.9 	"/>
	<polygon class="st0" points="544.2,726.1 588.1,711.9 559.4,801.7 	"/>
	<polygon class="st0" points="522.1,821.7 544.2,726.1 559.4,801.7 	"/>
	<polygon class="st0" points="534.1,919 522.1,821.7 559.4,801.7 	"/>
	<polygon class="st0" points="534.1,919 559.4,801.7 561.6,888.9 	"/>
	<polygon class="st0" points="534.1,919 561.6,888.9 602.7,989.5 	"/>
	<polygon class="st0" points="593,1034.7 534.1,919 602.7,989.5 	"/>
	<polygon class="st0" points="593,1034.7 602.7,989.5 666.1,1059.4 	"/>
	<polygon class="st0" points="672.1,1105.3 593,1034.7 666.1,1059.4 	"/>
	<polygon class="st0" points="672.1,1105.3 666.1,1059.4 735.7,1099.1 	"/>
	<polygon class="st0" points="762.7,1142.9 672.1,1105.3 735.7,1099.1 	"/>
	<polygon class="st0" points="762.7,1142.9 735.7,1099.1 799.4,1114.6 	"/>
	<polygon class="st0" points="852.3,1151.9 762.7,1142.9 799.4,1114.6 	"/>
	<polygon class="st0" points="852.3,1151.9 799.4,1114.6 886.7,1112.3 	"/>
	<polygon class="st0" points="1032.5,1080.9 924.9,1138.6 987.3,1071.3 	"/>
	<polygon class="st0" points="924.9,1138.6 886.7,1112.3 987.3,1071.3 	"/>
	<polygon class="st0" points="1032.5,1080.9 987.3,1071.3 1057.1,1007.9 	"/>
	<polygon class="st0" points="1103.1,1001.9 1032.5,1080.9 1057.1,1007.9 	"/>
	<polygon class="st0" points="1339.3,216.4 1439.3,349.5 1324.5,234.7 	"/>
	<polygon class="st0" points="1236.4,144.3 1339.3,216.4 1324.5,234.7 	"/>
	<polygon class="st0" points="1236.4,144.3 1324.5,234.7 1188.4,146.3 	"/>
	<polygon class="st0" points="1122.6,91.2 1236.4,144.3 1188.4,146.3 	"/>
	<polygon class="st0" points="1122.6,91.2 1188.4,146.3 1036.8,88.1 	"/>
	<polygon class="st0" points="1339.3,216.4 1457.6,334.7 1439.3,349.5 	"/>
	<polygon class="st0" points="164.9,1273.8 104,1163.9 111,1116.4 	"/>
	<polygon class="st0" points="104,1163.9 63.1,1045.2 111,1116.4 	"/>
	<polygon class="st0" points="63.1,1045.2 75.3,999.8 111,1116.4 	"/>
	<polygon class="st0" points="63.1,1045.2 60.4,878.7 75.3,999.8 	"/>
	<polygon class="st0" points="63.1,1045.2 37,880 60.4,878.7 	"/>
	<polygon class="st0" points="37,880 68.9,716.6 60.4,878.7 	"/>
	<polygon class="st0" points="37,880 45.7,713 68.9,716.6 	"/>
	<polygon class="st0" points="45.7,713 111,559.8 68.9,716.6 	"/>
	<polygon class="st0" points="89,551.4 184.7,415.2 111,559.8 	"/>
	<polygon class="st0" points="89,551.4 164.9,402.4 184.7,415.2 	"/>
	<polygon class="st0" points="1632.6,754.4 1634.8,880 1611.3,878.7 	"/>
	<polygon class="st0" points="164.9,402.4 258,317.8 184.7,415.2 	"/>
	<polygon class="st0" points="164.9,402.4 240.5,302.1 258,317.8 	"/>
	<polygon class="st0" points="240.5,302.1 347.2,234.7 258,317.8 	"/>
	<polygon class="st0" points="240.5,302.1 332.4,216.4 347.2,234.7 	"/>
	<polygon class="st0" points="332.4,216.4 447.1,164.7 347.2,234.7 	"/>
	<polygon class="st0" points="332.4,216.4 472.7,125.3 447.1,164.7 	"/>
	<polygon class="st0" points="472.7,125.3 557.6,113.2 447.1,164.7 	"/>
	<polygon class="st0" points="472.7,125.3 588.3,76.2 557.6,113.2 	"/>
	<polygon class="st0" points="588.3,76.2 714.4,71.2 557.6,113.2 	"/>
	<polygon class="st0" points="588.3,76.2 710.7,48 714.4,71.2 	"/>
	<polygon class="st0" points="710.7,48 876.5,62.7 714.4,71.2 	"/>
	<polygon class="st0" points="710.7,48 835.9,37 876.5,62.7 	"/>
	<polygon class="st0" points="835.9,37 961,48 876.5,62.7 	"/>
	<polygon class="st0" points="961,48 1036.8,88.1 876.5,62.7 	"/>
	<polygon class="st0" points="961,48 1122.6,91.2 1036.8,88.1 	"/>
	<polygon class="st0" points="45.7,713 89,551.4 111,559.8 	"/>
	<polygon class="st0" points="1608.6,631.1 1632.6,754.4 1602.8,716.6 	"/>
	<polygon class="st0" points="1608.6,631.1 1602.8,716.6 1560.8,559.8 	"/>
	<polygon class="st0" points="1548.7,474.9 1608.6,631.1 1560.8,559.8 	"/>
	<polygon class="st0" points="1548.7,474.9 1560.8,559.8 1509.2,449.3 	"/>
	<polygon class="st0" points="1457.6,334.7 1548.7,474.9 1509.2,449.3 	"/>
	<polygon class="st0" points="1457.6,334.7 1509.2,449.3 1439.3,349.5 	"/>
	<polygon class="st0" points="1632.6,754.4 1611.3,878.7 1602.8,716.6 	"/>
	<polygon class="st0" points="1634.8,880 1596.4,999.8 1611.3,878.7 	"/>
	<polygon class="st0" points="1634.8,880 1608.6,1045.2 1596.4,999.8 	"/>
	<polygon class="st0" points="1608.6,1045.2 1560.8,1116.4 1596.4,999.8 	"/>
	<polygon class="st0" points="1608.6,1045.2 1548.7,1201.3 1560.8,1116.4 	"/>
	<polygon class="st0" points="1548.7,1201.3 1487.1,1261 1560.8,1116.4 	"/>
	<polygon class="st0" points="1548.7,1201.3 1457.6,1341.6 1487.1,1261 	"/>
	<polygon class="st0" points="1457.6,1341.6 1384.9,1387.2 1487.1,1261 	"/>
	<polygon class="st0" points="1457.6,1341.6 1339.3,1459.8 1384.9,1387.2 	"/>
	<polygon class="st0" points="1339.3,1459.8 1258.8,1489.3 1384.9,1387.2 	"/>
	<polygon class="st0" points="1339.3,1459.8 1236.4,1531.9 1258.8,1489.3 	"/>
	<polygon class="st0" points="1236.4,1531.9 1114.1,1563 1258.8,1489.3 	"/>
	<polygon class="st0" points="1236.4,1531.9 1122.6,1585 1114.1,1563 	"/>
	<polygon class="st0" points="1122.6,1585 997.5,1598.7 1114.1,1563 	"/>
	<polygon class="st0" points="1122.6,1585 961,1628.3 997.5,1598.7 	"/>
	<polygon class="st0" points="961,1628.3 876.5,1613.5 997.5,1598.7 	"/>
	<polygon class="st0" points="961,1628.3 794,1637 876.5,1613.5 	"/>
	<polygon class="st0" points="794,1637 714.4,1605 876.5,1613.5 	"/>
	<polygon class="st0" points="794,1637 669.3,1621.7 714.4,1605 	"/>
	<polygon class="st0" points="669.3,1621.7 557.6,1563 714.4,1605 	"/>
	<polygon class="st0" points="669.3,1621.7 549.2,1585 557.6,1563 	"/>
	<polygon class="st0" points="549.2,1585 413,1489.3 557.6,1563 	"/>
	<polygon class="st0" points="549.2,1585 400.2,1509 413,1489.3 	"/>
	<polygon class="st0" points="400.2,1509 286.8,1387.2 413,1489.3 	"/>
	<polygon class="st0" points="400.2,1509 270.2,1403.8 286.8,1387.2 	"/>
	<polygon class="st0" points="270.2,1403.8 184.7,1261 286.8,1387.2 	"/>
	<polygon class="st0" points="270.2,1403.8 164.9,1273.8 184.7,1261 	"/>
	<polygon class="st0" points="164.9,1273.8 111,1116.4 184.7,1261 	"/>
	<polygon class="st0" points="1069,686.7 1110.1,787.3 1095.5,775.8 	"/>
	<polygon class="st0" points="1069,686.7 1095.5,775.8 1059.1,693.1 	"/>
	<polygon class="st0" points="987.3,604.9 1069,686.7 1059.1,693.1 	"/>
	<polygon class="st0" points="987.3,604.9 1059.1,693.1 980.8,614.9 	"/>
	<polygon class="st0" points="879.4,563.5 987.3,604.9 980.8,614.9 	"/>
	<polygon class="st0" points="879.4,563.5 980.8,614.9 877.5,575.2 	"/>
	<polygon class="st0" points="792.1,562 879.4,563.5 877.5,575.2 	"/>
	<polygon class="st0" points="792.1,562 877.5,575.2 773.5,578.5 	"/>
	<polygon class="st0" points="709.6,590.4 792.1,562 773.5,578.5 	"/>
	<polygon class="st0" points="709.6,590.4 773.5,578.5 690.9,614.9 	"/>
	<polygon class="st0" points="638.2,640.4 690.9,614.9 612.6,693.1 	"/>
	<polygon class="st0" points="588.1,711.9 638.2,640.4 612.6,693.1 	"/>
	<polygon class="st0" points="588.1,711.9 612.6,693.1 576.2,775.8 	"/>
	<polygon class="st0" points="559.4,801.7 588.1,711.9 576.2,775.8 	"/>
	<polygon class="st0" points="559.4,801.7 576.2,775.8 568.6,852.1 	"/>
	<polygon class="st0" points="561.6,888.9 559.4,801.7 568.6,852.1 	"/>
	<polygon class="st0" points="561.6,888.9 568.6,852.1 584.2,927.3 	"/>
	<polygon class="st0" points="602.7,989.5 561.6,888.9 584.2,927.3 	"/>
	<polygon class="st0" points="602.7,989.5 584.2,927.3 629,1005.6 	"/>
	<polygon class="st0" points="666.1,1059.4 602.7,989.5 629,1005.6 	"/>
	<polygon class="st0" points="666.1,1059.4 629,1005.6 708.5,1072.8 	"/>
	<polygon class="st0" points="735.7,1099.1 666.1,1059.4 708.5,1072.8 	"/>
	<polygon class="st0" points="735.7,1099.1 708.5,1072.8 794.2,1101 	"/>
	<polygon class="st0" points="799.4,1114.6 735.7,1099.1 794.2,1101 	"/>
	<polygon class="st0" points="886.7,1112.3 799.4,1114.6 794.2,1101 	"/>
	<polygon class="st0" points="987.3,1071.3 904.8,1095.2 1003.4,1045 	"/>
	<polygon class="st0" points="1057.1,1007.9 987.3,1071.3 1003.4,1045 	"/>
	<polygon class="st0" points="1057.1,1007.9 1003.4,1045 1073,959 	"/>
	<polygon class="st0" points="1096.9,938.3 1057.1,1007.9 1073,959 	"/>
	<polygon class="st0" points="638.2,640.4 709.6,590.4 690.9,614.9 	"/>
	<polygon class="st0" points="1112.4,874.5 1096.9,938.3 1073,959 	"/>
	<polygon class="st0" points="1112.4,874.5 1073,959 1102.1,859 	"/>
	<polygon class="st0" points="886.7,1112.3 794.2,1101 904.8,1095.2 	"/>
	<polygon class="st0" points="1110.1,787.3 1112.4,874.5 1102.1,859 	"/>
	<polygon class="st0" points="987.3,1071.3 886.7,1112.3 904.8,1095.2 	"/>
	<polygon class="st0" points="1110.1,787.3 1102.1,859 1095.5,775.8 	"/>
	<polygon class="st0" points="1339.3,1459.8 1199.1,1550.9 1236.4,1531.9 	"/>
	<path class="st0" d="M1339.3,1459.8l-102.9,72.1L1339.3,1459.8z"/>
	<polygon class="st0" points="1457.6,1341.6 1339.3,1459.8 1339.3,1459.8 	"/>
	<path class="st0" d="M1457.6,1341.6l-118.3,118.3L1457.6,1341.6z"/>
	<polygon class="st0" points="1548.7,1201.3 1457.6,1341.6 1457.6,1341.6 	"/>
	<path class="st0" d="M1548.7,1201.3l-91.1,140.3L1548.7,1201.3z"/>
	<polygon class="st0" points="1608.6,1045.2 1548.7,1201.3 1548.7,1201.3 	"/>
	<path class="st0" d="M1608.6,1045.2l-59.9,156.1L1608.6,1045.2z"/>
	<polygon class="st0" points="1634.8,880 1608.6,1045.2 1608.6,1045.2 	"/>
	<path class="st0" d="M1634.8,880l-26.2,165.2L1634.8,880z"/>
	<polygon class="st0" points="1632.6,754.4 1634.8,880 1634.8,880 	"/>
	<path class="st0" d="M1632.6,754.4l2.2,125.6L1632.6,754.4z"/>
	<polygon class="st0" points="1608.6,631.1 1632.6,754.4 1632.6,754.4 	"/>
	<path class="st0" d="M1608.6,631.1l24,123.3L1608.6,631.1z"/>
	<polygon class="st0" points="1567.7,512.3 1608.6,631.1 1608.6,631.1 	"/>
	<polygon class="st0" points="1567.7,512.3 1608.6,631.1 1548.7,474.9 	"/>
	<polygon class="st0" points="1506.8,402.4 1567.7,512.3 1548.7,474.9 	"/>
	<polygon class="st0" points="1506.8,402.4 1548.7,474.9 1457.6,334.7 	"/>
	<polygon class="st0" points="1401.6,272.4 1506.8,402.4 1457.6,334.7 	"/>
	<polygon class="st0" points="1401.6,272.4 1457.6,334.7 1339.3,216.4 	"/>
	<polygon class="st0" points="1271.6,167.2 1401.6,272.4 1339.3,216.4 	"/>
	<polygon class="st0" points="1271.6,167.2 1339.3,216.4 1236.4,144.3 	"/>
	<polygon class="st0" points="1161.7,106.3 1271.6,167.2 1236.4,144.3 	"/>
	<polygon class="st0" points="1161.7,106.3 1236.4,144.3 1122.6,91.2 	"/>
	<polygon class="st0" points="1042.9,65.4 1161.7,106.3 1122.6,91.2 	"/>
	<polygon class="st0" points="1042.9,65.4 1122.6,91.2 961,48 	"/>
	<polygon class="st0" points="919.6,41.4 1042.9,65.4 961,48 	"/>
	<polygon class="st0" points="794,39.2 919.6,41.4 961,48 	"/>
	<polygon class="st0" points="794,39.2 961,48 835.9,37 	"/>
	<polygon class="st0" points="794,39.2 835.9,37 710.7,48 	"/>
	<polygon class="st0" points="669.3,54.5 794,39.2 710.7,48 	"/>
	<polygon class="st0" points="549.2,91.2 669.3,54.5 710.7,48 	"/>
	<polygon class="st0" points="549.2,91.2 710.7,48 588.3,76.2 	"/>
	<polygon class="st0" points="549.2,91.2 588.3,76.2 472.7,125.3 	"/>
	<polygon class="st0" points="400.2,167.2 549.2,91.2 472.7,125.3 	"/>
	<polygon class="st0" points="400.2,167.2 472.7,125.3 332.4,216.4 	"/>
	<polygon class="st0" points="299.8,242.8 400.2,167.2 332.4,216.4 	"/>
	<polygon class="st0" points="214.1,334.7 299.8,242.8 332.4,216.4 	"/>
	<polygon class="st0" points="214.1,334.7 332.4,216.4 240.5,302.1 	"/>
	<polygon class="st0" points="214.1,334.7 240.5,302.1 164.9,402.4 	"/>
	<polygon class="st0" points="123.1,474.9 214.1,334.7 164.9,402.4 	"/>
	<polygon class="st0" points="123.1,474.9 164.9,402.4 89,551.4 	"/>
	<polygon class="st0" points="63.1,631.1 123.1,474.9 89,551.4 	"/>
	<polygon class="st0" points="63.1,631.1 89,551.4 45.7,713 	"/>
	<polygon class="st0" points="37,796.2 63.1,631.1 45.7,713 	"/>
	<polygon class="st0" points="37,796.2 45.7,713 37,880 	"/>
	<polygon class="st0" points="45.7,963.3 37,796.2 37,880 	"/>
	<polygon class="st0" points="45.7,963.3 37,880 63.1,1045.2 	"/>
	<polygon class="st0" points="89,1124.8 45.7,963.3 63.1,1045.2 	"/>
	<polygon class="st0" points="89,1124.8 63.1,1045.2 104,1163.9 	"/>
	<polygon class="st0" points="164.9,1273.8 89,1124.8 104,1163.9 	"/>
	<path class="st0" d="M164.9,1273.8L104,1163.9L164.9,1273.8z"/>
	<polygon class="st0" points="270.2,1403.8 164.9,1273.8 164.9,1273.8 	"/>
	<path class="st0" d="M270.2,1403.8l-105.2-130L270.2,1403.8z"/>
	<polygon class="st0" points="365,1486.2 270.2,1403.8 270.2,1403.8 	"/>
	<polygon class="st0" points="365,1486.2 270.2,1403.8 400.2,1509 	"/>
	<polygon class="st0" points="472.7,1550.9 365,1486.2 400.2,1509 	"/>
	<polygon class="st0" points="472.7,1550.9 400.2,1509 549.2,1585 	"/>
	<polygon class="st0" points="628.8,1610.9 472.7,1550.9 549.2,1585 	"/>
	<polygon class="st0" points="628.8,1610.9 549.2,1585 669.3,1621.7 	"/>
	<polygon class="st0" points="794,1637 628.8,1610.9 669.3,1621.7 	"/>
	<path class="st0" d="M794,1637l-124.7-15.3L794,1637z"/>
	<polygon class="st0" points="961,1628.3 794,1637 794,1637 	"/>
	<path class="st0" d="M961,1628.3l-167,8.8L961,1628.3z"/>
	<polygon class="st0" points="1083.4,1600 961,1628.3 961,1628.3 	"/>
	<polygon class="st0" points="1083.4,1600 961,1628.3 1122.6,1585 	"/>
	<polygon class="st0" points="1199.1,1550.9 1083.4,1600 1122.6,1585 	"/>
	<polygon class="st0" points="1199.1,1550.9 1122.6,1585 1236.4,1531.9 	"/>
	<polygon class="st0" points="1095.5,775.8 1114.7,830.8 1095.4,738.5 	"/>
	<polygon class="st0" points="1059.1,693.1 1095.5,775.8 1095.4,738.5 	"/>
	<polygon class="st0" points="1059.1,693.1 1095.4,738.5 1032.5,641.5 	"/>
	<polygon class="st0" points="980.8,614.9 1059.1,693.1 1032.5,641.5 	"/>
	<polygon class="st0" points="980.8,614.9 1032.5,641.5 935.5,578.6 	"/>
	<polygon class="st0" points="877.5,575.2 980.8,614.9 935.5,578.6 	"/>
	<polygon class="st0" points="877.5,575.2 935.5,578.6 828.5,559.3 	"/>
	<polygon class="st0" points="773.5,578.5 877.5,575.2 828.5,559.3 	"/>
	<polygon class="st0" points="773.5,578.5 828.5,559.3 763.5,568.1 	"/>
	<polygon class="st0" points="690.9,614.9 773.5,578.5 763.5,568.1 	"/>
	<polygon class="st0" points="690.9,614.9 763.5,568.1 684.4,604.9 	"/>
	<polygon class="st0" points="612.6,693.1 690.9,614.9 684.4,604.9 	"/>
	<polygon class="st0" points="904.8,1095.2 879.4,1112.7 987.3,1071.3 	"/>
	<polygon class="st0" points="576.2,775.8 602.7,686.7 561.3,794.6 	"/>
	<polygon class="st0" points="1003.4,1045 904.8,1095.2 987.3,1071.3 	"/>
	<polygon class="st0" points="1003.4,1045 987.3,1071.3 1065.7,996.1 	"/>
	<polygon class="st0" points="1073,959 1003.4,1045 1065.7,996.1 	"/>
	<polygon class="st0" points="1073,959 1065.7,996.1 1103.3,917.3 	"/>
	<polygon class="st0" points="1102.1,859 1073,959 1103.3,917.3 	"/>
	<polygon class="st0" points="1102.1,859 1103.3,917.3 1114.7,830.8 	"/>
	<polygon class="st0" points="1095.5,775.8 1102.1,859 1114.7,830.8 	"/>
	<polygon class="st0" points="612.6,693.1 684.4,604.9 602.7,686.7 	"/>
	<polygon class="st0" points="576.2,775.8 612.6,693.1 602.7,686.7 	"/>
	<polygon class="st0" points="568.6,852.1 576.2,775.8 561.3,794.6 	"/>
	<polygon class="st0" points="568.6,852.1 561.3,794.6 564.7,903.2 	"/>
	<polygon class="st0" points="584.2,927.3 568.6,852.1 564.7,903.2 	"/>
	<polygon class="st0" points="584.2,927.3 564.7,903.2 586.8,965 	"/>
	<polygon class="st0" points="629,1005.6 584.2,927.3 586.8,965 	"/>
	<polygon class="st0" points="629,1005.6 586.8,965 639.3,1034.7 	"/>
	<polygon class="st0" points="708.5,1072.8 629,1005.6 639.3,1034.7 	"/>
	<polygon class="st0" points="708.5,1072.8 639.3,1034.7 709,1087.2 	"/>
	<polygon class="st0" points="794.2,1101 708.5,1072.8 709,1087.2 	"/>
	<polygon class="st0" points="794.2,1101 709,1087.2 785.1,1112.3 	"/>
	<polygon class="st0" points="794.2,1101 785.1,1112.3 879.4,1112.7 	"/>
	<polygon class="st0" points="904.8,1095.2 794.2,1101 879.4,1112.7 	"/>
	<polygon class="st0" points="483.4,1530 365,1486.2 472.7,1550.9 	"/>
	<polygon class="st0" points="483.4,1530 378.8,1467.2 365,1486.2 	"/>
	<polygon class="st0" points="378.8,1467.2 270.2,1403.8 365,1486.2 	"/>
	<polygon class="st0" points="378.8,1467.2 286.8,1387.2 270.2,1403.8 	"/>
	<polygon class="st0" points="286.8,1387.2 164.9,1273.8 270.2,1403.8 	"/>
	<polygon class="st0" points="286.8,1387.2 184.7,1261 164.9,1273.8 	"/>
	<polygon class="st0" points="184.7,1261 89,1124.8 164.9,1273.8 	"/>
	<polygon class="st0" points="184.7,1261 125.5,1154.4 89,1124.8 	"/>
	<polygon class="st0" points="125.5,1154.4 85.8,1039.1 89,1124.8 	"/>
	<polygon class="st0" points="85.8,1039.1 45.7,963.3 89,1124.8 	"/>
	<polygon class="st0" points="85.8,1039.1 62.6,919.4 45.7,963.3 	"/>
	<polygon class="st0" points="62.6,919.4 37,796.2 45.7,963.3 	"/>
	<polygon class="st0" points="62.6,919.4 60.4,797.5 37,796.2 	"/>
	<polygon class="st0" points="60.4,797.5 63.1,631.1 37,796.2 	"/>
	<polygon class="st0" points="60.4,797.5 85.8,637.1 63.1,631.1 	"/>
	<polygon class="st0" points="85.8,637.1 123.1,474.9 63.1,631.1 	"/>
	<polygon class="st0" points="1602.8,716.6 1611.3,878.7 1634.8,880 	"/>
	<polygon class="st0" points="144,485.6 214.1,334.7 123.1,474.9 	"/>
	<polygon class="st0" points="144,485.6 232.4,349.5 214.1,334.7 	"/>
	<polygon class="st0" points="232.4,349.5 299.8,242.8 214.1,334.7 	"/>
	<polygon class="st0" points="232.4,349.5 347.2,234.7 299.8,242.8 	"/>
	<polygon class="st0" points="347.2,234.7 400.2,167.2 299.8,242.8 	"/>
	<polygon class="st0" points="347.2,234.7 483.3,146.3 400.2,167.2 	"/>
	<polygon class="st0" points="483.3,146.3 549.2,91.2 400.2,167.2 	"/>
	<polygon class="st0" points="483.3,146.3 595.6,98.6 549.2,91.2 	"/>
	<polygon class="st0" points="595.6,98.6 669.3,54.5 549.2,91.2 	"/>
	<polygon class="st0" points="595.6,98.6 714.4,71.2 669.3,54.5 	"/>
	<polygon class="st0" points="714.4,71.2 794,39.2 669.3,54.5 	"/>
	<polygon class="st0" points="714.4,71.2 835.9,60.6 794,39.2 	"/>
	<polygon class="st0" points="835.9,60.6 919.6,41.4 794,39.2 	"/>
	<polygon class="st0" points="835.9,60.6 957.3,71.2 919.6,41.4 	"/>
	<polygon class="st0" points="957.3,71.2 1042.9,65.4 919.6,41.4 	"/>
	<polygon class="st0" points="957.3,71.2 1114.1,113.2 1042.9,65.4 	"/>
	<polygon class="st0" points="1114.1,113.2 1161.7,106.3 1042.9,65.4 	"/>
	<polygon class="st0" points="1114.1,113.2 1271.6,167.2 1161.7,106.3 	"/>
	<polygon class="st0" points="1114.1,113.2 1224.6,164.7 1271.6,167.2 	"/>
	<polygon class="st0" points="1224.6,164.7 1324.5,234.7 1271.6,167.2 	"/>
	<polygon class="st0" points="1324.5,234.7 1401.6,272.4 1271.6,167.2 	"/>
	<polygon class="st0" points="1324.5,234.7 1439.3,349.5 1401.6,272.4 	"/>
	<polygon class="st0" points="1439.3,349.5 1506.8,402.4 1401.6,272.4 	"/>
	<polygon class="st0" points="1439.3,349.5 1527.7,485.6 1506.8,402.4 	"/>
	<polygon class="st0" points="1527.7,485.6 1567.7,512.3 1506.8,402.4 	"/>
	<polygon class="st0" points="1602.8,716.6 1634.8,880 1632.6,754.4 	"/>
	<polygon class="st0" points="1527.7,485.6 1575.4,597.8 1608.6,631.1 	"/>
	<polygon class="st0" points="1575.4,597.8 1602.8,716.6 1608.6,631.1 	"/>
	<polygon class="st0" points="1602.8,716.6 1632.6,754.4 1608.6,631.1 	"/>
	<polygon class="st0" points="1611.3,878.7 1608.6,1045.2 1634.8,880 	"/>
	<polygon class="st0" points="1611.3,878.7 1585.9,1039.1 1608.6,1045.2 	"/>
	<polygon class="st0" points="1585.9,1039.1 1548.7,1201.3 1608.6,1045.2 	"/>
	<polygon class="st0" points="1585.9,1039.1 1546.2,1154.4 1548.7,1201.3 	"/>
	<polygon class="st0" points="1546.2,1154.4 1487.1,1261 1548.7,1201.3 	"/>
	<polygon class="st0" points="1487.1,1261 1457.6,1341.6 1548.7,1201.3 	"/>
	<polygon class="st0" points="1487.1,1261 1384.9,1387.2 1457.6,1341.6 	"/>
	<polygon class="st0" points="1384.9,1387.2 1339.3,1459.8 1457.6,1341.6 	"/>
	<polygon class="st0" points="1384.9,1387.2 1258.8,1489.3 1339.3,1459.8 	"/>
	<polygon class="st0" points="85.8,637.1 144,485.6 123.1,474.9 	"/>
	<polygon class="st0" points="1258.8,1489.3 1199.1,1550.9 1339.3,1459.8 	"/>
	<polygon class="st0" points="1258.8,1489.3 1114.1,1563 1199.1,1550.9 	"/>
	<polygon class="st0" points="1114.1,1563 1083.4,1600 1199.1,1550.9 	"/>
	<polygon class="st0" points="1114.1,1563 961,1628.3 1083.4,1600 	"/>
	<polygon class="st0" points="1114.1,1563 997.5,1598.7 961,1628.3 	"/>
	<polygon class="st0" points="997.5,1598.7 876.5,1613.5 961,1628.3 	"/>
	<polygon class="st0" points="876.5,1613.5 794,1637 961,1628.3 	"/>
	<polygon class="st0" points="876.5,1613.5 714.4,1605 794,1637 	"/>
	<polygon class="st0" points="714.4,1605 628.8,1610.9 794,1637 	"/>
	<polygon class="st0" points="714.4,1605 595.6,1577.6 628.8,1610.9 	"/>
	<polygon class="st0" points="595.6,1577.6 472.7,1550.9 628.8,1610.9 	"/>
	<polygon class="st0" points="595.6,1577.6 483.4,1530 472.7,1550.9 	"/>
	<polygon class="st0" points="1527.7,485.6 1608.6,631.1 1567.7,512.3 	"/>
	<polygon class="st0" points="828.5,559.3 917.2,534.6 819.5,526.1 	"/>
	<polygon class="st0" points="828.5,559.3 935.5,578.6 917.2,534.6 	"/>
	<polygon class="st0" points="935.5,578.6 985.4,562.7 917.2,534.6 	"/>
	<polygon class="st0" points="935.5,578.6 1032.5,641.5 985.4,562.7 	"/>
	<polygon class="st0" points="1032.5,641.5 1063.2,622.4 985.4,562.7 	"/>
	<polygon class="st0" points="1032.5,641.5 1115.8,695.5 1063.2,622.4 	"/>
	<polygon class="st0" points="1032.5,641.5 1095.4,738.5 1115.8,695.5 	"/>
	<polygon class="st0" points="1095.4,738.5 1140.6,764.9 1115.8,695.5 	"/>
	<polygon class="st0" points="1095.4,738.5 1114.7,830.8 1140.6,764.9 	"/>
	<polygon class="st0" points="1103.3,917.3 1065.7,996.1 1078.7,1034.7 	"/>
	<polygon class="st0" points="1114.7,830.8 1149.6,854.6 1140.6,764.9 	"/>
	<polygon class="st0" points="1114.7,830.8 1136.4,927.1 1149.6,854.6 	"/>
	<polygon class="st0" points="1114.7,830.8 1103.3,917.3 1136.4,927.1 	"/>
	<polygon class="st0" points="1103.3,917.3 1078.7,1034.7 1136.4,927.1 	"/>
	<polygon class="st0" points="1065.7,996.1 987.3,1071.3 1078.7,1034.7 	"/>
	<polygon class="st0" points="987.3,1071.3 1007,1101.6 1078.7,1034.7 	"/>
	<polygon class="st0" points="987.3,1071.3 940.5,1133.5 1007,1101.6 	"/>
	<polygon class="st0" points="987.3,1071.3 879.4,1112.7 940.5,1133.5 	"/>
	<polygon class="st0" points="879.4,1112.7 844.1,1151.4 940.5,1133.5 	"/>
	<polygon class="st0" points="879.4,1112.7 785.1,1112.3 844.1,1151.4 	"/>
	<polygon class="st0" points="785.1,1112.3 754.6,1141.6 844.1,1151.4 	"/>
	<polygon class="st0" points="785.1,1112.3 686.3,1113.6 754.6,1141.6 	"/>
	<polygon class="st0" points="785.1,1112.3 709,1087.2 686.3,1113.6 	"/>
	<polygon class="st0" points="709,1087.2 639.3,1034.7 686.3,1113.6 	"/>
	<polygon class="st0" points="639.3,1034.7 608.5,1053.9 686.3,1113.6 	"/>
	<polygon class="st0" points="639.3,1034.7 544.2,950.1 608.5,1053.9 	"/>
	<polygon class="st0" points="639.3,1034.7 586.8,965 544.2,950.1 	"/>
	<polygon class="st0" points="586.8,965 564.7,903.2 544.2,950.1 	"/>
	<polygon class="st0" points="564.7,903.2 522.1,854.6 544.2,950.1 	"/>
	<polygon class="st0" points="564.7,903.2 561.3,794.6 522.1,854.6 	"/>
	<polygon class="st0" points="561.3,794.6 534.1,757.2 522.1,854.6 	"/>
	<polygon class="st0" points="561.3,794.6 602.7,686.7 534.1,757.2 	"/>
	<polygon class="st0" points="602.7,686.7 593,641.5 534.1,757.2 	"/>
	<polygon class="st0" points="602.7,686.7 684.4,604.9 593,641.5 	"/>
	<polygon class="st0" points="684.4,604.9 694,559.7 593,641.5 	"/>
	<polygon class="st0" points="684.4,604.9 763.5,568.1 694,559.7 	"/>
	<polygon class="st0" points="763.5,568.1 819.5,526.1 694,559.7 	"/>
	<polygon class="st0" points="763.5,568.1 828.5,559.3 819.5,526.1 	"/>
	<polygon class="st0" points="1566.4,799.8 1611.3,878.7 1602.8,716.6 	"/>
	<polygon class="st0" points="1566.4,799.8 1558.4,952.5 1611.3,878.7 	"/>
	<polygon class="st0" points="1558.4,952.5 1585.9,1039.1 1611.3,878.7 	"/>
	<polygon class="st0" points="1558.4,952.5 1532.6,1064.5 1585.9,1039.1 	"/>
	<polygon class="st0" points="1532.6,1064.5 1546.2,1154.4 1585.9,1039.1 	"/>
	<polygon class="st0" points="1532.6,1064.5 1487.7,1170.2 1546.2,1154.4 	"/>
	<polygon class="st0" points="1487.7,1170.2 1487.1,1261 1546.2,1154.4 	"/>
	<polygon class="st0" points="1487.7,1170.2 1404.4,1298.5 1487.1,1261 	"/>
	<polygon class="st0" points="1404.4,1298.5 1384.9,1387.2 1487.1,1261 	"/>
	<polygon class="st0" points="1404.4,1298.5 1326,1382.5 1384.9,1387.2 	"/>
	<polygon class="st0" points="573.7,1521.1 469.6,1472.5 483.4,1530 	"/>
	<polygon class="st0" points="1326,1382.5 1258.8,1489.3 1384.9,1387.2 	"/>
	<polygon class="st0" points="1326,1382.5 1234.3,1451.6 1258.8,1489.3 	"/>
	<polygon class="st0" points="1234.3,1451.6 1114.1,1563 1258.8,1489.3 	"/>
	<polygon class="st0" points="1234.3,1451.6 1098,1521.1 1114.1,1563 	"/>
	<polygon class="st0" points="1098,1521.1 997.5,1598.7 1114.1,1563 	"/>
	<polygon class="st0" points="1098,1521.1 988.2,1554.6 997.5,1598.7 	"/>
	<polygon class="st0" points="988.2,1554.6 876.5,1613.5 997.5,1598.7 	"/>
	<polygon class="st0" points="988.2,1554.6 874.2,1568.6 876.5,1613.5 	"/>
	<polygon class="st0" points="874.2,1568.6 714.4,1605 876.5,1613.5 	"/>
	<polygon class="st0" points="874.2,1568.6 721.4,1560.6 714.4,1605 	"/>
	<polygon class="st0" points="721.4,1560.6 595.6,1577.6 714.4,1605 	"/>
	<polygon class="st0" points="721.4,1560.6 573.7,1521.1 595.6,1577.6 	"/>
	<polygon class="st0" points="573.7,1521.1 483.4,1530 595.6,1577.6 	"/>
	<polygon class="st0" points="469.6,1472.5 378.8,1467.2 483.4,1530 	"/>
	<polygon class="st0" points="469.6,1472.5 375.5,1406.6 378.8,1467.2 	"/>
	<polygon class="st0" points="375.5,1406.6 286.8,1387.2 378.8,1467.2 	"/>
	<polygon class="st0" points="375.5,1406.6 291.5,1328.3 286.8,1387.2 	"/>
	<polygon class="st0" points="291.5,1328.3 184.7,1261 286.8,1387.2 	"/>
	<polygon class="st0" points="291.5,1328.3 222.3,1236.5 184.7,1261 	"/>
	<polygon class="st0" points="222.3,1236.5 125.5,1154.4 184.7,1261 	"/>
	<polygon class="st0" points="222.3,1236.5 136.1,1045.3 125.5,1154.4 	"/>
	<polygon class="st0" points="136.1,1045.3 85.8,1039.1 125.5,1154.4 	"/>
	<polygon class="st0" points="136.1,1045.3 62.6,919.4 85.8,1039.1 	"/>
	<polygon class="st0" points="136.1,1045.3 105.3,876.4 62.6,919.4 	"/>
	<polygon class="st0" points="105.3,876.4 60.4,797.5 62.6,919.4 	"/>
	<polygon class="st0" points="105.3,876.4 107.3,761.5 60.4,797.5 	"/>
	<polygon class="st0" points="107.3,761.5 85.8,637.1 60.4,797.5 	"/>
	<polygon class="st0" points="107.3,761.5 129.3,648.8 85.8,637.1 	"/>
	<polygon class="st0" points="129.3,648.8 144,485.6 85.8,637.1 	"/>
	<polygon class="st0" points="129.3,648.8 184.1,506 144,485.6 	"/>
	<polygon class="st0" points="184.1,506 232.4,349.5 144,485.6 	"/>
	<polygon class="st0" points="184.1,506 243.2,407.5 232.4,349.5 	"/>
	<polygon class="st0" points="243.2,407.5 361.9,283.2 232.4,349.5 	"/>
	<polygon class="st0" points="361.9,283.2 347.2,234.7 232.4,349.5 	"/>
	<polygon class="st0" points="361.9,283.2 483.3,146.3 347.2,234.7 	"/>
	<polygon class="st0" points="361.9,283.2 503.8,186.3 483.3,146.3 	"/>
	<polygon class="st0" points="503.8,186.3 595.6,98.6 483.3,146.3 	"/>
	<polygon class="st0" points="503.8,186.3 646.5,131.5 595.6,98.6 	"/>
	<polygon class="st0" points="646.5,131.5 714.4,71.2 595.6,98.6 	"/>
	<polygon class="st0" points="646.5,131.5 759.3,109.6 714.4,71.2 	"/>
	<polygon class="st0" points="759.3,109.6 835.9,60.6 714.4,71.2 	"/>
	<polygon class="st0" points="759.3,109.6 874.2,107.6 835.9,60.6 	"/>
	<polygon class="st0" points="874.2,107.6 957.3,71.2 835.9,60.6 	"/>
	<polygon class="st0" points="874.2,107.6 1025.2,131.5 957.3,71.2 	"/>
	<polygon class="st0" points="1025.2,131.5 1114.1,113.2 957.3,71.2 	"/>
	<polygon class="st0" points="1025.2,131.5 1168,186.3 1114.1,113.2 	"/>
	<polygon class="st0" points="1168,186.3 1224.6,164.7 1114.1,113.2 	"/>
	<polygon class="st0" points="1168,186.3 1324.5,234.7 1224.6,164.7 	"/>
	<polygon class="st0" points="1168,186.3 1296.2,269.6 1324.5,234.7 	"/>
	<polygon class="st0" points="1296.2,269.6 1439.3,349.5 1324.5,234.7 	"/>
	<polygon class="st0" points="1296.2,269.6 1404.4,377.7 1439.3,349.5 	"/>
	<polygon class="st0" points="1404.4,377.7 1527.7,485.6 1439.3,349.5 	"/>
	<polygon class="st0" points="1404.4,377.7 1487.7,506 1527.7,485.6 	"/>
	<polygon class="st0" points="1487.7,506 1575.4,597.8 1527.7,485.6 	"/>
	<polygon class="st0" points="1487.7,506 1542.5,648.8 1575.4,597.8 	"/>
	<polygon class="st0" points="1542.5,648.8 1602.8,716.6 1575.4,597.8 	"/>
	<polygon class="st0" points="1542.5,648.8 1566.4,799.8 1602.8,716.6 	"/>
	<polygon class="st0" points="1078.7,1034.7 1007,1101.6 1002.2,1164.6 	"/>
	<polygon class="st0" points="1078.7,1034.7 1002.2,1164.6 1096.4,1098.6 	"/>
	<polygon class="st0" points="1078.7,1034.7 1096.4,1098.6 1158.9,1013.5 	"/>
	<polygon class="st0" points="1136.4,927.1 1078.7,1034.7 1158.9,1013.5 	"/>
	<polygon class="st0" points="1136.4,927.1 1158.9,1013.5 1191.8,933.5 	"/>
	<polygon class="st0" points="1149.6,854.6 1136.4,927.1 1191.8,933.5 	"/>
	<polygon class="st0" points="1149.6,854.6 1191.8,933.5 1203.3,828.5 	"/>
	<polygon class="st0" points="1140.6,764.9 1149.6,854.6 1203.3,828.5 	"/>
	<polygon class="st0" points="917.2,534.6 985.4,562.7 976.5,498.5 	"/>
	<polygon class="st0" points="985.4,562.7 1095,579 976.5,498.5 	"/>
	<polygon class="st0" points="985.4,562.7 1063.2,622.4 1095,579 	"/>
	<polygon class="st0" points="1063.2,622.4 1178,706.8 1095,579 	"/>
	<polygon class="st0" points="1063.2,622.4 1115.8,695.5 1178,706.8 	"/>
	<polygon class="st0" points="1115.8,695.5 1140.6,764.9 1178,706.8 	"/>
	<polygon class="st0" points="1140.6,764.9 1203.3,828.5 1178,706.8 	"/>
	<polygon class="st0" points="940.5,1133.5 893.5,1202 1002.2,1164.6 	"/>
	<polygon class="st0" points="917.2,534.6 976.5,498.5 893.5,474.2 	"/>
	<polygon class="st0" points="819.5,526.1 917.2,534.6 893.5,474.2 	"/>
	<polygon class="st0" points="819.5,526.1 893.5,474.2 787.9,473.7 	"/>
	<polygon class="st0" points="694,559.7 819.5,526.1 787.9,473.7 	"/>
	<polygon class="st0" points="694,559.7 787.9,473.7 677.6,506.4 	"/>
	<polygon class="st0" points="694,559.7 677.6,506.4 576.8,579 	"/>
	<polygon class="st0" points="593,641.5 694,559.7 576.8,579 	"/>
	<polygon class="st0" points="593,641.5 576.8,579 493.8,706.8 	"/>
	<polygon class="st0" points="534.1,757.2 593,641.5 493.8,706.8 	"/>
	<polygon class="st0" points="534.1,757.2 493.8,706.8 467.9,818.8 	"/>
	<polygon class="st0" points="522.1,854.6 534.1,757.2 467.9,818.8 	"/>
	<polygon class="st0" points="522.1,854.6 467.9,818.8 478.5,923.9 	"/>
	<polygon class="st0" points="544.2,950.1 522.1,854.6 478.5,923.9 	"/>
	<polygon class="st0" points="544.2,950.1 478.5,923.9 528.6,1037.7 	"/>
	<polygon class="st0" points="608.5,1053.9 544.2,950.1 528.6,1037.7 	"/>
	<polygon class="st0" points="608.5,1053.9 528.6,1037.7 627.7,1141 	"/>
	<polygon class="st0" points="686.3,1113.6 608.5,1053.9 627.7,1141 	"/>
	<polygon class="st0" points="686.3,1113.6 627.7,1141 703.8,1182.1 	"/>
	<polygon class="st0" points="754.6,1141.6 686.3,1113.6 703.8,1182.1 	"/>
	<polygon class="st0" points="754.6,1141.6 703.8,1182.1 807,1204.5 	"/>
	<polygon class="st0" points="844.1,1151.4 754.6,1141.6 807,1204.5 	"/>
	<polygon class="st0" points="844.1,1151.4 807,1204.5 893.5,1202 	"/>
	<polygon class="st0" points="940.5,1133.5 844.1,1151.4 893.5,1202 	"/>
	<polygon class="st0" points="1007,1101.6 940.5,1133.5 1002.2,1164.6 	"/>
	<polygon class="st0" points="1501.4,785.8 1558.4,952.5 1566.4,799.8 	"/>
	<polygon class="st0" points="1501.4,785.8 1485,994 1558.4,952.5 	"/>
	<polygon class="st0" points="1485,994 1532.6,1064.5 1558.4,952.5 	"/>
	<polygon class="st0" points="1485,994 1487.7,1170.2 1532.6,1064.5 	"/>
	<polygon class="st0" points="1485,994 1405,1186.9 1487.7,1170.2 	"/>
	<polygon class="st0" points="1405,1186.9 1404.4,1298.5 1487.7,1170.2 	"/>
	<polygon class="st0" points="1405,1186.9 1309,1311.3 1404.4,1298.5 	"/>
	<polygon class="st0" points="1309,1311.3 1326,1382.5 1404.4,1298.5 	"/>
	<polygon class="st0" points="1309,1311.3 1234.3,1451.6 1326,1382.5 	"/>
	<polygon class="st0" points="1309,1311.3 1154.4,1424.8 1234.3,1451.6 	"/>
	<polygon class="st0" points="1154.4,1424.8 1098,1521.1 1234.3,1451.6 	"/>
	<polygon class="st0" points="1154.4,1424.8 1009.1,1484.5 1098,1521.1 	"/>
	<polygon class="st0" points="1009.1,1484.5 988.2,1554.6 1098,1521.1 	"/>
	<polygon class="st0" points="1009.1,1484.5 874.2,1568.6 988.2,1554.6 	"/>
	<polygon class="st0" points="1009.1,1484.5 870.9,1506.4 874.2,1568.6 	"/>
	<polygon class="st0" points="870.9,1506.4 731.2,1499 721.4,1560.6 	"/>
	<polygon class="st0" points="731.2,1499 573.7,1521.1 721.4,1560.6 	"/>
	<polygon class="st0" points="731.2,1499 596.1,1462.8 573.7,1521.1 	"/>
	<polygon class="st0" points="596.1,1462.8 469.6,1472.5 573.7,1521.1 	"/>
	<polygon class="st0" points="596.1,1462.8 471.4,1399.3 469.6,1472.5 	"/>
	<polygon class="st0" points="471.4,1399.3 375.5,1406.6 469.6,1472.5 	"/>
	<polygon class="st0" points="471.4,1399.3 362.7,1311.3 375.5,1406.6 	"/>
	<polygon class="st0" points="362.7,1311.3 291.5,1328.3 375.5,1406.6 	"/>
	<polygon class="st0" points="362.7,1311.3 222.3,1236.5 291.5,1328.3 	"/>
	<polygon class="st0" points="362.7,1311.3 249.2,1156.6 222.3,1236.5 	"/>
	<polygon class="st0" points="249.2,1156.6 136.1,1045.3 222.3,1236.5 	"/>
	<polygon class="st0" points="249.2,1156.6 189.5,1011.3 136.1,1045.3 	"/>
	<polygon class="st0" points="189.5,1011.3 105.3,876.4 136.1,1045.3 	"/>
	<polygon class="st0" points="189.5,1011.3 167.6,873.1 105.3,876.4 	"/>
	<polygon class="st0" points="167.6,873.1 107.3,761.5 105.3,876.4 	"/>
	<polygon class="st0" points="167.6,873.1 174.9,733.4 107.3,761.5 	"/>
	<polygon class="st0" points="174.9,733.4 129.3,648.8 107.3,761.5 	"/>
	<polygon class="st0" points="174.9,733.4 211.2,598.3 129.3,648.8 	"/>
	<polygon class="st0" points="211.2,598.3 184.1,506 129.3,648.8 	"/>
	<polygon class="st0" points="211.2,598.3 274.7,473.7 184.1,506 	"/>
	<polygon class="st0" points="274.7,473.7 243.2,407.5 184.1,506 	"/>
	<polygon class="st0" points="274.7,473.7 361.9,283.2 243.2,407.5 	"/>
	<polygon class="st0" points="274.7,473.7 402.4,330.5 361.9,283.2 	"/>
	<polygon class="st0" points="870.9,1506.4 721.4,1560.6 874.2,1568.6 	"/>
	<polygon class="st0" points="402.4,330.5 503.8,186.3 361.9,283.2 	"/>
	<polygon class="st0" points="402.4,330.5 532.1,241.9 503.8,186.3 	"/>
	<polygon class="st0" points="532.1,241.9 646.5,131.5 503.8,186.3 	"/>
	<polygon class="st0" points="532.1,241.9 714.2,181.7 646.5,131.5 	"/>
	<polygon class="st0" points="714.2,181.7 759.3,109.6 646.5,131.5 	"/>
	<polygon class="st0" points="714.2,181.7 874.2,107.6 759.3,109.6 	"/>
	<polygon class="st0" points="714.2,181.7 870.9,169.9 874.2,107.6 	"/>
	<polygon class="st0" points="870.9,169.9 1025.2,131.5 874.2,107.6 	"/>
	<polygon class="st0" points="870.9,169.9 1058.7,208.9 1025.2,131.5 	"/>
	<polygon class="st0" points="1058.7,208.9 1168,186.3 1025.2,131.5 	"/>
	<polygon class="st0" points="1058.7,208.9 1200.3,276.9 1168,186.3 	"/>
	<polygon class="st0" points="1200.3,276.9 1296.2,269.6 1168,186.3 	"/>
	<polygon class="st0" points="1200.3,276.9 1309,364.9 1296.2,269.6 	"/>
	<polygon class="st0" points="1309,364.9 1404.4,377.7 1296.2,269.6 	"/>
	<polygon class="st0" points="1309,364.9 1397.1,473.7 1404.4,377.7 	"/>
	<polygon class="st0" points="1397.1,473.7 1487.7,506 1404.4,377.7 	"/>
	<polygon class="st0" points="1501.4,785.8 1566.4,799.8 1542.5,648.8 	"/>
	<polygon class="st0" points="1460.6,598.3 1501.4,785.8 1542.5,648.8 	"/>
	<polygon class="st0" points="1460.6,598.3 1542.5,648.8 1487.7,506 	"/>
	<polygon class="st0" points="1397.1,473.7 1460.6,598.3 1487.7,506 	"/>
	<polygon class="st0" points="893.5,1202 767.8,1267.9 937.8,1262.5 	"/>
	<polygon class="st0" points="893.5,1202 807,1204.5 767.8,1267.9 	"/>
	<polygon class="st0" points="807,1204.5 703.8,1182.1 767.8,1267.9 	"/>
	<polygon class="st0" points="703.8,1182.1 637.2,1228 767.8,1267.9 	"/>
	<polygon class="st0" points="703.8,1182.1 627.7,1141 637.2,1228 	"/>
	<polygon class="st0" points="627.7,1141 552.4,1170 637.2,1228 	"/>
	<polygon class="st0" points="627.7,1141 528.6,1037.7 552.4,1170 	"/>
	<polygon class="st0" points="528.6,1037.7 463.7,1066.2 552.4,1170 	"/>
	<polygon class="st0" points="528.6,1037.7 411.4,940 463.7,1066.2 	"/>
	<polygon class="st0" points="528.6,1037.7 478.5,923.9 411.4,940 	"/>
	<polygon class="st0" points="893.5,474.2 1002.9,434.8 904.3,406 	"/>
	<polygon class="st0" points="478.5,923.9 400.7,803.9 411.4,940 	"/>
	<polygon class="st0" points="478.5,923.9 467.9,818.8 400.7,803.9 	"/>
	<polygon class="st0" points="493.8,706.8 448.2,640.6 400.7,803.9 	"/>
	<polygon class="st0" points="493.8,706.8 576.8,579 448.2,640.6 	"/>
	<polygon class="st0" points="576.8,579 535.4,521.5 448.2,640.6 	"/>
	<polygon class="st0" points="576.8,579 637.2,448.3 535.4,521.5 	"/>
	<polygon class="st0" points="677.6,506.4 767.8,408.3 637.2,448.3 	"/>
	<polygon class="st0" points="677.6,506.4 787.9,473.7 767.8,408.3 	"/>
	<polygon class="st0" points="787.9,473.7 904.3,406 767.8,408.3 	"/>
	<polygon class="st0" points="787.9,473.7 893.5,474.2 904.3,406 	"/>
	<polygon class="st0" points="893.5,474.2 976.5,498.5 1002.9,434.8 	"/>
	<polygon class="st0" points="976.5,498.5 1119.3,506.2 1002.9,434.8 	"/>
	<polygon class="st0" points="976.5,498.5 1095,579 1119.3,506.2 	"/>
	<polygon class="st0" points="1095,579 1202.8,599.8 1119.3,506.2 	"/>
	<polygon class="st0" points="1095,579 1178,706.8 1202.8,599.8 	"/>
	<polygon class="st0" points="1178,706.8 1256.2,725.5 1202.8,599.8 	"/>
	<polygon class="st0" points="1178,706.8 1203.3,828.5 1256.2,725.5 	"/>
	<polygon class="st0" points="467.9,818.8 493.8,706.8 400.7,803.9 	"/>
	<polygon class="st0" points="1203.3,828.5 1272.8,861 1256.2,725.5 	"/>
	<polygon class="st0" points="1203.3,828.5 1254.4,962.1 1272.8,861 	"/>
	<polygon class="st0" points="1203.3,828.5 1191.8,933.5 1254.4,962.1 	"/>
	<polygon class="st0" points="1191.8,933.5 1158.9,1013.5 1254.4,962.1 	"/>
	<polygon class="st0" points="1158.9,1013.5 1195.6,1085.3 1254.4,962.1 	"/>
	<polygon class="st0" points="1158.9,1013.5 1096.4,1098.6 1195.6,1085.3 	"/>
	<polygon class="st0" points="576.8,579 677.6,506.4 637.2,448.3 	"/>
	<polygon class="st0" points="1096.4,1098.6 1072.9,1203.1 1195.6,1085.3 	"/>
	<polygon class="st0" points="1096.4,1098.6 1002.2,1164.6 1072.9,1203.1 	"/>
	<polygon class="st0" points="1002.2,1164.6 937.8,1262.5 1072.9,1203.1 	"/>
	<polygon class="st0" points="1002.2,1164.6 893.5,1202 937.8,1262.5 	"/>
	<polygon class="st0" points="1426.7,869.1 1334.8,1153.1 1485,994 	"/>
	<polygon class="st0" points="254.3,937.9 189.5,1011.3 249.2,1156.6 	"/>
	<polygon class="st0" points="1426.7,869.1 1485,994 1501.4,785.8 	"/>
	<polygon class="st0" points="254.3,937.9 174.9,733.4 167.6,873.1 	"/>
	<polygon class="st0" points="254.3,937.9 282.3,633.8 174.9,733.4 	"/>
	<polygon class="st0" points="282.3,633.8 211.2,598.3 174.9,733.4 	"/>
	<polygon class="st0" points="282.3,633.8 274.7,473.7 211.2,598.3 	"/>
	<polygon class="st0" points="254.3,937.9 167.6,873.1 189.5,1011.3 	"/>
	<polygon class="st0" points="282.3,633.8 405.4,429.6 274.7,473.7 	"/>
	<polygon class="st0" points="405.4,429.6 402.4,330.5 274.7,473.7 	"/>
	<polygon class="st0" points="1404.9,669.6 1501.4,785.8 1460.6,598.3 	"/>
	<polygon class="st0" points="567.3,311 532.1,241.9 402.4,330.5 	"/>
	<polygon class="st0" points="567.3,311 714.2,181.7 532.1,241.9 	"/>
	<polygon class="st0" points="1295.6,465.8 1404.9,669.6 1460.6,598.3 	"/>
	<polygon class="st0" points="567.3,311 742.8,250.5 714.2,181.7 	"/>
	<polygon class="st0" points="742.8,250.5 870.9,169.9 714.2,181.7 	"/>
	<polygon class="st0" points="742.8,250.5 913.4,249.7 870.9,169.9 	"/>
	<polygon class="st0" points="913.4,249.7 1058.7,208.9 870.9,169.9 	"/>
	<polygon class="st0" points="913.4,249.7 1104.5,311 1058.7,208.9 	"/>
	<polygon class="st0" points="1104.5,311 1200.3,276.9 1058.7,208.9 	"/>
	<polygon class="st0" points="1104.5,311 1309,364.9 1200.3,276.9 	"/>
	<polygon class="st0" points="1104.5,311 1295.6,465.8 1309,364.9 	"/>
	<polygon class="st0" points="1295.6,465.8 1397.1,473.7 1309,364.9 	"/>
	<polygon class="st0" points="1295.6,465.8 1460.6,598.3 1397.1,473.7 	"/>
	<polygon class="st0" points="1404.9,669.6 1426.7,869.1 1501.4,785.8 	"/>
	<polygon class="st0" points="989,1409.6 870.9,1506.4 1009.1,1484.5 	"/>
	<polygon class="st0" points="376.1,1210.4 254.3,937.9 249.2,1156.6 	"/>
	<polygon class="st0" points="376.1,1210.4 249.2,1156.6 362.7,1311.3 	"/>
	<polygon class="st0" points="525.8,1344.1 376.1,1210.4 362.7,1311.3 	"/>
	<polygon class="st0" points="525.8,1344.1 362.7,1311.3 471.4,1399.3 	"/>
	<polygon class="st0" points="525.8,1344.1 471.4,1399.3 596.1,1462.8 	"/>
	<polygon class="st0" points="743.3,1422.5 525.8,1344.1 596.1,1462.8 	"/>
	<polygon class="st0" points="743.3,1422.5 596.1,1462.8 731.2,1499 	"/>
	<polygon class="st0" points="743.3,1422.5 731.2,1499 870.9,1506.4 	"/>
	<polygon class="st0" points="989,1409.6 743.3,1422.5 870.9,1506.4 	"/>
	<polygon class="st0" points="989,1409.6 1009.1,1484.5 1154.4,1424.8 	"/>
	<polygon class="st0" points="1172,1327.2 989,1409.6 1154.4,1424.8 	"/>
	<polygon class="st0" points="1172,1327.2 1154.4,1424.8 1309,1311.3 	"/>
	<polygon class="st0" points="1334.8,1153.1 1172,1327.2 1309,1311.3 	"/>
	<polygon class="st0" points="405.4,429.6 567.3,311 402.4,330.5 	"/>
	<polygon class="st0" points="1334.8,1153.1 1309,1311.3 1405,1186.9 	"/>
	<polygon class="st0" points="1334.8,1153.1 1405,1186.9 1485,994 	"/>
	<polygon class="st0" points="535.4,521.5 652.2,359.6 461.9,492.3 	"/>
	<polygon class="st0" points="535.4,521.5 637.2,448.3 652.2,359.6 	"/>
	<polygon class="st0" points="637.2,448.3 767.8,408.3 652.2,359.6 	"/>
	<polygon class="st0" points="767.8,408.3 869.2,328.1 652.2,359.6 	"/>
	<polygon class="st0" points="767.8,408.3 904.3,406 869.2,328.1 	"/>
	<polygon class="st0" points="411.4,940 400.7,803.9 324.1,864.9 	"/>
	<polygon class="st0" points="411.4,940 324.1,864.9 403.6,1110.9 	"/>
	<polygon class="st0" points="463.7,1066.2 411.4,940 403.6,1110.9 	"/>
	<polygon class="st0" points="552.4,1170 463.7,1066.2 403.6,1110.9 	"/>
	<polygon class="st0" points="552.4,1170 403.6,1110.9 556.7,1267.9 	"/>
	<polygon class="st0" points="637.2,1228 552.4,1170 556.7,1267.9 	"/>
	<polygon class="st0" points="767.8,1267.9 637.2,1228 556.7,1267.9 	"/>
	<polygon class="st0" points="767.8,1267.9 556.7,1267.9 742.2,1343.6 	"/>
	<polygon class="st0" points="937.8,1262.5 767.8,1267.9 992.9,1320.8 	"/>
	<polygon class="st0" points="1072.9,1203.1 937.8,1262.5 992.9,1320.8 	"/>
	<polygon class="st0" points="1072.9,1203.1 992.9,1320.8 1198.3,1200.5 	"/>
	<polygon class="st0" points="1195.6,1085.3 1072.9,1203.1 1198.3,1200.5 	"/>
	<polygon class="st0" points="1195.6,1085.3 1198.3,1200.5 1310.8,1034.8 	"/>
	<polygon class="st0" points="1254.4,962.1 1195.6,1085.3 1310.8,1034.8 	"/>
	<polygon class="st0" points="1254.4,962.1 1310.8,1034.8 1346.6,818 	"/>
	<polygon class="st0" points="1272.8,861 1254.4,962.1 1346.6,818 	"/>
	<polygon class="st0" points="1256.2,725.5 1272.8,861 1346.6,818 	"/>
	<polygon class="st0" points="1346.6,818 1426.7,869.1 1404.9,669.6 	"/>
	<polygon class="st0" points="1268.1,565.3 1346.6,818 1404.9,669.6 	"/>
	<polygon class="st0" points="1268.1,565.3 1404.9,669.6 1295.6,465.8 	"/>
	<polygon class="st0" points="1115,408.3 1268.1,565.3 1295.6,465.8 	"/>
	<polygon class="st0" points="1115,408.3 1295.6,465.8 1104.5,311 	"/>
	<polygon class="st0" points="869.2,328.1 1115,408.3 1104.5,311 	"/>
	<polygon class="st0" points="869.2,328.1 1104.5,311 913.4,249.7 	"/>
	<polygon class="st0" points="869.2,328.1 913.4,249.7 742.8,250.5 	"/>
	<polygon class="st0" points="652.2,359.6 869.2,328.1 742.8,250.5 	"/>
	<polygon class="st0" points="652.2,359.6 742.8,250.5 567.3,311 	"/>
	<polygon class="st0" points="461.9,492.3 652.2,359.6 567.3,311 	"/>
	<polygon class="st0" points="461.9,492.3 567.3,311 405.4,429.6 	"/>
	<polygon class="st0" points="461.9,492.3 405.4,429.6 282.3,633.8 	"/>
	<polygon class="st0" points="342.9,692.1 461.9,492.3 282.3,633.8 	"/>
	<polygon class="st0" points="324.1,864.9 342.9,692.1 282.3,633.8 	"/>
	<polygon class="st0" points="400.7,803.9 342.9,692.1 324.1,864.9 	"/>
	<polygon class="st0" points="1002.9,434.8 1115,408.3 869.2,328.1 	"/>
	<polygon class="st0" points="1002.9,434.8 1119.3,506.2 1115,408.3 	"/>
	<polygon class="st0" points="1119.3,506.2 1268.1,565.3 1115,408.3 	"/>
	<polygon class="st0" points="1119.3,506.2 1202.8,599.8 1268.1,565.3 	"/>
	<polygon class="st0" points="1346.6,818 1334.8,1153.1 1426.7,869.1 	"/>
	<polygon class="st0" points="1346.6,818 1310.8,1034.8 1334.8,1153.1 	"/>
	<polygon class="st0" points="1310.8,1034.8 1198.3,1200.5 1334.8,1153.1 	"/>
	<polygon class="st0" points="1198.3,1200.5 1172,1327.2 1334.8,1153.1 	"/>
	<polygon class="st0" points="1198.3,1200.5 992.9,1320.8 1172,1327.2 	"/>
	<polygon class="st0" points="992.9,1320.8 989,1409.6 1172,1327.2 	"/>
	<polygon class="st0" points="992.9,1320.8 743.3,1422.5 989,1409.6 	"/>
	<polygon class="st0" points="992.9,1320.8 742.2,1343.6 743.3,1422.5 	"/>
	<polygon class="st0" points="767.8,1267.9 742.2,1343.6 992.9,1320.8 	"/>
	<polygon class="st0" points="742.2,1343.6 525.8,1344.1 743.3,1422.5 	"/>
	<polygon class="st0" points="742.2,1343.6 556.7,1267.9 525.8,1344.1 	"/>
	<polygon class="st0" points="556.7,1267.9 376.1,1210.4 525.8,1344.1 	"/>
	<polygon class="st0" points="1202.8,599.8 1256.2,725.5 1268.1,565.3 	"/>
	<polygon class="st0" points="403.6,1110.9 254.3,937.9 376.1,1210.4 	"/>
	<polygon class="st0" points="403.6,1110.9 324.1,864.9 254.3,937.9 	"/>
	<polygon class="st0" points="324.1,864.9 282.3,633.8 254.3,937.9 	"/>
	<polygon class="st0" points="904.3,406 1002.9,434.8 869.2,328.1 	"/>
	<polygon class="st0" points="1256.2,725.5 1346.6,818 1268.1,565.3 	"/>
	<polygon class="st0" points="400.7,803.9 448.2,640.6 342.9,692.1 	"/>
	<polygon class="st0" points="448.2,640.6 461.9,492.3 342.9,692.1 	"/>
	<polygon class="st0" points="448.2,640.6 535.4,521.5 461.9,492.3 	"/>
	<polygon class="st0" points="556.7,1267.9 403.6,1110.9 376.1,1210.4 	"/>
</g>
</svg>
