<svg xmlns="http://www.w3.org/2000/svg" viewBox="0 0 47.24 45.35"><defs><style>.cls-1{fill:#231f20;}.cls-2{fill:#90cbfb;}</style></defs><g id="Calque_2" data-name="Calque 2"><g id="Layer_1" data-name="Layer 1"><path class="cls-1" d="M43.93,12c.06.08.11.16.16.24L44,12.13l-.15-.23a1,1,0,0,0,.08.14Z"/><path class="cls-1" d="M6.54,10.18l-.11.14A2.09,2.09,0,0,1,6.67,10l.09-.12A1.78,1.78,0,0,0,6.54,10.18Z"/><path class="cls-1" d="M38,5.46l-.15-.11-.13-.09.11.08Z"/><path class="cls-1" d="M30.86,1.94l.25.07L30.91,2l-.15,0,.1,0Z"/><path class="cls-1" d="M38.58,42.3l-.32.25.13-.1Z"/><path class="cls-1" d="M38.15,42.63l.11-.08Z"/><path class="cls-1" d="M47.24,22.42c0-.19,0-.37-.05-.55Z"/><path class="cls-2" d="M45.35,23c0-.28,0-.56,0-.85V22l0-.54v-.05l0,.55a2.3,2.3,0,0,0-.14-.56c0-.67-.09-1.34-.18-2a2.14,2.14,0,0,1,.13.48l0-.18A1.59,1.59,0,0,0,45,19.2a17.77,17.77,0,0,0-.37-1.93c0,.1.07.19.1.29l-.05-.18a1.43,1.43,0,0,0-.09-.27A18.81,18.81,0,0,0,44,15.26l0,.09L44,15.19l0-.08c-.1-.28-.2-.55-.31-.82l-.2-.48c.17.41.34.83.49,1.25a2.85,2.85,0,0,0-.31-.52c-.22-.6-.45-1.19-.72-1.75a2.21,2.21,0,0,1,.28.45l-.07-.16a3.08,3.08,0,0,0-.27-.44c-.27-.56-.56-1.12-.88-1.65a1,1,0,0,0-.08-.14c-.32-.53-.66-1-1-1.54l0,0-.1-.14v0L40.68,9l-.09-.11-.15-.2c.11.14.21.28.32.41a3.57,3.57,0,0,0-.43-.45c-.36-.48-.74-.95-1.14-1.4a3.44,3.44,0,0,1,.27.27l-.11-.13-.26-.25c-.4-.44-.82-.87-1.26-1.27l0,0-.12-.11,0,0h0l-.18-.17.16.15a4.23,4.23,0,0,0-.51-.38,15.52,15.52,0,0,0-1.33-1.1l-.12-.09L35.44,4l.24.17.12.09a17.23,17.23,0,0,1,1.33,1.1l-.29-.18A3.9,3.9,0,0,0,36.49,5a14.39,14.39,0,0,0-1.28-1.06,2.4,2.4,0,0,1,.32.17l.27.16-.12-.09L35.42,4l-.32-.17c-.44-.32-.9-.63-1.37-.91l.28.15,0,0L33.9,3h0l-.28-.15-.21-.12.16.1A4.58,4.58,0,0,0,33,2.58a12.94,12.94,0,0,0-1.38-.72l.17.07-.18-.07-.11-.05-.23-.1-.13-.06.31.14c-.18-.07-.37-.15-.57-.21s-.64-.27-1-.38l-.1,0c.34.12.68.25,1,.4l-.64-.2h0A10.9,10.9,0,0,0,28.92.89l-.11,0-.12,0-.08,0,.16,0L28.2.71,27.72.58l-.07,0,.5.13L27.54.57A5.2,5.2,0,0,0,26.86.4l-.06,0q.35.07.69.18l.08,0a7,7,0,0,1,1,.41L27.76.86a4.56,4.56,0,0,0-.84-.39l.65.11-.08,0L26.85.45a4.33,4.33,0,0,0-.77-.19H26a4.13,4.13,0,0,1,.77.19L26.12.35a3.12,3.12,0,0,0-.73-.18h-.06L25,.12l-.25,0H24.7l-.56,0h0l-.57,0h-.05l-.57,0h-.69a.26.26,0,0,0-.13.14l-.76,0A.77.77,0,0,1,21.62,0l.6,0H21.6L21,.06H21l-.5.05h-.13L20,.16l.31,0a2.3,2.3,0,0,0-.66.17l-.73.08A5.06,5.06,0,0,1,19.68.2h-.06a5.06,5.06,0,0,0-.77.18l-.7.11c.2-.06.39-.11.59-.15h-.07a4.74,4.74,0,0,0-.57.15l-.65.12.29-.08-.08,0L17.4.65,17,.74l-.25.07.59-.14a8.37,8.37,0,0,0-1.08.43l-.73.17A8.67,8.67,0,0,1,16.7.82l-.08,0a8.3,8.3,0,0,0-1.17.45l-.65.18q.4-.18.84-.33l-.09,0c-.27.09-.54.2-.81.32l-.58.2.41-.17-.08,0-.37.16-.31.12-.17.08L14,1.76a14.56,14.56,0,0,0-1.36.7c-.21.08-.41.16-.59.25.35-.2.7-.39,1.06-.56L13,2.22c-.33.16-.65.33-1,.51a4.13,4.13,0,0,0-.42.22L11.41,3l.48-.24a13.68,13.68,0,0,0-1.35.89c-.21.1-.41.2-.58.3.42-.31.87-.6,1.32-.87l-.14.09q-.63.38-1.23.81a3.77,3.77,0,0,0-.39.26l-.15.1L9.8,4.1c-.46.34-.89.7-1.32,1.08L8,5.53c.18-.16.36-.32.55-.47l-.59.5-.23.19-.14.13a3,3,0,0,1,.26-.22A16.5,16.5,0,0,0,6.56,6.92a4.51,4.51,0,0,0-.45.39L6.43,7l-.23.24-.12.14,0,0-.12.13,0,0c-.4.45-.79.92-1.15,1.41L4.72,9c-.36.5-.7,1-1,1.53a3.55,3.55,0,0,0-.36.45l.1-.16a1.74,1.74,0,0,1-.11.18l-.08.13h0a2.57,2.57,0,0,1,.37-.46,17,17,0,0,0-.87,1.63,3.84,3.84,0,0,0-.38.49,18.53,18.53,0,0,1,.88-1.65l0,0c-.32.53-.61,1.08-.88,1.64a1.74,1.74,0,0,0-.1.19l-.07.16a1.24,1.24,0,0,1,.1-.2c-.26.57-.51,1.15-.72,1.75a2.33,2.33,0,0,0-.19.39l-.06.17a2.09,2.09,0,0,1,.19-.4c-.21.6-.39,1.21-.55,1.84a2.07,2.07,0,0,0-.24.53c.06-.21.11-.42.17-.63l-.15.54,0,.13v0l0,.17v0c-.15.64-.28,1.28-.38,1.94a1.18,1.18,0,0,0,0,.2l0,.17a1.6,1.6,0,0,1,.05-.21,18.81,18.81,0,0,0-.19,2,1.26,1.26,0,0,0-.06.38v.19a2.57,2.57,0,0,1,.06-.4c0,.28,0,.57,0,.85s0,.79,0,1.19a2.31,2.31,0,0,0-.06.52v-.12a.76.76,0,0,1,0,.15c0,.06,0,.11,0,.17s0,.09,0,.13v-.17a2.22,2.22,0,0,1,.06-.51c0,.67.11,1.34.21,2a2.06,2.06,0,0,0-.06.55C.16,26,.1,25.48.06,25q.06.77.18,1.53s0,.09,0,.14l0,.18c0-.05,0-.11,0-.16.11.65.24,1.3.4,1.93h0a1.65,1.65,0,0,0,.06.32l0,.18a1.4,1.4,0,0,1-.05-.34c.16.63.36,1.25.58,1.86a1.73,1.73,0,0,0,.11.49l.06.17a1.87,1.87,0,0,1-.11-.51c.22.6.47,1.2.75,1.78a1.88,1.88,0,0,0,.11.5l-.33-.73c.11.26.23.52.35.77l.06.12.07.16-.06-.13c.28.56.59,1.12.91,1.66a2.19,2.19,0,0,0,.16.3l.09.15A1.59,1.59,0,0,1,3.3,35,18.59,18.59,0,0,0,4.36,36.6a2.53,2.53,0,0,0,.25.45l-.22-.3.23.3h0l0,0v0l.06.08.15.19-.16-.21a1.86,1.86,0,0,1-.24-.43,18.31,18.31,0,0,0,1.2,1.44,2.25,2.25,0,0,0,.24.42c-.36-.39-.71-.8-1-1.22a20.7,20.7,0,0,0,16.71,7.9c-.33,0-.65,0-1,0l0,0c.68,0,1.37,0,2.06,0-.7,0-1.38,0-2.06,0a.11.11,0,0,1,0-.05c.68.05,1.37.08,2.07.08q-1.05,0-2.07-.09v0c.68.08,1.37.12,2.07.14-.7,0-1.39-.07-2.07-.14l0-.05c.67.09,1.35.15,2,.19-.69,0-1.37-.1-2-.2l0,0c.66.11,1.32.2,2,.25-.67-.05-1.34-.14-2-.25l.06-.05c.64.13,1.28.23,1.94.3-.65-.07-1.3-.17-1.94-.3l.07,0c.62.15,1.24.26,1.87.35-.63-.09-1.25-.21-1.86-.35l.08,0c.59.16,1.18.3,1.78.4a17.45,17.45,0,0,1-1.77-.4l.1,0c.55.17,1.11.32,1.67.44-.56-.12-1.12-.27-1.66-.44l.11,0a14.57,14.57,0,0,0,1.55.48,14.47,14.47,0,0,1-1.54-.49l.13,0a14,14,0,0,0,1.41.52,12.53,12.53,0,0,1-1.4-.53l.14,0a10.08,10.08,0,0,0,1.26.56,12.59,12.59,0,0,1-1.25-.56l.15,0a10.65,10.65,0,0,0,1.1.59,9.45,9.45,0,0,1-1.08-.59l.16,0a8.73,8.73,0,0,0,.92.62,8.51,8.51,0,0,1-.9-.62l.17,0a7.12,7.12,0,0,0,.73.64,7,7,0,0,1-.71-.64l.17,0h0a6.38,6.38,0,0,0,.54.66,5.23,5.23,0,0,1-.52-.66h.18a6,6,0,0,0,.34.67c-.11-.2-.22-.42-.33-.67h.18c.05.26.1.48.15.68-.05-.2-.09-.42-.13-.68h.18c0,.26,0,.48-.05.68,0-.2,0-.42.06-.68h.18c-.08.25-.16.47-.24.67.08-.2.17-.42.25-.67h.18a7.57,7.57,0,0,1-.43.66,5,5,0,0,0,.44-.66h.18a7.79,7.79,0,0,1-.62.65,6.54,6.54,0,0,0,.63-.65l.17,0a7.34,7.34,0,0,1-.8.63,7.41,7.41,0,0,0,.81-.63l.16,0a9.19,9.19,0,0,1-1,.61,7.91,7.91,0,0,0,1-.61l.16,0a12.24,12.24,0,0,1-1.14.58,9.53,9.53,0,0,0,1.15-.58l.14,0a10.41,10.41,0,0,1-1.29.55c.44-.15.87-.34,1.31-.54l.13,0a12.31,12.31,0,0,1-1.44.51,13.15,13.15,0,0,0,1.45-.51l.13,0a15,15,0,0,1-1.58.47,15,15,0,0,0,1.58-.47l.12,0,.14,0-.12,0c.52-.19,1-.41,1.54-.65l.23.09a16.26,16.26,0,0,1-1.65.6l-.14,0a16.87,16.87,0,0,1-1.7.42q.86-.16,1.71-.42l.09,0a18,18,0,0,1-1.8.38c.61-.1,1.22-.22,1.81-.37l0,0,0,0c-.63.13-1.26.24-1.9.32.64-.08,1.28-.18,1.9-.32l.07,0c-.65.12-1.31.21-2,.27.66-.06,1.32-.15,2-.27l0,.05a19.19,19.19,0,0,1-2,.22c.68,0,1.36-.11,2-.21l0,0c-.68.08-1.37.14-2.06.16a20.18,20.18,0,0,0,2.06-.16.43.43,0,0,0,0,.05c-.68.07-1.37.1-2.07.11.7,0,1.39,0,2.07-.1v0c-.68.05-1.37.06-2.07.05.7,0,1.38,0,2.07-.05l0,.05q-1,0-2,0c.69,0,1.37,0,2,0l0,0c-.66,0-1.32,0-2-.06.67,0,1.34.07,2,.06,0,0,0,0-.05.05-.64,0-1.29,0-1.95-.11a19,19,0,0,0,13.58-3.65l-.36.26a2.94,2.94,0,0,0,.36-.33c.49-.35,1-.73,1.43-1.13a2,2,0,0,1-.26.24l.14-.12a1.61,1.61,0,0,0,.23-.22h0A17.21,17.21,0,0,0,39.05,39h0l.07-.08h0l0-.06.16-.17-.14.16a3.27,3.27,0,0,0,.29-.39c.42-.46.82-.93,1.2-1.43-.05.08-.1.16-.16.24l.1-.14c.06-.07.11-.15.16-.22.37-.5.73-1,1.06-1.54l0,0,.09-.15,0,0,.15-.25.21-.37c-.11.2-.22.39-.34.58a2.07,2.07,0,0,0,.2-.47c.33-.55.64-1.1.92-1.67a1.86,1.86,0,0,1-.14.37l.07-.16a1.78,1.78,0,0,0,.14-.36c.28-.57.53-1.16.76-1.76l-.06.19.06-.16L44,31c.22-.61.42-1.22.59-1.85h0l0-.15V29l.12-.48-.12.47a1.91,1.91,0,0,0,0-.53c.16-.63.3-1.28.4-1.93a1.48,1.48,0,0,1,0,.42l0-.18a1.88,1.88,0,0,0,0-.41c.1-.65.18-1.32.22-2a1,1,0,0,1,0,.24V24.4a.89.89,0,0,0,0-.23C45.34,23.78,45.35,23.38,45.35,23Zm0-.89c0,.28,0,.56,0,.85s0,.79,0,1.18a2.22,2.22,0,0,0-.14-.55c0-.4,0-.79,0-1.19s0-.57,0-.85A2.3,2.3,0,0,1,45.34,22.09Zm-.15.25c0,.39,0,.79,0,1.18a2.67,2.67,0,0,0-.33-.55.91.91,0,0,0,0,.17,2.67,2.67,0,0,1,.33.55c0,.67-.12,1.34-.22,2a2.67,2.67,0,0,0-.33-.55c.1-.66.18-1.33.22-2a.91.91,0,0,1,0-.17c0-.4,0-.79,0-1.19s0-.57,0-.85a2.67,2.67,0,0,1,.33.55C45.19,21.77,45.19,22.05,45.19,22.34Zm-3.1,12.5c-.34.54-.7,1.06-1.08,1.57a1.38,1.38,0,0,0,0-.45c.38-.51.74-1.05,1.08-1.59A1.91,1.91,0,0,1,42.09,34.84ZM28.92,44.66a.79.79,0,0,1-.12.15,18.9,18.9,0,0,1-1.88.33L27,45c.66-.09,1.3-.22,1.93-.37l.16,0a18.62,18.62,0,0,0,1.84-.55,1,1,0,0,1-.15.2,17.9,17.9,0,0,1-1.81.51.83.83,0,0,0,.12-.16ZM27,44.92c.66-.12,1.31-.26,1.95-.43a.44.44,0,0,1-.06.16c-.64.15-1.28.28-1.93.37A.21.21,0,0,0,27,44.92Zm0-.24c.65-.15,1.3-.32,1.94-.52a.4.4,0,0,1,0,.15,19.83,19.83,0,0,1-1.95.48A.43.43,0,0,0,27,44.68Zm2-.75c.62-.22,1.23-.47,1.83-.74a.82.82,0,0,1,.12.2c-.61.26-1.23.49-1.86.7A.65.65,0,0,0,29,43.93Zm-2.18.52q.95-.29,1.86-.63l.15.15c-.63.22-1.26.42-1.91.59A.52.52,0,0,0,26.85,44.45Zm-.15-.12c.61-.2,1.2-.42,1.79-.68a.83.83,0,0,1,.2.16c-.6.23-1.22.44-1.85.63Zm-.1-.06-.1-.05c.58-.22,1.15-.46,1.71-.73l.14.08.12.07c-.58.25-1.18.48-1.79.68Zm-8.11.1q-.93-.28-1.83-.66a1.64,1.64,0,0,1,.22-.14c.57.26,1.16.49,1.75.7Zm-.22.22c-.65-.16-1.29-.35-1.92-.56a.79.79,0,0,1,.12-.15c.61.23,1.24.43,1.88.61Zm-.05.12c-.66-.14-1.31-.32-1.94-.51a.52.52,0,0,1,.06-.16c.63.22,1.27.4,1.92.56A.49.49,0,0,0,18.22,44.71Zm0,.23a18.06,18.06,0,0,1-1.94-.41.4.4,0,0,1,0-.15c.63.18,1.28.33,1.94.46A.38.38,0,0,0,18.23,44.94ZM5.66,37.84c.43.47.88.92,1.34,1.36a1.31,1.31,0,0,0,.09.38c-.46-.42-.91-.86-1.34-1.32A1.58,1.58,0,0,1,5.66,37.84ZM2.22,32.16c.28.58.59,1.15.92,1.71a1.57,1.57,0,0,0-.05.48l.08.14A1.57,1.57,0,0,1,3.22,34c.33.55.69,1.09,1.07,1.62a1.3,1.3,0,0,0,0,.44c-.38-.51-.74-1-1.07-1.58l-.08-.14c-.33-.55-.64-1.11-.92-1.69A1.7,1.7,0,0,1,2.22,32.16ZM4.3,10q.47-.78,1-1.5a6.09,6.09,0,0,1,.62-.42c-.34.48-.65,1-1,1.48l-.07.13a17,17,0,0,0-.82,1.59c-.25.15-.48.31-.69.46.26-.55.54-1.09.85-1.61a5,5,0,0,1,.66-.44L5,9.56A6.88,6.88,0,0,0,4.3,10Zm39.81,8.17h0a6.48,6.48,0,0,1,.52.55c.08.65.14,1.32.17,2a4.38,4.38,0,0,0-.52-.55c0-.67-.09-1.34-.17-2l0-.16c-.09-.65-.21-1.28-.35-1.91a4.22,4.22,0,0,1,.51.54q.23.95.36,1.92a3.31,3.31,0,0,0-.52-.55Zm-6,21.39c-.47.42-1,.83-1.47,1.21a1,1,0,0,0,0-.34c.51-.4,1-.81,1.48-1.25A1.23,1.23,0,0,1,38.12,39.56Zm-3.45,2.78c-.54.31-1.1.61-1.67.88a.93.93,0,0,0,.1-.26c.58-.28,1.15-.59,1.69-.92A.94.94,0,0,1,34.67,42.34Zm-5.59,2.27a.56.56,0,0,0,.07-.16,19.4,19.4,0,0,0,1.87-.6,1.8,1.8,0,0,1-.08.21C30.33,44.27,29.71,44.45,29.08,44.61Zm2.09-.81c.61-.23,1.21-.49,1.79-.77a.8.8,0,0,1-.11.25,18,18,0,0,1-1.76.72A.5.5,0,0,0,31.17,43.8Zm-2,.3q.95-.3,1.86-.69a.8.8,0,0,1,.05.21c-.61.24-1.24.45-1.87.65A1,1,0,0,0,29.13,44.1Zm1.88-1c.6-.28,1.18-.58,1.75-.91a1.65,1.65,0,0,1,.15.25c-.58.32-1.17.6-1.78.87A1.13,1.13,0,0,0,31,43.12Zm-.21-.23c.58-.29,1.15-.61,1.7-1a1.12,1.12,0,0,1,.24.25c-.57.33-1.15.63-1.74.91Zm-2.3.61-.15-.08c.56-.27,1.11-.57,1.64-.89l.19.1.16.1c-.56.3-1.14.59-1.72.85ZM16.19,44c-.62-.22-1.24-.47-1.84-.74l.15-.2c.59.29,1.2.55,1.81.78A.61.61,0,0,0,16.19,44Zm-.08.17q-.94-.32-1.86-.69a.88.88,0,0,1,.09-.2c.6.27,1.22.51,1.84.73A.77.77,0,0,0,16.11,44.15Zm0,.17c-.63-.19-1.26-.4-1.87-.64a1.5,1.5,0,0,1,0-.2c.61.25,1.24.48,1.87.68A.88.88,0,0,0,16.09,44.32ZM7.16,38.9c.47.44,1,.87,1.47,1.27a1.32,1.32,0,0,0,0,.34q-.76-.59-1.47-1.23A1.58,1.58,0,0,1,7.16,38.9Zm31,.25c-.47.44-1,.85-1.47,1.25a1.13,1.13,0,0,0-.09-.35c.51-.41,1-.83,1.47-1.28A1.31,1.31,0,0,1,38.15,39.15Zm-5.09,3.26c.58-.32,1.14-.65,1.69-1a1.09,1.09,0,0,1,.07.3c-.55.34-1.11.67-1.69,1A.78.78,0,0,0,33.06,42.41Zm-.42-.56c.56-.34,1.09-.71,1.62-1.1a2.56,2.56,0,0,1,.28.3c-.54.37-1.09.73-1.65,1.06A2,2,0,0,0,32.64,41.85ZM14.1,43.4c-.61-.26-1.21-.54-1.79-.85a2.72,2.72,0,0,1,.11-.25c.58.32,1.17.62,1.77.89A1,1,0,0,0,14.1,43.4ZM2.22,21.47a7.72,7.72,0,0,0-.76.51c0-.4,0-.8,0-1.19s0-.57,0-.85c.23-.17.48-.34.76-.51,0,.28,0,.57,0,.85S2.2,21.08,2.22,21.47Zm0,.17c0,.68.1,1.35.19,2a6.51,6.51,0,0,0-.75.5c-.1-.67-.16-1.34-.2-2C1.7,22,2,21.81,2.23,21.64ZM8.94,6.72c.28-.44.58-.87.89-1.27.34-.11.69-.21,1.06-.3a14.19,14.19,0,0,0-.82,1.25L10,6.51A14,14,0,0,0,9.29,7.9c-.42.11-.82.22-1.21.34.25-.49.51-1,.79-1.41.36-.11.74-.22,1.14-.32l.06-.11C9.68,6.5,9.3,6.61,8.94,6.72ZM19,2c-.13.26-.26.55-.38.86l-1.35.12a7.12,7.12,0,0,1,.51-.87C18.18,2,18.59,2,19,2Zm23.52,17.2.5.28.42.25c0,.29,0,.57,0,.85s0,.8,0,1.19L43,21.48l-.51-.28c0-.39,0-.79,0-1.19S42.53,19.45,42.52,19.16ZM43,21.65l.41.25c0,.68-.1,1.35-.2,2l-.41-.25-.5-.27c.09-.67.15-1.35.19-2C42.67,21.46,42.84,21.56,43,21.65ZM40.62,35a3.57,3.57,0,0,0-.43-.45c.37-.55.71-1.11,1-1.68a2.81,2.81,0,0,1,.45.47C41.34,33.86,41,34.41,40.62,35Zm-6.23,5.7c.52-.39,1-.8,1.52-1.23a2.54,2.54,0,0,1,.32.34c-.5.42-1,.82-1.55,1.19A2.69,2.69,0,0,0,34.39,40.65Zm4-30.45c.2.54.39,1.09.55,1.66,0,.05,0,.1,0,.14.16.58.31,1.17.42,1.77-.42-.14-.86-.27-1.32-.4-.11-.6-.24-1.19-.38-1.76L39,12l0-.14c-.41-.14-.84-.27-1.28-.39-.15-.57-.33-1.12-.51-1.65.43.12.84.25,1.24.38Zm1.86,2.27c.17.58.32,1.17.45,1.78-.37-.15-.77-.3-1.19-.44-.12-.61-.26-1.2-.43-1.77C39.53,12.18,39.92,12.32,40.29,12.47ZM21.65,34.87H23c0,.57,0,1.12,0,1.66-.41,0-.81,0-1.22,0,0-.53-.06-1.09-.09-1.65a.76.76,0,0,1,0-.15c0-.57-.06-1.15-.08-1.74H23c0,.6,0,1.18,0,1.75H21.64A.76.76,0,0,0,21.65,34.87Zm-8.91,4.72c-.44-.44-.87-.9-1.28-1.37l.76-.26c.39.48.78.95,1.19,1.4-.24.07-.46.15-.67.23ZM5.71,20c-.43.13-.85.28-1.23.42,0-.39,0-.79,0-1.19s0-.56,0-.85c.39-.14.8-.29,1.23-.42,0,.28,0,.56,0,.84S5.7,19.59,5.71,20ZM10.25,9.15q.25-.78.54-1.5l1.46-.28c-.17.48-.33,1-.48,1.49l0,.13q-.22.78-.39,1.62-.82.13-1.59.3c.14-.56.28-1.1.45-1.63.49-.1,1-.2,1.53-.29l0-.13Zm11-2.59c0,.46,0,.94-.06,1.45l-1.79.05c0-.5.09-1,.14-1.45a.49.49,0,0,0,0-.12c.06-.46.11-.89.17-1.31l1.62,0c0,.41-.06.85-.08,1.31l-1.71,0a.49.49,0,0,1,0,.12C20.14,6.58,20.71,6.57,21.28,6.56Zm10.13-.81c.17.42.34.87.49,1.34l-1.52-.2c-.13-.47-.26-.92-.41-1.34ZM25.89,34.82l-1.33-.07c.06-.56.12-1.15.17-1.74l1.44.07c-.09.59-.18,1.17-.28,1.74Zm-22-9.39h0c.32-.15.67-.3,1-.44.14.66.3,1.31.47,2-.36.14-.7.29-1,.44C4.2,26.73,4,26.09,3.89,25.43Zm19.28-5.17c0,.68,0,1.37,0,2H21.25c0-.68,0-1.36,0-2V20.1c0-.69,0-1.37,0-2.06h2c0,.68,0,1.37,0,2.05-.64,0-1.29,0-1.94,0v.17ZM9,17.09c.54-.11,1.09-.22,1.67-.32,0,.28,0,.56,0,.85s0,.79,0,1.19c-.58.1-1.14.21-1.68.32,0-.4,0-.79,0-1.19S9,17.37,9,17.09ZM19.6,30.9,18,31q-.14-.93-.27-1.89l1.69-.1C19.48,29.65,19.54,30.28,19.6,30.9Zm0-1.9L21.26,29c0,.64,0,1.28.07,1.9-.53,0-1.06,0-1.59,0C19.68,30.28,19.62,29.65,19.57,29Zm-8.63-8c0-.68-.09-1.36-.11-2,.58-.1,1.19-.2,1.81-.28,0,.68,0,1.36.1,2.05Q11.81,20.85,10.94,21Zm1.81-.1c0,.68.1,1.36.17,2-.6.08-1.19.17-1.76.27-.08-.67-.15-1.35-.21-2Q11.82,21,12.75,20.9Zm2-.25c0,.68.09,1.36.14,2-.62.06-1.23.14-1.84.22v.17c.61-.08,1.23-.16,1.85-.22.06.68.12,1.35.2,2l-1.79.22c-.1-.67-.18-1.34-.26-2v-.17c-.07-.68-.13-1.35-.18-2a1.09,1.09,0,0,0,0-.18q-.06-1-.09-2c.63-.09,1.26-.16,1.9-.23,0,.68,0,1.37.07,2.05-.63.06-1.26.14-1.88.22a1.09,1.09,0,0,1,0,.18C13.52,20.79,14.15,20.72,14.78,20.65Zm6.28-5-2,.07c0-.67,0-1.32,0-2l1.95-.06C21.06,14.35,21.06,15,21.06,15.66Zm0,4.44-1.94.06c0-.68,0-1.37,0-2.05.65,0,1.31-.05,2-.06C21.05,18.73,21.06,19.42,21.06,20.1Zm0-4.27v2l-2,.07v-1.2c0-.28,0-.57,0-.85C19.74,15.86,20.4,15.84,21.05,15.83Zm-1.93,8.75c-.62,0-1.23.06-1.85.11-.05-.67-.1-1.35-.14-2,.63-.05,1.26-.09,1.9-.12C19.05,23.23,19.08,23.91,19.12,24.58ZM9.8,25.87l1.58-.31c.12.66.25,1.32.4,2-.53.09-1,.18-1.52.29C10.09,27.17,9.94,26.52,9.8,25.87Zm.33,2-1.39.33c-.19-.64-.36-1.28-.51-1.94.46-.12.94-.23,1.44-.34C9.81,26.55,10,27.2,10.13,27.84Zm4.74-9.43,1.93-.17c0,.69,0,1.37.05,2.05l-1.91.17c0-.68-.06-1.36-.07-2.05Zm2,2.05c0,.69.06,1.37.1,2.05-.63,0-1.26.1-1.88.16-.05-.67-.1-1.35-.14-2Zm2.1-.12q0,1,.06,2c-.64,0-1.27.07-1.9.12,0-.68-.07-1.36-.1-2.05ZM17,20.28c0-.68,0-1.37-.05-2.05.65-.05,1.31-.09,2-.12l0,2.06C18.3,20.2,17.66,20.23,17,20.28Zm1.91-2.34c-.66,0-1.31.07-2,.12V16c.65,0,1.31-.09,2-.12v2Zm-2,4.74c0,.67.09,1.35.15,2-.61,0-1.22.1-1.83.16-.07-.67-.14-1.34-.2-2C15.72,22.78,16.34,22.72,17,22.68Zm.16,2.19c.06.66.13,1.33.2,2L15.57,27c-.09-.66-.18-1.32-.26-2C15.92,25,16.52,24.91,17.13,24.87ZM15.42,27c-.58.06-1.15.13-1.72.21-.12-.65-.23-1.31-.33-2L15.16,25C15.24,25.71,15.33,26.37,15.42,27Zm-1.87.23-1.64.25c-.15-.65-.28-1.3-.39-2,.55-.09,1.11-.18,1.7-.26C13.32,25.94,13.43,26.6,13.55,27.25Zm-2.06-1.88c-.12-.66-.22-1.33-.31-2,.57-.1,1.15-.19,1.76-.27.07.67.16,1.34.26,2Zm.32,2.32c.15.64.31,1.28.49,1.91-.5.09-1,.18-1.45.28-.2-.63-.38-1.26-.55-1.9Zm.14,0c.52-.1,1.07-.18,1.64-.26.12.65.25,1.29.4,1.93-.54.07-1.06.15-1.57.24C12.25,29,12.09,28.31,12,27.67Zm1.78-.28,1.72-.2c.1.65.2,1.3.32,1.93l-1.64.2C14,28.69,13.85,28,13.73,27.39Zm1.86-.22c.58-.06,1.17-.11,1.75-.15L17.58,29c-.56,0-1.12.09-1.67.15C15.8,28.47,15.69,27.83,15.59,27.17Zm1.7-2.32c.61,0,1.22-.08,1.84-.1l.12,2-1.77.1C17.41,26.19,17.34,25.52,17.29,24.85ZM19,13.62c-.65,0-1.29.07-1.94.12,0-.63.06-1.24.1-1.84L19,11.79C19,12.38,19,13,19,13.62Zm0,.16c0,.64,0,1.29,0,2-.65,0-1.31.07-2,.12,0-.67,0-1.32.05-1.95Zm-2.1,0c-.65.05-1.29.1-1.92.17,0-.63.08-1.25.13-1.84L17,11.91C16.92,12.51,16.88,13.12,16.86,13.75Zm0,.16c0,.63,0,1.28-.05,1.95-.65.05-1.3.1-1.94.17,0-.67,0-1.32.07-2C15.57,14,16.21,14,16.85,13.91ZM16.8,16c0,.28,0,.56,0,.85s0,.79,0,1.19c-.65.05-1.3.1-1.94.17,0-.4,0-.8,0-1.19s0-.57,0-.85C15.5,16.13,16.15,16.08,16.8,16Zm-2.1,0c-.64.06-1.27.14-1.9.22,0-.66,0-1.31.08-1.95.63-.08,1.25-.16,1.89-.22C14.74,14.73,14.71,15.38,14.7,16.05Zm0,.17c0,.28,0,.56,0,.84s0,.8,0,1.2c-.64.06-1.27.14-1.9.22,0-.39,0-.79,0-1.19v-.85C13.42,16.36,14.06,16.28,14.7,16.22ZM11.35,25.4c-.55.09-1.08.19-1.58.3-.14-.66-.25-1.32-.35-2,.52-.11,1.06-.22,1.62-.31C11.13,24.07,11.23,24.73,11.35,25.4Zm-1.71.33c-.5.11-1,.22-1.45.34q-.23-1-.39-2c.47-.13,1-.24,1.49-.35C9.39,24.4,9.5,25.07,9.64,25.73ZM7.77,23.92c-.11-.67-.2-1.34-.27-2L9,21.54c.06.68.14,1.36.24,2C8.74,23.68,8.25,23.79,7.77,23.92Zm.31,2.18c-.46.12-.9.24-1.31.37-.17-.65-.31-1.31-.44-2,.43-.13.88-.26,1.35-.38C7.79,24.78,7.93,25.44,8.08,26.1Zm0,.16c.15.66.32,1.3.51,1.94l-1.26.36c-.21-.63-.39-1.27-.56-1.92C7.22,26.51,7.66,26.38,8.12,26.26ZM8,30.61c-.38.12-.73.25-1.07.37-.26-.6-.51-1.22-.74-1.84.36-.14.73-.26,1.12-.39Q7.64,29.7,8,30.61Zm-.59-1.89,1.26-.36c.19.64.4,1.26.62,1.88-.42.11-.82.23-1.2.35C7.86,30,7.63,29.35,7.42,28.72Zm1.37-.39c.44-.11.9-.22,1.38-.32.18.64.36,1.27.56,1.89l-1.32.31C9.18,29.6,9,29,8.79,28.33Zm2,1.73c.21.62.42,1.23.65,1.83-.43.1-.85.19-1.24.3-.26-.6-.5-1.2-.73-1.82C9.88,30.26,10.33,30.16,10.78,30.06Zm.12,0c.46-.09.94-.19,1.44-.27.18.62.37,1.24.57,1.85-.48.08-.93.17-1.37.26C11.32,31.27,11.1,30.66,10.9,30ZM13,31.76c.2.6.41,1.2.64,1.78-.44.07-.86.15-1.27.24-.25-.57-.5-1.16-.73-1.76Zm-.49-2q.75-.14,1.56-.24c.14.63.3,1.25.47,1.86L13,31.59C12.83,31,12.64,30.36,12.47,29.74Zm1.69-.26c.54-.08,1.09-.14,1.64-.2.12.64.24,1.26.37,1.88-.52.05-1,.11-1.54.18C14.46,30.73,14.31,30.11,14.16,29.48Zm1.78-.21c.55-.06,1.1-.11,1.66-.15.09.64.18,1.27.28,1.89-.53,0-1.05.08-1.58.13C16.17,30.53,16.05,29.9,15.94,29.27ZM17.72,29c-.08-.64-.16-1.29-.23-1.94.59-.05,1.18-.08,1.77-.11q.07,1,.15,2Zm1.57-4.21c.61,0,1.23,0,1.85-.06,0,.67,0,1.34.05,2l-1.79.05C19.36,26.07,19.32,25.41,19.29,24.74Zm0-.17c0-.67-.07-1.34-.09-2v-.17l-.06-2.05,1.95-.06c0,.69,0,1.37,0,2.05-.64,0-1.27,0-1.91.06v.17c.63,0,1.27-.05,1.9-.06,0,.68,0,1.35,0,2C20.51,24.52,19.89,24.54,19.28,24.57Zm1.79-11-1.95.06c0-.63,0-1.24.07-1.84l1.91-.06C21.09,12.32,21.08,12.93,21.07,13.56Zm-2-1.92-1.9.11c0-.59.09-1.16.14-1.72l1.86-.11C19.09,10.48,19.06,11.05,19,11.64ZM17,11.76l-1.88.17c.05-.59.12-1.17.19-1.72.61-.06,1.22-.12,1.84-.16Q17,10.88,17,11.76Zm-2,.19c-.62.06-1.24.14-1.85.22.07-.6.15-1.17.25-1.73l1.8-.22C15.05,10.78,15,11.35,14.93,12Zm0,.15c-.06.59-.11,1.21-.14,1.84-.64.06-1.26.14-1.89.22,0-.63.1-1.25.17-1.84C13.67,12.23,14.29,12.16,14.92,12.1Zm-2.18,2.08-1.8.28c.05-.63.12-1.25.2-1.85q.86-.15,1.77-.27C12.84,12.94,12.78,13.55,12.74,14.18Zm0,.16c-.05.64-.07,1.29-.09,2-.63.08-1.23.18-1.81.28,0-.67.05-1.32.1-2Zm-.09,2.12c0,.29,0,.57,0,.85s0,.8,0,1.2c-.63.08-1.23.18-1.81.28,0-.4,0-.8,0-1.2s0-.57,0-.85ZM11,23.23c-.56.09-1.11.2-1.63.31-.1-.67-.18-1.35-.24-2,.53-.12,1.08-.22,1.66-.32C10.86,21.88,10.93,22.55,11,23.23ZM9.13,21.35C9.08,20.67,9,20,9,19.3c.54-.11,1.09-.22,1.67-.32,0,.69.06,1.37.11,2.05C10.22,21.13,9.67,21.23,9.13,21.35Zm1.55-4.75c-.58.1-1.14.21-1.68.32,0-.67.06-1.32.12-2l1.66-.32C10.73,15.28,10.7,15.93,10.68,16.6ZM9,21.37l-1.52.36c-.07-.67-.11-1.35-.14-2l1.53-.36C8.9,20,8.94,20.7,9,21.37ZM7.65,24c-.47.12-.92.25-1.35.38-.12-.66-.22-1.33-.3-2,.44-.14.9-.27,1.38-.4C7.45,22.61,7.54,23.28,7.65,24Zm-1,2.56c-.41.13-.8.26-1.16.4-.18-.65-.34-1.3-.47-2,.38-.14.77-.28,1.2-.42C6.35,25.2,6.5,25.85,6.66,26.51Zm0,.16c.16.65.35,1.29.56,1.92L6.15,29c-.23-.63-.43-1.26-.61-1.91C5.91,26.93,6.29,26.8,6.71,26.67ZM6.86,31c-.34.13-.65.26-.94.39-.28-.6-.54-1.2-.78-1.82.3-.15.63-.28,1-.42C6.34,29.8,6.59,30.41,6.86,31Zm.06.15q.41.9.87,1.77c-.32.12-.61.25-.88.37-.33-.57-.63-1.15-.92-1.75Zm.09,0c.33-.13.69-.25,1.06-.37.25.61.52,1.21.8,1.79-.35.11-.69.23-1,.35C7.56,32.33,7.27,31.74,7,31.14Zm1.16-.4c.37-.12.77-.23,1.19-.34.23.61.47,1.22.73,1.81-.4.1-.77.21-1.13.32C8.68,32,8.41,31.35,8.17,30.74Zm2,1.62c.26.59.54,1.17.83,1.74q-.56.13-1.05.3c-.31-.56-.61-1.13-.9-1.72C9.39,32.57,9.76,32.46,10.15,32.36Zm.1,0c.4-.11.81-.2,1.24-.3.24.6.48,1.19.74,1.76l-1.16.27C10.79,33.51,10.51,32.93,10.25,32.34Zm2.05,1.6c.26.57.53,1.13.82,1.67l-1.06.25c-.32-.53-.62-1.08-.91-1.65Zm.1,0,1.25-.24c.23.58.47,1.14.72,1.69l-1.16.22C12.93,35.05,12.66,34.49,12.4,33.92Zm.68-2.18,1.46-.23q.26.91.54,1.8c-.47.06-.93.13-1.37.21C13.49,32.94,13.28,32.34,13.08,31.74Zm1.59-.24,1.54-.19c.13.62.27,1.22.42,1.81l-1.43.17C15,32.7,14.84,32.11,14.67,31.5Zm1.67-.2,1.56-.14c.1.62.2,1.22.31,1.82-.49,0-1,.08-1.46.13C16.61,32.52,16.47,31.91,16.34,31.3ZM18,31.15q.79-.06,1.59-.09c.06.62.13,1.22.2,1.82-.5,0-1,0-1.48.09C18.23,32.37,18.13,31.77,18,31.15Zm1.72-.1L21.34,31c0,.62.05,1.23.08,1.83-.49,0-1,0-1.48.05C19.87,32.28,19.81,31.67,19.75,31.05Zm1.54-6.37h1.85c0,.67,0,1.34,0,2-.59,0-1.19,0-1.78,0C21.32,26,21.31,25.35,21.29,24.68Zm0-.17c0-.67,0-1.35,0-2,.64,0,1.27,0,1.91,0,0,.68,0,1.35,0,2Zm-.07-6.64v-2h2v2Zm0,10.92-1.69.05c-.06-.64-.1-1.29-.15-1.94l1.78-.06Q21.22,27.83,21.25,28.79ZM21.16,9.72l-1.86.06q0-.82.12-1.59l1.79,0C21.19,8.64,21.17,9.17,21.16,9.72Zm0,.14c0,.55,0,1.12,0,1.71-.64,0-1.28,0-1.91.06q0-.89.09-1.71Zm-2-.07c-.62,0-1.24.06-1.85.11.05-.56.12-1.09.19-1.6l1.78-.1Q19.2,9,19.14,9.79Zm-2,.12c-.61,0-1.22.1-1.83.16.08-.55.16-1.09.26-1.6l1.77-.16C17.25,8.82,17.19,9.36,17.13,9.91Zm-2,.17-1.8.22c.1-.56.2-1.09.32-1.61l1.74-.2C15.31,9,15.23,9.53,15.15,10.08Zm-2,.24-1.71.26c.11-.55.24-1.09.38-1.61l1.66-.26C13.41,9.23,13.3,9.76,13.2,10.32Zm0,.14c-.1.56-.18,1.13-.25,1.73q-.91.12-1.77.27c.09-.6.18-1.18.3-1.74C12,10.63,12.58,10.54,13.18,10.46Zm-2.16,2c-.57.1-1.11.21-1.63.32.1-.6.21-1.18.34-1.75.51-.1,1-.21,1.59-.3C11.2,11.31,11.1,11.89,11,12.48Zm0,.15c-.09.6-.15,1.22-.21,1.85l-1.66.32c.06-.63.14-1.25.23-1.85C9.89,12.84,10.43,12.73,11,12.63Zm-2,2.2-1.52.36c.06-.64.15-1.26.26-1.86.47-.12,1-.24,1.49-.35C9.14,13.58,9.06,14.2,9,14.83ZM9,15c-.05.64-.09,1.29-.11,2l-1.54.36c0-.67.07-1.32.13-2Zm-.12,2.13c0,.28,0,.56,0,.85s0,.79,0,1.19l-1.54.36c0-.39,0-.79,0-1.19s0-.57,0-.85C7.82,17.36,8.33,17.23,8.86,17.12Zm-1.5,4.64c-.48.13-.94.26-1.37.4-.08-.68-.13-1.36-.16-2,.44-.14.9-.27,1.39-.39C7.24,20.41,7.29,21.09,7.36,21.76ZM6.2,24.37c-.43.13-.83.27-1.2.41-.13-.66-.24-1.32-.33-2,.39-.14.79-.28,1.23-.42C6,23,6.08,23.7,6.2,24.37Zm-1.3.45c-.37.14-.72.29-1.05.44-.14-.65-.25-1.32-.34-2,.33-.15.69-.3,1.07-.45C4.66,23.49,4.77,24.16,4.9,24.82Zm.55,2.29c.18.64.39,1.28.61,1.9-.35.14-.68.28-1,.42-.24-.62-.46-1.25-.65-1.89C4.75,27.39,5.09,27.25,5.45,27.11Zm.4,4.34c-.29.13-.55.27-.8.41-.29-.59-.57-1.19-.82-1.8h0a9.12,9.12,0,0,1,.83-.44C5.3,30.24,5.57,30.85,5.85,31.45Zm.07.15c.29.59.59,1.17.92,1.74-.27.13-.52.26-.75.4-.34-.57-.66-1.14-1-1.73A8.27,8.27,0,0,1,5.92,31.6Zm1,1.89c.33.57.68,1.12,1,1.66q-.37.18-.69.36c-.39-.53-.75-1.07-1.09-1.63A5.69,5.69,0,0,1,6.92,33.49Zm.07,0c.27-.13.56-.25.87-.37.31.57.64,1.14,1,1.68-.29.12-.56.23-.81.35C7.66,34.58,7.32,34,7,33.46Zm1-.4c.32-.12.65-.24,1-.35.29.58.59,1.16.91,1.71-.33.11-.64.21-.93.33C8.58,34.2,8.25,33.63,7.94,33.06Zm2,1.5c.32.56.66,1.1,1,1.62l-.86.3c-.37-.52-.73-1-1.08-1.6C9.29,34.77,9.6,34.67,9.93,34.56Zm.08,0c.33-.11.68-.21,1-.3.3.56.6,1.11.92,1.65q-.49.12-1,.27C10.67,35.63,10.33,35.09,10,34.54Zm2,1.48c.32.53.66,1,1,1.54-.31.08-.59.17-.86.25-.38-.49-.75-1-1.1-1.52Zm.09,0c.33-.09.68-.17,1-.25.28.54.58,1.06.89,1.57l-.95.22C12.79,37.05,12.46,36.53,12.14,36Zm1.14-.27,1.15-.22q.38.83.78,1.59l-1,.2C13.86,36.8,13.56,36.27,13.28,35.73Zm.48-2.07,1.36-.21q.29.88.6,1.71l-1.25.19C14.22,34.8,14,34.24,13.76,33.66Zm1.48-.22c.47-.07,1-.12,1.43-.17.15.58.31,1.16.47,1.72l-1.31.16C15.62,34.59,15.43,34,15.24,33.44Zm1.55-.19c.48,0,1-.09,1.45-.12.11.59.23,1.17.35,1.73-.45,0-.89.07-1.34.12C17.09,34.42,16.94,33.84,16.79,33.25Zm1.58-.13c.48,0,1-.07,1.46-.09.07.59.15,1.18.22,1.74l-1.35.08C18.58,34.29,18.47,33.71,18.37,33.12ZM20,33l1.47,0c0,.59.06,1.18.1,1.75-.46,0-.91,0-1.36,0C20.09,34.2,20,33.62,20,33ZM21.4,29h1.69c0,.64,0,1.28,0,1.9-.53,0-1.06,0-1.59,0C21.44,30.22,21.42,29.59,21.4,29Zm0-.16q0-1-.06-1.95h1.78q0,1,0,2ZM23.15,33l1.46,0c-.05.59-.1,1.17-.16,1.74-.44,0-.89,0-1.34,0C23.12,34.15,23.14,33.57,23.15,33ZM28.56,6.81c.09.47.18,1,.26,1.46l-1.71-.13c-.05-.51-.12-1-.19-1.46Zm3.83,2c.12.52.23,1.06.34,1.61l-1.66-.22c-.09-.56-.18-1.09-.29-1.6C31.33,8.67,31.86,8.74,32.39,8.82Zm4.33,6.3c.06.64.09,1.29.11,2-.51-.12-1-.23-1.58-.33,0-.67,0-1.32-.1-2,.54.1,1.06.21,1.57.33Zm1.59.4c.06.64.11,1.29.13,2L37,17.11c0-.67-.05-1.32-.11-2,.5.11,1,.24,1.46.37Zm-.06,6.55c-.08.67-.17,1.34-.29,2-.46-.13-.94-.25-1.43-.36.1-.67.19-1.34.26-2C37.29,21.82,37.78,21.94,38.25,22.07Zm-1.44-.54c.06-.68.11-1.36.14-2,.5.12,1,.24,1.47.37q0,1-.15,2C37.8,21.77,37.31,21.65,36.81,21.53Zm-9.43.93q.06-1,.09-2c.63,0,1.25.08,1.86.14,0,.68-.08,1.36-.12,2,0,.06,0,.11,0,.17-.05.68-.11,1.35-.18,2-.58-.06-1.17-.1-1.77-.14.05-.67.1-1.34.13-2l1.82.14c0-.06,0-.11,0-.17C28.61,22.54,28,22.5,27.38,22.46Zm2.18-4.11v-.17c0-.4,0-.8,0-1.2s0-.56,0-.84c.62.05,1.23.12,1.82.19h0c0,.28,0,.56,0,.85s0,.79,0,1.19c-.59-.07-1.2-.14-1.82-.19v.17l1.82.19c0,.69-.05,1.37-.09,2.05l-1.8-.19C29.52,19.72,29.55,19,29.56,18.35Zm0-4.33c.61.05,1.21.12,1.8.19,0,.63.06,1.28.07,1.95L29.57,16C29.56,15.3,29.54,14.65,29.52,14Zm3.65,7c-.05.68-.12,1.35-.2,2-.55-.09-1.12-.16-1.7-.23.06-.68.12-1.36.16-2Q32.32,20.89,33.17,21Zm-1.73-.41c0-.68.07-1.37.09-2.05.6.07,1.18.15,1.75.24,0,.68-.05,1.36-.1,2.05Q32.33,20.72,31.44,20.61ZM28.91,27c.08-.65.16-1.31.23-2,.58.05,1.15.11,1.72.18q-.13,1-.3,2Q29.75,27,28.91,27Zm1.62.34c-.11.65-.23,1.3-.35,1.93l-1.58-.17c.11-.63.2-1.28.29-1.93Zm-1.19-4.51,1.77.19c-.07.67-.15,1.35-.23,2-.56-.07-1.14-.13-1.72-.18C29.23,24.13,29.29,23.46,29.34,22.78Zm0-2.39q-.91-.09-1.86-.15c0-.68,0-1.36.05-2,.63,0,1.26.09,1.88.15C29.39,19,29.37,19.7,29.34,20.39ZM31.25,23c.58.07,1.15.14,1.7.23-.08.67-.17,1.34-.28,2L31,25C31.11,24.33,31.19,23.66,31.25,23ZM31,25.17c.56.06,1.11.14,1.65.22-.11.66-.23,1.32-.36,2l-1.59-.22C30.81,26.49,30.91,25.83,31,25.17Zm1.78.24c.54.08,1.07.17,1.58.27-.13.66-.27,1.31-.42,2-.5-.1-1-.18-1.52-.26C32.55,26.73,32.67,26.07,32.78,25.41Zm1.71.29L36,26c-.14.66-.3,1.31-.47,1.95q-.7-.16-1.44-.3C34.22,27,34.36,26.36,34.49,25.7ZM34,27.82l1.43.3c-.18.64-.37,1.27-.58,1.89l-1.36-.28C33.69,29.1,33.86,28.47,34,27.82Zm1.55.33c.46.1.9.22,1.33.33-.2.64-.41,1.26-.64,1.88L35,30C35.19,29.42,35.39,28.79,35.57,28.15Zm0-.16q.27-1,.48-1.95c.48.11.95.23,1.39.35-.16.65-.33,1.3-.53,1.93C36.52,28.21,36.07,28.09,35.61,28Zm.4-2.14c-.48-.11-1-.22-1.49-.31.12-.66.23-1.33.33-2l1.53.32C36.27,24.53,36.15,25.19,36,25.85Zm-1.62-.34-1.58-.27c.11-.66.2-1.33.28-2,.56.08,1.1.18,1.62.28C34.62,24.19,34.51,24.85,34.39,25.51Zm-3.11-4.75c0,.68-.09,1.36-.16,2l-1.76-.19c.05-.67.09-1.36.12-2Zm-1.87-2.6L27.53,18c0-.4,0-.8,0-1.19V16l1.88.14V17C29.42,17.37,29.42,17.77,29.41,18.16Zm-1.87-2.35c0-.67,0-1.32,0-2l1.86.14c0,.64.05,1.29.05,1.95Zm0-2.11c0-.63-.05-1.24-.08-1.84l1.83.14c0,.6.08,1.21.11,1.84Zm-.18,6.53c-.62,0-1.26-.07-1.9-.09,0-.68,0-1.37,0-2.05q1,0,1.92.09C27.36,18.87,27.34,19.55,27.32,20.23ZM27.37,18c-.63,0-1.27-.07-1.91-.09V15.87l1.92.1v.85C27.38,17.21,27.38,17.61,27.37,18Zm-1.91-2.3c0-.67,0-1.32,0-2,.64,0,1.27.05,1.9.09,0,.63,0,1.28,0,2C26.75,15.76,26.1,15.73,25.46,15.71Zm0-2.11c0-.63,0-1.24,0-1.84l1.86.09c0,.6.06,1.21.08,1.84C26.71,13.65,26.08,13.62,25.44,13.6Zm0,6.71,1.9.1-.09,2q-.93-.06-1.86-.09C25.39,21.68,25.41,21,25.42,20.31Zm1.81,4.51c.6,0,1.19.08,1.77.14-.07.66-.15,1.32-.23,2-.56-.05-1.13-.1-1.7-.13C27.13,26.15,27.18,25.49,27.23,24.82Zm1.52,2.28c-.09.66-.18,1.3-.28,1.94q-.79-.08-1.62-.12c.07-.64.14-1.29.2-2Zm-.17,2.11,1.56.17c-.13.63-.27,1.26-.41,1.87l-1.48-.16C28.37,30.48,28.48,29.85,28.58,29.21Zm1.69.19,1.51.2c-.16.63-.33,1.25-.5,1.86l-1.43-.2Q30.08,30.35,30.27,29.4Zm0-.16c.13-.64.25-1.28.36-1.93.54.06,1.07.13,1.58.21-.13.65-.27,1.29-.43,1.92Zm2.08-1.7,1.51.26c-.16.64-.33,1.28-.51,1.91L32,29.46C32.1,28.83,32.25,28.19,32.39,27.54Zm1.07,2.35h0c.47.08.92.18,1.36.28-.21.62-.43,1.23-.67,1.83q-.63-.15-1.29-.27C33.08,31.13,33.27,30.51,33.46,29.89Zm1.47.3,1.27.32c-.23.62-.48,1.22-.75,1.81l-1.2-.3C34.49,31.42,34.72,30.81,34.93,30.19Zm1.37.35c.41.12.8.23,1.17.36-.26.61-.53,1.2-.82,1.79-.35-.12-.72-.23-1.1-.34C35.81,31.76,36.07,31.16,36.3,30.54Zm1.26.39c.37.12.72.25,1.06.39-.28.6-.57,1.19-.89,1.76-.31-.12-.64-.25-1-.37C37,32.13,37.3,31.54,37.56,30.93Zm0-.18q-.56-.2-1.17-.36c.23-.62.45-1.24.65-1.88l1.23.38C38,29.52,37.79,30.14,37.53,30.75Zm-.47-2.4c.19-.63.37-1.28.53-1.93l1.28.39c-.17.65-.37,1.29-.58,1.92C37.9,28.6,37.49,28.47,37.06,28.35Zm.46-2.12c-.45-.13-.91-.24-1.39-.35.14-.66.27-1.32.37-2,.5.11,1,.23,1.43.36C37.81,24.91,37.68,25.57,37.52,26.23Zm-1.11-2.54c-.5-.11-1-.22-1.54-.32.09-.67.17-1.35.23-2,.54.1,1.06.21,1.56.32C36.59,22.35,36.51,23,36.41,23.69ZM35,21.15c-.54-.1-1.09-.2-1.66-.28,0-.68.09-1.37.11-2.05.57.09,1.13.18,1.67.29Q35.07,20.13,35,21.15Zm0,.17c-.06.68-.13,1.35-.22,2l-1.63-.28c.08-.67.15-1.35.2-2C33.87,21.13,34.43,21.22,35,21.32Zm-1.67-2.69c-.57-.09-1.16-.17-1.75-.24,0-.4,0-.8,0-1.19s0-.57,0-.85c.6.07,1.19.15,1.76.24,0,.28,0,.56,0,.84S33.3,18.23,33.29,18.63Zm-1.75-2.45c0-.67,0-1.32-.07-1.95l1.74.23c0,.64.07,1.29.09,2C32.72,16.33,32.14,16.25,31.54,16.18Zm-.08-2.11c0-.63-.08-1.25-.14-1.85q.87.1,1.71.24c.07.59.13,1.21.17,1.84Zm-1.95-.21c0-.63-.07-1.25-.11-1.84.6.05,1.19.12,1.77.19.06.59.11,1.21.15,1.84C30.72,14,30.12,13.91,29.51,13.86Zm-.12-2c-.05-.59-.11-1.17-.17-1.72.58,0,1.16.11,1.73.18.08.56.15,1.13.21,1.73C30.58,12,30,11.92,29.39,11.87Zm-.15,0c-.6-.06-1.21-.11-1.83-.14,0-.6-.07-1.17-.12-1.72l1.78.13C29.13,10.69,29.19,11.26,29.24,11.86Zm-2-2q-.06-.82-.15-1.59l1.71.13c.08.51.15,1,.22,1.6C28.47,9.94,27.88,9.9,27.28,9.86Zm0,1.85-1.87-.1q0-.88-.06-1.71c.61,0,1.21,0,1.81.09C27.19,10.54,27.22,11.11,27.26,11.71Zm-1.9,10.82q.95,0,1.86.09c0,.68-.08,1.35-.13,2-.59,0-1.2-.07-1.8-.09C25.31,23.88,25.34,23.21,25.36,22.53Zm-.07-4.62c-.64,0-1.29,0-1.94,0V15.82l1.95,0v.85C25.3,17.11,25.3,17.51,25.29,17.91Zm-1.94-2.25V13.71c.65,0,1.29,0,1.93,0,0,.63,0,1.28,0,1.95C24.65,15.68,24,15.66,23.35,15.66Zm0-2.11c0-.63,0-1.24,0-1.84.64,0,1.27,0,1.9,0,0,.59,0,1.2,0,1.83C24.64,13.57,24,13.55,23.35,13.55Zm0,4.49c.66,0,1.31,0,1.95,0,0,.69,0,1.37,0,2.05l-1.93,0C23.34,19.41,23.34,18.72,23.34,18Zm1.92,2.27c0,.68,0,1.36-.05,2-.63,0-1.26,0-1.89,0,0-.68,0-1.36,0-2C24,20.27,24.62,20.28,25.26,20.31Zm0,4.41c.6,0,1.21.05,1.8.09,0,.67-.1,1.33-.16,2q-.86-.06-1.74-.09C25.22,26.06,25.25,25.39,25.28,24.72ZM26.91,27c-.06.66-.13,1.31-.2,1.95-.54,0-1.1-.06-1.65-.08,0-.64.08-1.29.11-1.95Zm-.08,2.12c.55,0,1.08.07,1.61.12-.1.64-.2,1.27-.32,1.88L26.6,31C26.68,30.35,26.76,29.72,26.83,29.08Zm1.26,2.16c-.11.61-.23,1.22-.36,1.81l-1.42-.11c.1-.6.18-1.2.27-1.82C27.09,31.15,27.59,31.19,28.09,31.24Zm.13,0c.5,0,1,.1,1.47.15-.15.62-.3,1.22-.47,1.8l-1.37-.14C28,32.47,28.1,31.86,28.22,31.25Zm1.59.17,1.42.19c-.18.61-.37,1.2-.57,1.79-.44-.07-.88-.13-1.33-.18Q29.59,32.34,29.81,31.42Zm1.54.21,0-.15c.18-.61.36-1.23.52-1.86h0c.49.07,1,.16,1.43.24-.18.63-.38,1.24-.59,1.85-.44-.09-.89-.16-1.36-.23,0,.05,0,.1,0,.15l1.35.23c-.21.6-.44,1.19-.67,1.77l-1.26-.22C31,32.83,31.16,32.24,31.35,31.63Zm1.46.25c.44.08.86.17,1.28.27-.24.59-.5,1.18-.77,1.75-.38-.09-.78-.17-1.19-.25C32.37,33.07,32.6,32.48,32.81,31.88Zm1.38.29c.41.09.81.2,1.19.3-.26.59-.55,1.17-.85,1.73-.35-.1-.73-.19-1.11-.28C33.69,33.35,34,32.77,34.19,32.17Zm1.29.33c.38.1.75.21,1.1.33q-.45.87-.93,1.71c-.33-.11-.67-.22-1-.32C34.92,33.66,35.21,33.09,35.48,32.5Zm1.18.36c.35.12.68.24,1,.37-.31.57-.65,1.13-1,1.68-.29-.12-.6-.24-.92-.35C36.06,34,36.37,33.44,36.66,32.86Zm1.07.4c.31.13.6.26.88.4-.34.56-.69,1.11-1.07,1.65-.25-.13-.52-.25-.81-.37C37.08,34.39,37.42,33.83,37.73,33.26Zm.08-.14c.32-.58.61-1.17.89-1.77.33.14.64.28.93.43-.29.59-.61,1.17-.94,1.74C38.42,33.38,38.12,33.25,37.81,33.12Zm.87-1.95q-.49-.21-1-.39c.25-.61.49-1.23.7-1.86.39.13.76.27,1.11.41C39.21,30,39,30.57,38.68,31.17Zm-.29-2.41c.21-.63.41-1.27.58-1.91.41.13.79.27,1.15.42-.18.65-.39,1.28-.62,1.9C39.15,29,38.78,28.89,38.39,28.76Zm.52-2.11c-.41-.14-.83-.27-1.28-.39q.24-1,.42-2c.45.13.89.26,1.31.4C39.23,25.34,39.08,26,38.91,26.65Zm-.83-2.54c.11-.66.21-1.34.29-2,.46.13.91.27,1.34.41-.08.67-.19,1.34-.31,2C39,24.37,38.54,24.24,38.08,24.11Zm.3-2.18c.08-.68.13-1.35.16-2,.47.14.92.27,1.36.42,0,.68-.09,1.36-.17,2C39.3,22.2,38.85,22.06,38.38,21.93Zm0-2.24c-.48-.13-1-.25-1.48-.37,0-.4,0-.8,0-1.19v-.85c.5.12,1,.24,1.47.37,0,.28,0,.56,0,.85S38.44,19.29,38.43,19.69ZM36.85,18.1c0,.39,0,.79,0,1.19-.51-.12-1-.23-1.58-.33,0-.4,0-.8,0-1.19v-.85c.54.1,1.07.21,1.58.33C36.84,17.53,36.85,17.81,36.85,18.1Zm-1.61,1c.54.1,1.07.21,1.58.33,0,.68-.08,1.36-.14,2-.51-.12-1-.22-1.57-.33C35.17,20.5,35.21,19.81,35.24,19.13Zm-.13-.2-1.68-.28c0-.4,0-.8,0-1.19s0-.57,0-.85l1.68.28c0,.28,0,.57,0,.85S35.12,18.54,35.11,18.93Zm-1.67-2.49c0-.67,0-1.32-.08-2l1.66.29c0,.63.08,1.29.1,1.95Zm-.1-2.11c0-.64-.1-1.25-.17-1.85.56.08,1.1.18,1.63.28.08.6.15,1.21.2,1.85C34.46,14.51,33.91,14.41,33.34,14.33Zm-.19-2c-.07-.6-.16-1.18-.26-1.74l1.58.27c.12.57.22,1.15.31,1.74C34.25,12.51,33.71,12.41,33.15,12.33Zm-.14,0q-.84-.13-1.71-.24c-.06-.59-.13-1.17-.21-1.72l1.66.22C32.85,11.13,32.94,11.71,33,12.31Zm-2.08-2.12c-.57-.07-1.14-.13-1.73-.18-.06-.55-.14-1.08-.22-1.6.57.06,1.12.11,1.67.18C30.75,9.1,30.84,9.64,30.93,10.19ZM29,8.28c-.08-.5-.17-1-.27-1.46L30.28,7c.12.47.24,1,.34,1.47ZM27.13,9.85c-.6,0-1.2-.07-1.81-.09q0-.82-.09-1.59c.59,0,1.18.05,1.75.09Q27.07,9,27.13,9.85Zm-1.9,1.76-1.89,0c0-.59,0-1.16,0-1.71l1.84,0C25.2,10.45,25.22,11,25.23,11.61Zm-1.91-1.9c0-.55,0-1.07,0-1.58.59,0,1.18,0,1.77,0,0,.51.06,1,.09,1.58Zm0,12.77,1.88,0c0,.68,0,1.36-.07,2L23.3,24.5C23.3,23.83,23.31,23.16,23.32,22.48Zm1.8,2.24c0,.67-.05,1.33-.09,2-.58,0-1.17,0-1.76,0,0-.66,0-1.33,0-2C23.91,24.68,24.52,24.69,25.12,24.72ZM25.05,29l1.64.08c-.07.64-.14,1.27-.22,1.89l-1.56-.08C25,30.26,25,29.63,25.05,29Zm1.4,2.12c-.08.62-.17,1.23-.26,1.82l-1.44-.07c.05-.6.1-1.2.15-1.82Zm-.16,2c.47,0,.94.06,1.41.11-.13.59-.27,1.16-.41,1.73-.42,0-.86-.08-1.29-.1C26.1,34.26,26.2,33.68,26.29,33.09Zm1.52.12,1.37.14c-.17.59-.34,1.16-.52,1.72-.41,0-.83-.1-1.26-.13C27.54,34.37,27.68,33.8,27.81,33.21Zm1.48.15,1.32.18c-.21.58-.42,1.15-.64,1.71l-1.21-.17C29,34.52,29.12,34,29.29,33.36Zm1.42.2,1.26.21c-.24.58-.49,1.14-.74,1.69l-1.16-.2C30.29,34.71,30.51,34.14,30.71,33.56Zm1.36.23,1.19.25c-.27.57-.55,1.12-.85,1.66l-1.09-.23Q31.71,34.66,32.07,33.79Zm1.28.27,1.11.28c-.3.56-.61,1.11-.94,1.64l-1-.26C32.8,35.18,33.08,34.63,33.35,34.06Zm1.2.31c.35.09.69.2,1,.31-.33.55-.68,1.09-1,1.61L33.6,36C33.93,35.47,34.25,34.93,34.55,34.37Zm1.1.33.92.34c-.36.55-.73,1.07-1.11,1.59-.27-.11-.55-.22-.85-.32C35,35.79,35.32,35.25,35.65,34.7Zm1,.37c.29.12.56.25.81.37-.38.54-.77,1.05-1.18,1.55-.23-.11-.48-.23-.75-.34C35.91,36.14,36.28,35.62,36.64,35.07Zm.87.41.38.2.31.19c-.39.52-.8,1-1.24,1.52l-.28-.18L36.33,37C36.74,36.52,37.14,36,37.51,35.48Zm.48.07-.38-.21c.37-.53.73-1.08,1.06-1.65l.41.23a3.79,3.79,0,0,1,.34.2c-.35.56-.73,1.1-1.12,1.62Zm1.18-1.77-.41-.23c.33-.56.65-1.14.94-1.73l.44.23.35.22c-.3.58-.63,1.16-1,1.71A3.79,3.79,0,0,0,39.17,33.78Zm-.4-2.58c.27-.6.53-1.21.76-1.83.35.14.67.29,1,.44-.25.62-.52,1.23-.81,1.82C39.41,31.48,39.1,31.34,38.77,31.2Zm.82-2c.23-.62.44-1.26.63-1.9.36.15.7.3,1,.46-.19.64-.42,1.27-.66,1.89C40.26,29.5,39.94,29.35,39.59,29.21Zm.58-2.1c-.36-.15-.75-.29-1.15-.43.17-.65.32-1.3.45-2,.41.14.81.28,1.19.44C40.52,25.81,40.36,26.47,40.17,27.11Zm-.67-2.56c.13-.66.23-1.33.32-2,.42.14.82.29,1.21.44-.09.68-.2,1.34-.34,2C40.32,24.84,39.92,24.69,39.5,24.55Zm.33-2.17c.08-.68.14-1.36.17-2,.43.15.84.3,1.23.46,0,.68-.1,1.35-.18,2C40.67,22.67,40.26,22.52,39.83,22.38Zm.07-2.24q-.65-.23-1.35-.42c0-.39,0-.79,0-1.19s0-.57,0-.85c.47.13.93.27,1.36.42,0,.28,0,.56,0,.85S39.92,19.74,39.9,20.14Zm-1.34-2.63c0-.67-.07-1.32-.13-2,.47.13.92.27,1.35.41.06.64.11,1.3.13,2C39.48,17.78,39,17.65,38.56,17.51Zm-.15-2.12c-.06-.64-.15-1.26-.26-1.87.46.13.9.27,1.32.41.12.61.22,1.23.29,1.87C39.33,15.66,38.88,15.52,38.41,15.39Zm-.11,0c-.47-.13-1-.26-1.47-.37-.06-.64-.13-1.26-.23-1.86q.74.16,1.44.36C38.14,14.1,38.23,14.72,38.3,15.36ZM36.57,13c-.1-.6-.21-1.19-.35-1.75.49.11,1,.23,1.4.35.15.57.28,1.16.39,1.76Q37.32,13.15,36.57,13Zm-.12,0c-.5-.11-1-.22-1.54-.32a.77.77,0,0,1,0,.15c.53.1,1,.21,1.54.32q.15.9.24,1.86c-.51-.12-1-.23-1.57-.33,0-.63-.12-1.25-.21-1.85a.77.77,0,0,0,0-.15c-.09-.6-.19-1.18-.31-1.74.52.1,1,.2,1.5.31C36.24,11.77,36.35,12.35,36.45,13Zm-1.88-2.2c-.12-.56-.25-1.1-.4-1.62q.75.13,1.44.3c.17.52.32,1.07.46,1.63Zm-.12,0-1.59-.27c-.1-.55-.22-1.09-.34-1.61l1.53.26C34.19,9.62,34.33,10.17,34.45,10.72Zm-2-2c-.13-.51-.28-1-.43-1.48l1.46.25c.18.48.34,1,.49,1.49Zm-.14,0q-.78-.12-1.59-.21c-.11-.51-.22-1-.35-1.48l1.53.21C32.09,7.69,32.23,8.18,32.35,8.69Zm-2.1-1.82L28.67,6.7c-.1-.46-.21-.9-.32-1.32l1.5.16C30,6,30.12,6.4,30.25,6.87Zm-1.72-.18q-.8-.08-1.62-.12c-.07-.46-.15-.9-.22-1.32.51,0,1,.07,1.53.12C28.33,5.79,28.44,6.23,28.53,6.69Zm-1.76-.13s0,.08,0,.11c.06.47.12,1,.18,1.46l-1.75-.08c0-.51-.06-1-.1-1.46l1.67.08s0-.07,0-.11c-.55,0-1.1-.06-1.66-.08,0-.46-.08-.9-.13-1.32l1.57.08C26.63,5.66,26.7,6.1,26.77,6.56ZM25.08,8,23.3,8c0-.5,0-1,0-1.45.57,0,1.13,0,1.7,0C25,7.05,25,7.53,25.08,8Zm-1.8-1.61c0-.46,0-.89,0-1.31l1.6,0c0,.41.08.85.12,1.31Zm0,20.4,1.76,0c0,.66-.07,1.31-.11,1.95l-1.69,0C23.25,28.14,23.26,27.49,23.27,26.83ZM24.91,29c0,.64-.09,1.27-.13,1.9l-1.58,0q0-.93,0-1.89Q24.07,29,24.91,29ZM24.77,31q-.07.93-.15,1.83l-1.47,0c0-.59,0-1.2,0-1.82C23.72,31,24.25,31,24.77,31ZM23.18,15.65h-2c0-.66,0-1.31,0-1.95.65,0,1.3,0,1.94,0C23.18,14.34,23.19,15,23.18,15.65Zm-1.94-2.1c0-.63,0-1.24,0-1.83h1.91v1.84C22.54,13.54,21.89,13.54,21.24,13.55ZM19.63,5.08,18,5.18c.09-.42.19-.81.3-1.18l1.49-.09C19.76,4.28,19.7,4.67,19.63,5.08Zm0,.11c-.07.41-.12.85-.18,1.31l-1.7.1q.14-.69.27-1.32C18.54,5.24,19.08,5.21,19.62,5.19Zm-.19,1.43c-.06.46-.11.94-.15,1.45-.6,0-1.2.06-1.79.11.07-.51.15-1,.23-1.46C18.29,6.68,18.86,6.64,19.43,6.62ZM17.34,8.19c-.59,0-1.17.09-1.76.15.1-.51.2-1,.31-1.46.56-.06,1.12-.11,1.69-.15C17.49,7.19,17.42,7.68,17.34,8.19Zm-1.91.17-1.73.2c.12-.51.26-1,.4-1.47.54-.08,1.1-.14,1.65-.2C15.64,7.36,15.53,7.85,15.43,8.36Zm-1.87.22-1.65.26c.14-.52.3-1,.47-1.49.51-.09,1-.17,1.58-.24C13.82,7.58,13.68,8.07,13.56,8.58ZM9.63,10.94l-1.45.34c.15-.56.32-1.11.5-1.64l1.4-.33C9.92,9.84,9.77,10.38,9.63,10.94Zm0,.14c-.13.56-.25,1.15-.34,1.75-.52.11-1,.22-1.5.35.11-.6.24-1.19.39-1.76C8.61,11.3,9.09,11.19,9.6,11.08Zm-2,2.13c-.47.12-.92.25-1.35.38.12-.6.26-1.19.42-1.76.42-.13.86-.26,1.32-.38C7.88,12,7.75,12.61,7.64,13.21Zm0,.15c-.11.6-.2,1.23-.26,1.86-.49.13-.94.26-1.38.4.07-.64.17-1.27.28-1.87C6.69,13.61,7.14,13.48,7.62,13.36Zm-.28,2c-.06.64-.11,1.3-.13,2-.49.12-1,.25-1.39.39,0-.67.07-1.32.14-2C6.4,15.64,6.86,15.51,7.34,15.38ZM7.2,17.51c0,.28,0,.57,0,.85s0,.8,0,1.19c-.48.13-1,.26-1.39.4,0-.4,0-.79,0-1.19s0-.57,0-.85C6.25,17.77,6.72,17.64,7.2,17.51ZM5.88,22.19l-1.23.42c-.08-.67-.14-1.34-.17-2,.39-.15.8-.29,1.24-.43C5.75,20.84,5.8,21.52,5.88,22.19Zm-1.32.46c-.39.15-.74.3-1.08.45-.08-.67-.14-1.34-.18-2,.34-.16.7-.31,1.09-.46C4.42,21.3,4.47,22,4.56,22.65ZM3.77,25.3c-.32.15-.62.31-.9.47q-.21-1-.36-2c.28-.16.58-.32.91-.48C3.51,24,3.63,24.65,3.77,25.3Zm0,.17c.15.65.31,1.3.5,1.94-.31.15-.6.3-.87.46-.19-.64-.37-1.28-.52-1.94C3.18,25.78,3.48,25.62,3.8,25.47Zm.55,2.1c.2.64.41,1.27.65,1.9-.3.14-.58.28-.84.43-.24-.61-.47-1.24-.67-1.87C3.75,27.87,4,27.72,4.35,27.57ZM5,31.9a7.33,7.33,0,0,0-.65.43c-.31-.58-.6-1.17-.86-1.78a8,8,0,0,1,.68-.46C4.42,30.71,4.69,31.31,5,31.9Zm.08.15c.3.58.62,1.16,1,1.72a5.88,5.88,0,0,0-.61.41c-.36-.55-.69-1.12-1-1.7A6.85,6.85,0,0,1,5.07,32.05Zm1,1.86c.34.56.71,1.1,1.09,1.63-.21.13-.4.25-.57.38-.4-.52-.78-1.05-1.13-1.6A5,5,0,0,1,6.12,33.91Zm1.19,1.77c.39.52.79,1,1.22,1.53a4.43,4.43,0,0,0-.53.35c-.44-.49-.86-1-1.26-1.51C6.91,35.93,7.1,35.8,7.31,35.68Zm.05,0c.22-.13.45-.25.7-.37.36.54.75,1.06,1.15,1.57q-.35.16-.63.33C8.15,36.69,7.75,36.17,7.36,35.65Zm.76-.4c.25-.11.52-.23.81-.34.35.55.71,1.08,1.09,1.59-.27.11-.52.21-.75.32C8.87,36.31,8.49,35.79,8.12,35.25Zm2,1.38c.38.52.78,1,1.19,1.49-.24.09-.46.19-.67.28-.44-.46-.86-.95-1.26-1.45C9.6,36.84,9.85,36.74,10.11,36.63Zm.07,0c.27-.1.55-.2.85-.29.35.52.72,1,1.1,1.51l-.77.27C11,37.62,10.56,37.12,10.18,36.61Zm2.11,1.32.85-.24c.35.5.71,1,1.08,1.43l-.75.22C13.06,38.89,12.67,38.42,12.29,37.93Zm.93-.26.94-.22c.31.5.63,1,1,1.46l-.84.19C13.92,38.65,13.56,38.17,13.22,37.67Zm1-.24,1-.2c.27.52.55,1,.84,1.49l-.91.17C14.87,38.42,14.55,37.94,14.24,37.43Zm.29-1.94,1.24-.19c.21.55.43,1.09.65,1.61l-1.12.18C15,36.57,14.78,36,14.53,35.49Zm1.35-.2,1.3-.16c.17.56.34,1.1.52,1.63l-1.18.14C16.3,36.38,16.08,35.84,15.88,35.29Zm1.41-.17c.44,0,.88-.08,1.33-.12.12.56.25,1.11.38,1.64l-1.2.11C17.62,36.22,17.46,35.68,17.29,35.12ZM18.73,35l1.34-.07c.08.56.16,1.11.24,1.64l-1.21.08C19,36.1,18.85,35.56,18.73,35Zm1.61,1.71c.08.53.17,1,.26,1.55-.36,0-.72,0-1.07.06-.14-.5-.27-1-.4-1.54Zm-.15-1.79,1.34,0c0,.57.07,1.12.11,1.65l-1.22,0C20.34,36,20.26,35.48,20.19,34.91Zm1.36-2.08c0-.6-.05-1.21-.08-1.83h1.59q0,.93,0,1.83Zm1.55,2,1.34,0c-.06.57-.11,1.12-.17,1.65l-1.21,0C23.07,36,23.09,35.43,23.1,34.86Zm1.25,1.82,1.18.06c-.11.53-.22,1-.33,1.54l-1.05-.05C24.22,37.73,24.29,37.22,24.35,36.68Zm0-.13.18-1.65c.44,0,.88,0,1.31.06-.1.57-.2,1.11-.31,1.65C25.16,36.58,24.77,36.56,24.37,36.55ZM26,35l1.29.1c-.14.56-.29,1.1-.44,1.63l-1.17-.09C25.76,36.08,25.87,35.53,26,35Zm1.39.11,1.25.13c-.18.55-.37,1.1-.57,1.62l-1.13-.12C27.07,36.18,27.22,35.64,27.36,35.08Zm1.35.14,1.21.16c-.23.56-.46,1.09-.7,1.61l-1.09-.15C28.33,36.32,28.53,35.78,28.71,35.22Zm1.3.18,1.15.19q-.39.82-.81,1.59l-1-.18C29.55,36.48,29.79,36,30,35.4Zm1.24.21,1.09.23c-.3.53-.61,1.06-.93,1.56l-1-.2C30.72,36.68,31,36.16,31.25,35.61Zm1.17.25c.35.08.69.16,1,.25-.32.53-.67,1-1,1.54l-.92-.23Q32,36.65,32.42,35.86Zm1.1.28.93.28c-.36.52-.74,1-1.13,1.51l-.84-.26C32.84,37.17,33.18,36.66,33.52,36.14Zm1,.3.84.31c-.39.51-.79,1-1.21,1.48-.24-.1-.49-.19-.76-.28C33.78,37.46,34.16,37,34.52,36.44Zm.91.34c.26.11.51.22.74.34-.42.5-.84,1-1.29,1.44-.21-.1-.43-.21-.67-.31C34.63,37.78,35,37.29,35.43,36.78Zm.8.37.34.19.29.17c-.44.49-.89,1-1.36,1.41l-.25-.16-.32-.17C35.38,38.13,35.81,37.65,36.23,37.15Zm.67.39a5.43,5.43,0,0,1,.5.38c-.45.47-.92.92-1.4,1.36a4.39,4.39,0,0,0-.45-.34C36,38.5,36.47,38,36.9,37.54Zm.11-.12c.44-.49.85-1,1.25-1.51a6.32,6.32,0,0,1,.54.4c-.41.51-.84,1-1.29,1.49A3.44,3.44,0,0,0,37,37.42Zm1.35-1.65c.39-.52.76-1.06,1.12-1.61h0a4.63,4.63,0,0,1,.58.44c-.37.54-.75,1.07-1.16,1.59A6.35,6.35,0,0,0,38.36,35.77ZM39.56,34c.35-.56.69-1.13,1-1.71a5.43,5.43,0,0,1,.63.47c-.32.57-.67,1.13-1,1.68A4.12,4.12,0,0,0,39.56,34Zm.65-2.12c-.14-.08-.28-.16-.43-.23.29-.6.56-1.2.8-1.82l.46.25.38.23c-.26.61-.55,1.21-.85,1.79ZM41.1,30a4.79,4.79,0,0,0-.45-.25q.36-.93.66-1.89l.48.26.39.24c-.21.63-.44,1.26-.7,1.87A3.48,3.48,0,0,0,41.1,30Zm.18-2.34c-.31-.16-.66-.31-1-.46.19-.65.35-1.3.49-2l1,.48a.94.94,0,0,1,0-.16q-.5-.26-1.05-.48c.13-.66.24-1.33.33-2,.38.16.74.32,1.07.49-.09.67-.21,1.33-.35,2a.94.94,0,0,0,0,.16C41.65,26.33,41.48,27,41.28,27.61Zm-.13-4.75c.08-.67.14-1.34.18-2,.38.16.74.32,1.08.49,0,.68-.1,1.35-.19,2Zm.09-2.23c-.39-.16-.8-.31-1.23-.46,0-.39,0-.79,0-1.19s0-.57,0-.85c.43.15.84.3,1.22.46,0,.28,0,.56,0,.85S41.26,20.23,41.24,20.63ZM40,18c0-.67-.07-1.32-.14-2,.43.14.84.29,1.22.45.07.64.12,1.3.15,2C40.86,18.26,40.45,18.11,40,18Zm-.15-2.12c-.08-.64-.17-1.27-.29-1.88.42.14.82.29,1.19.45.13.61.23,1.23.31,1.88C40.7,16.13,40.29,16,39.87,15.84Zm-2.29-4.4c-.44-.13-.91-.24-1.39-.35-.14-.57-.29-1.11-.46-1.64.47.11.92.22,1.35.34C37.27,10.32,37.43,10.87,37.58,11.44ZM35.69,9.32c-.17-.52-.36-1-.56-1.51.44.11.87.21,1.28.33.22.49.43,1,.62,1.52C36.6,9.54,36.15,9.43,35.69,9.32Zm-.12,0q-.69-.17-1.44-.3c-.15-.52-.31-1-.49-1.5L35,7.79C35.21,8.27,35.4,8.77,35.57,9.3Zm-2-1.92c-.18-.47-.37-.93-.58-1.36.45.08.88.17,1.3.27.23.44.45.9.65,1.38Zm-.12,0L32,7.11c-.15-.47-.32-.92-.49-1.34L32.9,6C33.1,6.43,33.3,6.88,33.47,7.36Zm-2-1.7c-.18-.43-.36-.83-.56-1.21l1.28.22c.22.39.44.79.65,1.22Zm-.11,0c-.47-.07-.95-.14-1.44-.19-.14-.42-.3-.82-.46-1.2l1.34.19C31,4.82,31.19,5.22,31.37,5.64Zm-1.56-.21-1.49-.16c-.11-.41-.23-.81-.36-1.18l1.39.15C29.51,4.61,29.67,5,29.81,5.43ZM28.2,5.26l-1.53-.12c-.09-.41-.17-.8-.26-1.17l1.43.11C28,4.45,28.09,4.85,28.2,5.26Zm-1.66-.12c-.52,0-1-.06-1.57-.08,0-.41-.09-.8-.14-1.17L26.29,4C26.38,4.33,26.46,4.72,26.54,5.14Zm-1.7-.09L23.25,5c0-.41,0-.8,0-1.16.5,0,1,0,1.49,0C24.75,4.25,24.79,4.64,24.84,5.05ZM23.21,3.76c0-.36,0-.69,0-1,.46,0,.91,0,1.37,0,.05.31.1.65.15,1Zm0,7.8H21.27c0-.59,0-1.16,0-1.71h1.86C23.17,10.4,23.18,11,23.18,11.56ZM21.31,9.72c0-.55,0-1.08.05-1.59.6,0,1.2,0,1.79,0,0,.5,0,1,0,1.58ZM21.37,8c0-.51,0-1,.06-1.46h1.71c0,.46,0,.94,0,1.45C22.56,8,22,8,21.37,8Zm0-3c-.53,0-1.07,0-1.6,0,.06-.42.12-.81.19-1.17l1.5-.05C21.43,4.23,21.4,4.61,21.37,5ZM20,3.82c.06-.36.14-.7.21-1l1.38,0c0,.31-.07.65-.1,1Zm-.13,0c-.5,0-1,.05-1.48.09q.15-.54.33-1l1.37-.08C20,3.12,19.92,3.46,19.85,3.82Zm-1.61.1-1.47.13c.15-.37.3-.71.46-1,.45,0,.9-.09,1.36-.12C18.47,3.21,18.35,3.56,18.24,3.92Zm0,.09c-.11.37-.21.76-.31,1.18a.3.3,0,0,0,0,.1c-.1.42-.19.86-.28,1.32l-1.68.15c.12-.47.24-.91.37-1.33l1.59-.14a.3.3,0,0,1,0-.1c-.53,0-1.06.08-1.58.13.13-.41.27-.81.41-1.18Zm-2,1.33-1.56.18,0,.11,1.56-.19c-.13.42-.25.87-.37,1.33L14.13,7c.15-.47.3-.91.46-1.34l0-.11c.17-.42.34-.82.53-1.19.48-.07,1-.12,1.45-.18C16.46,4.53,16.32,4.92,16.19,5.34ZM14,7c-.55.07-1.07.15-1.58.24.18-.47.36-.92.56-1.35l1.48-.23C14.3,6.07,14.14,6.52,14,7Zm-1.09-1.2c-.48.08-.94.17-1.37.26.22-.43.47-.84.72-1.23.41-.08.84-.17,1.28-.24C13.32,5,13.11,5.36,12.91,5.79Zm-.06.11c-.19.43-.38.88-.55,1.35l-1.46.28c.2-.48.41-.93.64-1.37ZM10.73,7.56c-.47.1-.91.2-1.33.31.22-.48.46-1,.71-1.39.4-.1.82-.2,1.26-.29C11.14,6.62,10.93,7.08,10.73,7.56Zm-.05.12c-.2.48-.39,1-.55,1.5-.49.1-1,.21-1.4.33.19-.53.39-1,.61-1.52C9.77,7.88,10.21,7.78,10.68,7.68ZM8.62,9.54c-.44.11-.87.23-1.27.36.21-.53.43-1,.67-1.54L9.23,8C9,8.51,8.81,9,8.62,9.54Zm0,.13c-.18.53-.35,1.08-.5,1.64-.46.12-.9.25-1.32.38.17-.57.35-1.12.55-1.66ZM6.65,11.72c-.41.13-.8.26-1.17.4.18-.57.38-1.13.59-1.66.36-.14.73-.27,1.13-.4C7,10.6,6.82,11.15,6.65,11.72Zm0,.14q-.24.86-.42,1.77c-.43.13-.83.27-1.21.41.13-.6.28-1.2.46-1.77C5.81,12.13,6.2,12,6.61,11.86Zm-.45,1.92c-.12.61-.22,1.23-.29,1.87l-1.23.42c.08-.64.19-1.26.31-1.87C5.33,14.05,5.73,13.91,6.16,13.78Zm-.31,2c-.07.64-.11,1.3-.14,2-.44.14-.85.28-1.24.43,0-.67.08-1.33.16-2C5,16.09,5.42,16,5.85,15.81ZM4.37,18.24c-.38.15-.74.3-1.08.46,0-.67.09-1.33.17-2,.33-.16.69-.31,1.07-.46C4.45,16.92,4.4,17.57,4.37,18.24Zm0,.17c0,.28,0,.57,0,.85s0,.8,0,1.19c-.39.15-.75.3-1.08.46,0-.4,0-.79,0-1.19s0-.57,0-.85C3.62,18.71,4,18.56,4.37,18.41Zm-1,4.73c-.33.16-.63.32-.91.48-.09-.67-.16-1.34-.19-2,.28-.16.59-.32.92-.48C3.25,21.8,3.32,22.47,3.4,23.14Zm-.6,2.67a7.12,7.12,0,0,0-.73.49c-.15-.65-.28-1.31-.38-2a8.88,8.88,0,0,1,.75-.5Q2.59,24.84,2.8,25.81Zm0,.17c.15.65.33,1.29.53,1.93a8.15,8.15,0,0,0-.72.47c-.2-.63-.39-1.27-.54-1.92A7.1,7.1,0,0,1,2.84,26Zm.58,2.09c.2.63.43,1.26.68,1.87a7.51,7.51,0,0,0-.69.46c-.26-.61-.49-1.23-.7-1.86A6.72,6.72,0,0,1,3.42,28.07Zm.87,4.3a3.88,3.88,0,0,0-.51.45c-.32-.57-.62-1.16-.89-1.76a4.23,4.23,0,0,1,.54-.47C3.69,31.19,4,31.79,4.29,32.37Zm.08.15c.31.58.64,1.14,1,1.69a4.06,4.06,0,0,0-.48.43c-.37-.55-.71-1.1-1-1.68A3.24,3.24,0,0,1,4.37,32.52Zm1.09,1.83c.36.55.74,1.09,1.14,1.61a4.51,4.51,0,0,0-.45.39c-.41-.51-.8-1-1.17-1.58A5.15,5.15,0,0,1,5.46,34.35ZM6.7,36.09q.6.77,1.26,1.5a2.33,2.33,0,0,0-.4.36c-.46-.48-.89-1-1.3-1.47A2.84,2.84,0,0,1,6.7,36.09Zm2.1,3.68c-.5-.41-1-.85-1.44-1.31a2.77,2.77,0,0,1,.28-.37c.46.47.93.92,1.42,1.35A2.5,2.5,0,0,0,8.8,39.77Zm.39-.22c.49.43,1,.84,1.53,1.22a1.94,1.94,0,0,0-.23.29c-.53-.37-1.06-.77-1.56-1.18A2.5,2.5,0,0,1,9.19,39.55ZM7.67,38.06a3.73,3.73,0,0,1,.41-.35q.66.72,1.38,1.38a4.1,4.1,0,0,0-.37.33C8.6,39,8.13,38.53,7.67,38.06Zm.44-.38c.16-.12.33-.23.52-.35.43.49.87,1,1.33,1.42-.17.11-.33.21-.47.32C9,38.62,8.56,38.16,8.11,37.68Zm.57-.37A5.33,5.33,0,0,1,9.31,37c.41.5.83,1,1.27,1.45l-.58.3C9.55,38.27,9.11,37.8,8.68,37.31Zm2,1.24c.44.46.89.91,1.36,1.33-.18.09-.35.17-.5.26-.49-.41-1-.84-1.43-1.3A5,5,0,0,1,10.69,38.55Zm.05,0,.66-.28c.42.48.84.93,1.28,1.37l-.59.25C11.63,39.43,11.18,39,10.74,38.52Zm2.77.95c.41.45.83.87,1.27,1.28-.21.06-.4.13-.58.2-.46-.4-.91-.81-1.35-1.25C13.06,39.62,13.28,39.54,13.51,39.47Zm.06,0,.75-.21c.37.45.76.89,1.15,1.31l-.64.18C14.4,40.32,14,39.9,13.57,39.45Zm.81-.23.83-.19c.33.46.68.91,1,1.33l-.71.17C15.14,40.12,14.75,39.68,14.38,39.22Zm.9-.21.9-.17c.29.47.59.93.9,1.36l-.78.15C16,39.92,15.61,39.48,15.28,39Zm.08-1.79,1.12-.17c.22.52.46,1,.7,1.5l-1,.15C15.91,38.23,15.63,37.73,15.36,37.22ZM16.58,37l1.16-.14c.18.53.37,1,.56,1.53-.35,0-.69.07-1,.12C17,38.06,16.8,37.55,16.58,37Zm1.26-.15,1.19-.1c.13.53.27,1,.41,1.53l-1.05.1C18.2,37.92,18,37.41,17.84,36.88Zm1.64,1.56c.14.49.28,1,.43,1.42l-.89.08c-.2-.45-.4-.92-.58-1.41Zm.09,0,1.05-.06c.09.5.18,1,.28,1.43l-.91.05C19.84,39.4,19.7,38.92,19.57,38.43Zm.87-1.73,1.21,0c0,.53.07,1.05.11,1.55-.36,0-.72,0-1.07,0C20.6,37.74,20.52,37.23,20.44,36.7Zm1.31,0H23c0,.54,0,1.05,0,1.55H21.85C21.81,37.71,21.78,37.19,21.75,36.66ZM23,38.33l1.05,0s0-.08,0-.12L23,38.2c0-.5,0-1,.05-1.55l1.2,0c-.06.53-.12,1-.19,1.55,0,0,0,.08,0,.12-.07.5-.13,1-.2,1.43l-.9,0C23,39.3,23,38.83,23,38.33Zm1.14,0,1,0c-.12.49-.23,1-.36,1.42l-.88,0C24,39.33,24.07,38.85,24.14,38.36Zm1.11,0,1,.08c-.16.49-.33,1-.5,1.41l-.87-.06C25,39.38,25.13,38.91,25.25,38.41Zm0-.12c.12-.5.24-1,.35-1.54.38,0,.77,0,1.15.09-.16.52-.31,1-.48,1.53Zm1.59-1.45L28,37c-.2.52-.4,1-.61,1.52l-1-.11C26.55,37.88,26.72,37.37,26.87,36.84Zm1.21.13,1.08.15c-.24.52-.49,1-.74,1.5l-1-.13C27.68,38,27.88,37.5,28.08,37Zm1.17.16,1,.18c-.28.51-.57,1-.88,1.48l-.91-.16C28.75,38.15,29,37.65,29.25,37.13Zm1.11.2c.34.06.66.13,1,.2-.32.5-.65,1-1,1.45-.28-.07-.57-.13-.86-.18C29.78,38.33,30.08,37.83,30.36,37.33Zm1.05.21.91.23c-.36.5-.73,1-1.11,1.43l-.8-.21C30.75,38.53,31.09,38.05,31.41,37.54Zm1,.25c.29.08.57.17.83.26-.39.48-.79.94-1.21,1.39l-.73-.23C31.66,38.76,32,38.29,32.39,37.79Zm.9.28c.26.09.52.18.75.28-.42.47-.85.92-1.3,1.36-.21-.09-.43-.17-.67-.25C32.49,39,32.9,38.55,33.29,38.07Zm-.5,1.66c.45-.43.89-.89,1.31-1.36.24.1.46.2.67.31-.45.46-.91.9-1.39,1.32A4.58,4.58,0,0,0,32.79,39.73Zm.47.37c-.48.42-1,.82-1.47,1.19l-.51-.23c.48-.38.95-.79,1.4-1.22A6.29,6.29,0,0,1,33.26,40.1Zm1.56-1.4.31.17.26.16c-.47.44-1,.87-1.46,1.28l-.23-.14L33.43,40C33.91,39.6,34.37,39.16,34.82,38.7Zm.61.36a4.2,4.2,0,0,1,.44.33c-.48.43-1,.85-1.51,1.24a3.31,3.31,0,0,0-.39-.3C34.47,39.93,35,39.5,35.43,39.06Zm.6.25c.48-.44.95-.89,1.4-1.36a2.48,2.48,0,0,1,.36.37c-.46.47-.94.91-1.44,1.33A2.5,2.5,0,0,0,36,39.31Zm1.79-1a1.63,1.63,0,0,1,.22.38c-.46.45-.95.87-1.46,1.28a2,2,0,0,0-.2-.34C36.87,39.26,37.36,38.82,37.82,38.36Zm-.27-.53c.45-.48.88-1,1.29-1.48a3.68,3.68,0,0,1,.39.41c-.42.5-.86,1-1.32,1.45A2.55,2.55,0,0,0,37.55,37.83Zm1.39-1.61c.41-.51.8-1,1.16-1.59a3.57,3.57,0,0,1,.43.45c-.38.53-.78,1.05-1.19,1.56A3.1,3.1,0,0,0,38.94,36.22Zm1.69-4.06c.31-.58.59-1.18.85-1.79a6.11,6.11,0,0,1,.65.49c-.27.6-.56,1.2-.88,1.77A5.56,5.56,0,0,0,40.63,32.16Zm.91-1.94c.26-.61.5-1.23.71-1.87a6.38,6.38,0,0,1,.68.52c-.22.62-.46,1.24-.73,1.84A6.29,6.29,0,0,0,41.54,30.22Zm.69-2.07-.39-.24-.48-.26c.2-.63.37-1.28.52-1.93.17.08.33.17.49.26l.4.25Q42.54,27.21,42.23,28.15Zm.18-2.33-.49-.27c.14-.65.26-1.32.36-2,.17.09.34.18.5.28s.28.16.41.25c-.1.66-.23,1.32-.38,2Zm0-4.66c-.34-.17-.7-.33-1.09-.49,0-.4,0-.79,0-1.19s0-.57,0-.85c.38.16.75.32,1.08.49,0,.28,0,.57,0,.85S42.44,20.77,42.42,21.16Zm-1.07-2.7c0-.67-.08-1.33-.15-2,.38.15.73.32,1.07.49.08.64.13,1.3.16,2C42.09,18.78,41.73,18.62,41.35,18.46Zm-.17-2.13c-.08-.65-.18-1.27-.31-1.89.37.16.72.32,1.05.49a18.9,18.9,0,0,1,.33,1.88C41.92,16.65,41.56,16.48,41.18,16.33Zm-.34-2c-.13-.61-.29-1.2-.46-1.78.36.15.7.3,1,.47.19.58.35,1.18.49,1.79Q41.4,14.52,40.84,14.29Zm-.51-1.93a15.77,15.77,0,0,0-.6-1.67q.52.21,1,.45c.24.55.45,1.11.64,1.69C41,12.67,40.7,12.51,40.33,12.36Zm-.09,0c-.36-.15-.75-.3-1.16-.43h0c-.16-.58-.35-1.13-.55-1.66.39.13.76.27,1.11.41h0A17.53,17.53,0,0,1,40.24,12.33ZM38.47,10.1c-.21-.53-.43-1-.68-1.54.37.12.73.26,1.07.39.26.51.51,1,.73,1.56C39.24,10.37,38.86,10.23,38.47,10.1Zm-.1,0c-.39-.13-.8-.26-1.23-.38a16.09,16.09,0,0,0-.63-1.52c.41.11.81.23,1.19.36C37.94,9,38.17,9.54,38.37,10.07ZM36.46,8c-.23-.48-.48-.95-.74-1.39.39.1.76.22,1.12.34a16,16,0,0,1,.79,1.41Zm-.11,0c-.41-.11-.83-.22-1.27-.32q-.31-.72-.66-1.38c.41.1.82.2,1.21.31C35.88,7.06,36.13,7.53,36.35,8Zm-2-1.81c-.24-.43-.49-.84-.75-1.24l1.12.29c.29.4.57.82.83,1.26Zm-.11,0L33,5.91c-.21-.43-.43-.83-.66-1.22l1.21.25C33.77,5.33,34,5.75,34.25,6.18Zm-2-1.58a12.71,12.71,0,0,0-.73-1.08l1.1.23a13,13,0,0,1,.83,1.09C33.05,4.76,32.65,4.67,32.24,4.6Zm-.1,0-1.27-.22a11.86,11.86,0,0,0-.63-1.06l1.17.2C31.66,3.84,31.91,4.2,32.14,4.58Zm-1.38-.24-1.33-.18c-.17-.37-.34-.72-.52-1l1.23.17C30.35,3.62,30.56,4,30.76,4.34Zm-1.45-.19q-.68-.09-1.38-.15c-.13-.36-.26-.71-.4-1l1.27.14A11.19,11.19,0,0,1,29.31,4.15ZM27.81,4l-1.42-.11c-.09-.36-.19-.7-.28-1l1.31.1C27.56,3.28,27.69,3.62,27.81,4ZM26.08,2.78c-.1-.31-.2-.59-.31-.85.4,0,.79.05,1.18.09a7.66,7.66,0,0,1,.43.86Zm-.11,0a.19.19,0,0,1,0,.08c.1.31.19.65.28,1L24.81,3.8c0-.36-.1-.7-.16-1L26,2.86a.19.19,0,0,0,0-.08l-1.33-.07c-.06-.31-.12-.59-.18-.85l1.21.06C25.77,2.18,25.87,2.47,26,2.78Zm-1.45-.07c-.44,0-.9,0-1.35,0,0-.31,0-.59,0-.85q.61,0,1.23,0C24.42,2.12,24.47,2.4,24.52,2.71ZM23.13,6.43h-1.7c0-.46.05-.9.07-1.31h1.61C23.12,5.54,23.13,6,23.13,6.43ZM21.51,5c0-.41,0-.8.08-1.16h1.5c0,.37,0,.76,0,1.17Zm.07-2.34-1.37,0c.07-.31.15-.6.23-.86.41,0,.83,0,1.24,0C21.65,2.09,21.61,2.38,21.58,2.68Zm-1.49,0-1.36.08c.12-.31.24-.6.37-.86l1.24-.07C20.25,2.14,20.17,2.42,20.09,2.73ZM17.16,3l-1.32.16a8.77,8.77,0,0,1,.63-.89l1.2-.14A8.7,8.7,0,0,0,17.16,3Zm0,.08c-.16.32-.32.66-.47,1l-1.44.17a9.36,9.36,0,0,1,.58-1Zm-2,1.22,0,.09c-.19.38-.37.78-.53,1.2L13,5.77a12.45,12.45,0,0,1,.62-1.21L15,4.34l0-.09-1.37.21a11.43,11.43,0,0,1,.7-1.06l1.27-.2Q15.37,3.69,15.08,4.25Zm-1.48.23-1.28.25a13.41,13.41,0,0,1,.81-1.09c.37-.08.77-.15,1.17-.22A12.16,12.16,0,0,0,13.6,4.48Zm-1.38.27L11.06,5a12.28,12.28,0,0,1,.9-1.1L13,3.66A13.41,13.41,0,0,0,12.22,4.75Zm-.06.1a12.09,12.09,0,0,0-.73,1.23c-.44.09-.86.19-1.26.29.26-.44.53-.85.81-1.25C11.36,5,11.75,4.93,12.16,4.85ZM8,8.27c-.38.12-.74.25-1.07.37.26-.49.54-1,.84-1.43.32-.12.66-.23,1-.35C8.5,7.31,8.24,7.78,8,8.27Zm-.06.13c-.24.49-.47,1-.68,1.53l-1.12.39c.22-.54.46-1.05.72-1.55C7.19,8.64,7.55,8.52,7.93,8.4ZM6,10.35l-1,.42c.24-.54.5-1.07.77-1.57.3-.14.61-.27.95-.4A16.88,16.88,0,0,0,6,10.35ZM6,10.49c-.22.54-.41,1.1-.59,1.67-.37.14-.71.28-1,.43A15.29,15.29,0,0,1,5,10.91,10,10,0,0,1,6,10.49ZM5.34,12.3c-.17.58-.32,1.17-.45,1.78-.38.15-.73.29-1,.45a16.77,16.77,0,0,1,.48-1.79C4.64,12.59,5,12.44,5.34,12.3Zm-.48,1.93c-.13.62-.23,1.24-.31,1.88-.38.15-.74.3-1.07.45.08-.64.19-1.27.32-1.88C4.13,14.53,4.48,14.38,4.86,14.23ZM3.39,16.6c-.33.16-.63.32-.91.48.09-.64.2-1.27.34-1.89.28-.16.58-.32.9-.47C3.59,15.33,3.48,16,3.39,16.6Zm0,.17c-.08.64-.13,1.3-.16,2-.33.16-.64.32-.92.48,0-.67.08-1.33.17-2C2.74,17.08,3,16.92,3.37,16.77ZM3.2,18.91c0,.28,0,.56,0,.85s0,.79,0,1.19c-.33.16-.64.32-.92.48,0-.39,0-.79,0-1.19s0-.57,0-.85C2.56,19.23,2.87,19.07,3.2,18.91ZM2,26.34a5.85,5.85,0,0,0-.57.51c-.16-.65-.29-1.3-.39-2a5.93,5.93,0,0,1,.58-.52C1.73,25,1.86,25.69,2,26.34Zm0,.16c.16.65.34,1.29.55,1.92a5.6,5.6,0,0,0-.56.49c-.21-.62-.4-1.26-.56-1.9A5.85,5.85,0,0,1,2.05,26.5Zm.6,2.08c.21.63.45,1.25.71,1.86a4.12,4.12,0,0,0-.53.47c-.27-.6-.52-1.22-.73-1.84A5.44,5.44,0,0,1,2.65,28.58Zm1.09,4.28a3,3,0,0,0-.36.46c-.32-.57-.63-1.14-.9-1.74a3.09,3.09,0,0,1,.37-.48C3.13,31.7,3.42,32.29,3.74,32.86Zm.08.14c.32.57.67,1.13,1,1.67a2.61,2.61,0,0,0-.34.44c-.38-.54-.73-1.08-1.06-1.65A3.61,3.61,0,0,1,3.82,33ZM5,34.81c.37.54.76,1.06,1.17,1.57a2.76,2.76,0,0,0-.31.41c-.42-.5-.82-1-1.2-1.55A2.56,2.56,0,0,1,5,34.81Zm1.28,1.7c.41.51.84,1,1.3,1.47a2,2,0,0,0-.29.37c-.46-.46-.91-.94-1.33-1.44A2.8,2.8,0,0,1,6.23,36.51ZM8.79,39.8a1.26,1.26,0,0,0-.15.34c-.51-.4-1-.83-1.47-1.27a1.59,1.59,0,0,1,.17-.38C7.8,39,8.29,39.39,8.79,39.8Zm.12.11c.51.41,1,.81,1.57,1.18a.93.93,0,0,0-.13.29c-.55-.36-1.07-.74-1.58-1.14A1.56,1.56,0,0,1,8.91,39.91Zm1.7,1.27c.54.37,1.1.72,1.67,1a.91.91,0,0,0-.11.25c-.58-.31-1.14-.64-1.69-1A2.38,2.38,0,0,1,10.61,41.18Zm1.83,1.1a1.33,1.33,0,0,1,.19-.24c.56.33,1.14.64,1.73.93a1.27,1.27,0,0,0-.16.2C13.6,42.9,13,42.6,12.44,42.28Zm-.15-.08c-.57-.33-1.12-.67-1.66-1a1.48,1.48,0,0,1,.22-.29c.53.38,1.08.74,1.64,1.08A1.46,1.46,0,0,0,12.29,42.2ZM9.21,39.52c.11-.1.23-.21.37-.32.48.44,1,.86,1.48,1.26a3.09,3.09,0,0,0-.32.29Q10,40.17,9.21,39.52Zm.4-.34a4.25,4.25,0,0,1,.47-.31c.46.45.94.88,1.43,1.3l-.42.27C10.58,40,10.09,39.62,9.61,39.18Zm2,1.09q.75.61,1.53,1.17a2.36,2.36,0,0,0-.35.23c-.55-.36-1.07-.73-1.59-1.13Zm0,0a4.66,4.66,0,0,1,.5-.26c.47.42.95.82,1.45,1.2-.16.08-.3.15-.43.23C12.67,41.05,12.16,40.66,11.67,40.25Zm.54-.28c.18-.09.38-.17.58-.25.45.44.9.85,1.37,1.24l-.5.21C13.16,40.79,12.68,40.39,12.21,40Zm2.07,1.09q.71.59,1.44,1.11a3.89,3.89,0,0,0-.41.17c-.52-.33-1-.69-1.53-1.07Zm0,0,.57-.19c.43.4.88.78,1.33,1.14l-.46.16Q15,41.64,14.32,41Zm.62-.21.63-.18c.4.41.8.81,1.22,1.18a4.61,4.61,0,0,0-.53.15C15.81,41.62,15.37,41.24,14.94,40.83Zm.69-.19c.22-.06.45-.12.7-.17a15.87,15.87,0,0,0,1.09,1.21l-.58.13C16.42,41.44,16,41.05,15.63,40.64Zm.76-.18.77-.15c.3.43.62.85.94,1.23l-.63.13C17.1,41.29,16.74,40.88,16.39,40.46Zm-.13-1.64,1-.15c.24.49.49.95.75,1.39l-.84.13C16.84,39.75,16.55,39.3,16.26,38.82Zm1.07-.16,1-.12c.19.49.39,1,.59,1.41l-.88.1C17.81,39.61,17.56,39.14,17.33,38.66ZM19,40.06c.21.45.42.87.63,1.28l-.72.08q-.39-.6-.78-1.26Zm.08,0L20,40c.15.45.31.89.46,1.3-.24,0-.49,0-.73.06C19.47,40.92,19.27,40.5,19.07,40.05ZM20,40l.89,0c.1.45.2.88.29,1.3l-.73,0Q20.24,40.65,20,40Zm.68-1.6,1.06,0c0,.5.07,1,.11,1.44l-.91,0C20.88,39.34,20.79,38.86,20.71,38.37Zm1.15,0h1.05c0,.5,0,1,0,1.43H22C21.93,39.31,21.89,38.83,21.86,38.33Zm1.08,1.55.89,0c-.06.46-.13.89-.21,1.3h-.73C22.91,40.77,22.93,40.34,22.94,39.88Zm1,0,.87.05c-.12.45-.24.88-.37,1.29l-.72,0C23.76,40.79,23.83,40.36,23.91,39.9Zm.95.05.85.07c-.17.45-.35.87-.53,1.28l-.71,0C24.6,40.84,24.73,40.4,24.86,40Zm.92.07.84.09c-.23.44-.46.87-.69,1.27l-.69-.07C25.42,40.9,25.61,40.47,25.78,40Zm0-.11c.18-.45.35-.92.52-1.41l1,.1c-.22.49-.43.95-.66,1.4Zm1.58-1.3.94.13c-.26.48-.52.94-.79,1.38L26.74,40C27,39.56,27.19,39.09,27.41,38.61Zm1,.14.9.15c-.3.48-.61.93-.93,1.36l-.78-.13Q28,39.47,28.43,38.75Zm1,.17c.29,0,.58.11.85.18-.34.46-.69.9-1.06,1.32l-.73-.15C28.78,39.84,29.1,39.39,29.4,38.92Zm.92.19.8.2c-.39.45-.78.89-1.18,1.3l-.69-.17C29.62,40,30,39.57,30.32,39.11Zm.86.22c.25.07.5.14.73.22-.42.44-.85.87-1.29,1.27L30,40.63C30.4,40.21,30.79,39.78,31.18,39.33Zm.79.24c.23.08.45.16.66.25-.45.43-.92.84-1.39,1.22l-.57-.21C31.12,40.43,31.55,40,32,39.57Zm-.31,1.82c-.51.37-1,.72-1.56,1l-.41-.18c.5-.34,1-.71,1.47-1.09C31.34,41.23,31.5,41.31,31.66,41.39Zm0,0,.23.12.19.12c-.54.35-1.08.69-1.64,1l-.16-.1-.19-.1C30.66,42.12,31.19,41.78,31.7,41.41Zm.36,0-.24-.13c.51-.37,1-.77,1.49-1.18l.27.14.22.14c-.5.4-1,.79-1.55,1.15Zm1.78-1a2.47,2.47,0,0,1,.39.29c-.52.39-1.06.75-1.61,1.1a3.34,3.34,0,0,0-.34-.25Q33.09,41,33.84,40.44Zm.72.63.13-.09c.54-.38,1.06-.78,1.56-1.19a1.68,1.68,0,0,1,.2.34c-.51.4-1,.79-1.58,1.15a1.52,1.52,0,0,0-.17-.3l-.14.09a2.38,2.38,0,0,1,.18.3q-.83.54-1.68,1a1,1,0,0,0-.16-.26C33.47,41.8,34,41.45,34.56,41.07Zm.32.24c.55-.37,1.07-.75,1.58-1.15a1,1,0,0,1,.09.34q-.77.59-1.59,1.11A.84.84,0,0,0,34.88,41.31Zm3.06-3.07c.46-.46.9-1,1.32-1.44a2.18,2.18,0,0,1,.24.41c-.42.49-.87,1-1.34,1.41A2.17,2.17,0,0,0,37.94,38.24Zm1.42-1.57c.42-.5.82-1,1.2-1.55a2.09,2.09,0,0,1,.26.45c-.38.52-.78,1-1.21,1.52A1.86,1.86,0,0,0,39.36,36.67ZM40.65,35h0q.56-.79,1.05-1.65a2.45,2.45,0,0,1,.29.48c-.34.56-.69,1.1-1.07,1.62A2.68,2.68,0,0,0,40.65,35Zm.65-2.31c.32-.57.61-1.16.88-1.77a5.49,5.49,0,0,1,.48.5c-.28.6-.58,1.18-.91,1.75A3.3,3.3,0,0,0,41.3,32.67Zm1-1.92c.26-.6.51-1.22.73-1.84a3.94,3.94,0,0,1,.49.52,19.32,19.32,0,0,1-.75,1.82A5.3,5.3,0,0,0,42.25,30.75Zm0-2.55c.2-.64.38-1.28.54-1.93a7.09,7.09,0,0,1,.7.53c-.16.64-.35,1.28-.56,1.91A8,8,0,0,0,42.3,28.2Zm.58-2.09c.15-.65.28-1.31.38-2a7.3,7.3,0,0,1,.71.54c-.1.66-.23,1.32-.39,2A5.82,5.82,0,0,0,42.88,26.11Zm.4-2.15c.09-.66.16-1.33.2-2a7.7,7.7,0,0,1,.73.54q-.08,1-.21,2A7.49,7.49,0,0,0,43.28,24Zm.21-2.18c0-.4,0-.79,0-1.19s0-.57,0-.85a7.49,7.49,0,0,1,.72.54c0,.28,0,.57,0,.85s0,.8,0,1.19A7.49,7.49,0,0,0,43.49,21.78Zm0-2.21c0-.67-.08-1.33-.16-2a7.3,7.3,0,0,1,.71.54q.14,1,.18,2A6.6,6.6,0,0,0,43.5,19.57Zm-.07-.05L43,19.27,42.51,19c0-.68-.08-1.33-.16-2l.5.27.42.25h0C43.35,18.19,43.41,18.85,43.43,19.52Zm-.6-2.39-.5-.27c-.08-.65-.19-1.28-.32-1.89.17.09.33.17.49.27l.4.24c.14.62.26,1.26.35,1.9Zm-.37-2L42,14.81c-.14-.61-.3-1.21-.49-1.79a5.42,5.42,0,0,1,.48.26l.4.24c.19.59.36,1.19.51,1.81C42.74,15.24,42.6,15.16,42.46,15.08Zm-.54-1.95-.48-.26c-.19-.58-.41-1.15-.64-1.69l.46.25.38.23h0c.25.55.47,1.12.67,1.71Zm-.72-1.84L40.74,11h0c-.24-.55-.5-1.07-.78-1.58a3.75,3.75,0,0,1,.44.24l.36.22c.29.51.57,1.05.82,1.6ZM40.66,11c-.31-.16-.63-.31-1-.45-.23-.54-.47-1.06-.74-1.56.34.14.65.28.94.43C40.16,9.93,40.42,10.46,40.66,11ZM38.87,8.86A14.79,14.79,0,0,0,38,7.42c.32.13.61.27.89.41.32.47.63.95.91,1.46C39.52,9.14,39.21,9,38.87,8.86Zm-.08,0c-.34-.14-.69-.27-1.06-.4-.25-.49-.52-1-.8-1.41.35.12.68.24,1,.37C38.24,7.85,38.52,8.33,38.79,8.83ZM36.85,6.9a14.75,14.75,0,0,0-.91-1.28c.33.11.64.22.94.35a15.68,15.68,0,0,1,1,1.3C37.54,7.15,37.21,7,36.85,6.9Zm-.08,0c-.36-.11-.73-.23-1.11-.33a14.7,14.7,0,0,0-.84-1.27c.36.1.71.21,1,.32C36.18,6,36.48,6.42,36.77,6.87Zm-2-1.7q-.45-.58-.93-1.11c.33.09.65.19,1,.29a13.91,13.91,0,0,1,1,1.14C35.45,5.38,35.11,5.27,34.75,5.17Zm-1-1.2a13.21,13.21,0,0,0-1-1c.3.08.58.17.86.26a12.89,12.89,0,0,1,1.1,1C34.38,4.16,34.07,4.06,33.74,4Zm-.09,0c-.32-.1-.67-.18-1-.26l.07.08,1,.26a12.76,12.76,0,0,1,.92,1.12c-.36-.1-.74-.19-1.12-.28a13.81,13.81,0,0,0-.84-1.1l-.07-.08a10.23,10.23,0,0,0-.92-.94c.33.07.64.15.93.23A11.51,11.51,0,0,1,33.65,4Zm-1.11-.28-1.1-.23c-.26-.33-.53-.64-.8-.92q.51.09,1,.21A10.14,10.14,0,0,1,32.54,3.67Zm-2-1.22a8.76,8.76,0,0,0-.87-.76l.87.19a9,9,0,0,1,1,.77Zm0,0a10.35,10.35,0,0,1,.8.92l-1.17-.2a10.67,10.67,0,0,0-.69-.9l1.06.18Zm-.47.71L28.86,3a10.28,10.28,0,0,0-.56-.88l1.1.15A8.14,8.14,0,0,1,30.08,3.21ZM28.76,3c-.42,0-.84-.1-1.27-.13A7.05,7.05,0,0,0,27.05,2c.39,0,.77.07,1.15.12A10.28,10.28,0,0,1,28.76,3ZM27,2a6.55,6.55,0,0,0-.47-.7l1,.1a7.15,7.15,0,0,1,.6.72Zm-.09,0-1.18-.09a6.37,6.37,0,0,0-.33-.69l1,.08A6.55,6.55,0,0,1,26.92,2Zm-1.54-.83A4.68,4.68,0,0,0,25,.6l.89.07a4.26,4.26,0,0,1,.5.53Zm.26.74q-.59,0-1.2-.06a6.66,6.66,0,0,0-.19-.69l1.07,0A6.6,6.6,0,0,1,25.64,1.86Zm-1.3-.07-1.22,0c0-.25,0-.48,0-.68l1.08,0C24.22,1.31,24.29,1.54,24.34,1.79Zm-1.26,2H21.6c0-.36,0-.7.08-1h1.38C23.07,3.07,23.08,3.4,23.08,3.76ZM21.69,2.68c0-.31.06-.59.1-.85.41,0,.82,0,1.23,0,0,.26,0,.54,0,.85C22.6,2.67,22.15,2.67,21.69,2.68Zm.1-.91c0-.25.07-.48.11-.68H23c0,.2,0,.43,0,.68Zm-.1,0-1.23,0c.08-.26.17-.48.25-.69l1.09,0C21.77,1.29,21.73,1.52,21.69,1.77Zm-1.33,0-1.23.08a6.47,6.47,0,0,1,.4-.7l1.09-.06A6.49,6.49,0,0,0,20.36,1.81ZM19,1.89,17.82,2a8.76,8.76,0,0,1,.54-.71c.36,0,.72-.07,1.08-.09A6.29,6.29,0,0,0,19,1.89ZM17.72,2l-1.19.14a6.77,6.77,0,0,1,.69-.72l1.05-.13A7,7,0,0,0,17.72,2Zm-1.29.16-1.13.17a8.06,8.06,0,0,1,.82-.74l1-.16A8.16,8.16,0,0,0,16.43,2.17Zm-.06.06a8.82,8.82,0,0,0-.64.89l-1.26.2a9.89,9.89,0,0,1,.76-.91Zm-2,1.1-1.16.23a9.81,9.81,0,0,1,.88-.93l1.06-.2A9.89,9.89,0,0,0,14.36,3.33Zm-1.25.25c-.38.08-.73.16-1.07.25a12.79,12.79,0,0,1,1-1c.3-.08.63-.15,1-.22A9.81,9.81,0,0,0,13.11,3.58ZM12,3.85c-.33.09-.66.18-1,.28a14.06,14.06,0,0,1,1.08-1c.28-.09.57-.17.88-.25A11.15,11.15,0,0,0,12,3.85Zm-.08.09A12.84,12.84,0,0,0,11,5.05q-.56.13-1.05.3c.32-.4.65-.78,1-1.13C11.21,4.12,11.53,4,11.87,3.94Zm-2,1.43-.94.33A13.13,13.13,0,0,1,10,4.54l.86-.3C10.48,4.6,10.14,5,9.83,5.37Zm-.08.11a13.13,13.13,0,0,0-.9,1.27c-.36.11-.69.23-1,.35a15.57,15.57,0,0,1,1-1.3C9.1,5.69,9.41,5.58,9.75,5.48Zm-2,1.65c-.31.12-.61.25-.88.37a16.54,16.54,0,0,1,1-1.32c.26-.12.53-.24.83-.35C8.39,6.24,8.07,6.68,7.76,7.13Zm-.08.12c-.3.45-.58.93-.85,1.43-.33.12-.64.26-.94.39.29-.5.59-1,.91-1.45C7.07,7.49,7.37,7.37,7.68,7.25ZM5.82,9.11c-.29.13-.55.27-.8.41.3-.51.61-1,1-1.47a7.65,7.65,0,0,1,.76-.4C6.41,8.12,6.1,8.6,5.82,9.11Zm-.07.12A16.5,16.5,0,0,0,5,10.81c-.3.14-.58.29-.84.44.25-.55.52-1.08.81-1.6C5.19,9.51,5.46,9.37,5.75,9.23Zm-.83,1.71c-.23.55-.45,1.11-.63,1.69-.32.15-.61.3-.88.45.2-.58.42-1.15.67-1.7C4.33,11.23,4.62,11.09,4.92,10.94Zm-.68,1.83c-.19.59-.35,1.18-.49,1.79-.32.16-.62.31-.89.47.14-.61.31-1.21.5-1.8C3.63,13.08,3.92,12.92,4.24,12.77Zm-1.45,2.3c-.27.16-.52.33-.74.49.15-.62.33-1.22.53-1.81a7.49,7.49,0,0,1,.72-.48A18.48,18.48,0,0,0,2.79,15.07Zm0,.16c-.14.62-.25,1.25-.34,1.89a8.13,8.13,0,0,0-.75.5c.09-.65.21-1.28.35-1.9A8.63,8.63,0,0,1,2.75,15.23Zm-.36,2.06c-.09.64-.14,1.3-.18,2-.27.17-.53.34-.75.51,0-.67.09-1.34.17-2C1.86,17.62,2.11,17.45,2.39,17.29Zm-1,2.52h0a6.23,6.23,0,0,0-.59.52c0-.67.09-1.33.18-2a6.2,6.2,0,0,1,.59-.51Q1.44,18.81,1.4,19.81Zm0,.17c0,.28,0,.56,0,.85s0,.79,0,1.19a5.09,5.09,0,0,0-.59.52c0-.39,0-.79,0-1.19s0-.57,0-.85A5.09,5.09,0,0,1,1.39,20Zm0,2.21c0,.68.11,1.35.2,2a5,5,0,0,0-.58.52q-.15-1-.21-2A5.09,5.09,0,0,1,1.41,22.19Zm0,4.7a3.22,3.22,0,0,0-.41.52q-.24-1-.39-1.95A2.8,2.8,0,0,1,1,24.93C1.11,25.59,1.24,26.24,1.4,26.89Zm0,.16c.16.65.35,1.28.56,1.91a3,3,0,0,0-.39.5c-.22-.62-.41-1.25-.58-1.89A3.73,3.73,0,0,1,1.44,27.05Zm.62,2.06A19.56,19.56,0,0,0,2.79,31a3.19,3.19,0,0,0-.38.48c-.28-.59-.52-1.2-.75-1.81A3.56,3.56,0,0,1,2.06,29.11Zm1.3,4.25a1.62,1.62,0,0,0-.21.47c-.33-.56-.64-1.13-.92-1.71a2.18,2.18,0,0,1,.22-.5C2.73,32.22,3,32.79,3.36,33.36Zm.08.14q.5.84,1.05,1.65a1.89,1.89,0,0,0-.19.44c-.38-.53-.74-1.07-1.07-1.62A2.42,2.42,0,0,1,3.44,33.5Zm1.15,1.78c.38.53.78,1,1.2,1.54a1.51,1.51,0,0,0-.19.41c-.42-.48-.82-1-1.21-1.51A1.93,1.93,0,0,1,4.59,35.28ZM5.89,37c.42.49.87,1,1.33,1.43a2,2,0,0,0-.17.37c-.46-.44-.91-.91-1.34-1.4A1.76,1.76,0,0,1,5.89,37Zm2.87,3.32c.51.4,1,.78,1.58,1.14a.77.77,0,0,0,0,.3c-.55-.34-1.08-.71-1.59-1.1A1.32,1.32,0,0,1,8.76,40.27Zm1.72,1.23c.54.35,1.11.69,1.68,1a1.15,1.15,0,0,0,0,.26c-.57-.29-1.14-.61-1.68-1A.77.77,0,0,1,10.48,41.5Zm1.83,1.07a19.27,19.27,0,0,0,1.78.84.75.75,0,0,0,0,.21c-.61-.24-1.21-.51-1.79-.8A1.13,1.13,0,0,1,12.31,42.57Zm.34-.55-.14-.09c-.56-.34-1.11-.7-1.63-1.09l.31-.28c.52.4,1.05.78,1.59,1.13a2.18,2.18,0,0,0-.27.24l.14.09.27-.24c.54.35,1.1.67,1.67,1l-.22.19C13.78,42.67,13.21,42.35,12.65,42Zm.29-.26a3,3,0,0,1,.35-.23c.52.36,1.06.7,1.61,1l-.28.19C14.05,42.44,13.49,42.11,12.94,41.76Zm.38-.25a4.13,4.13,0,0,1,.42-.22c.5.38,1,.73,1.54,1.06a2.89,2.89,0,0,0-.35.19C14.38,42.22,13.84,41.87,13.32,41.51Zm2.09.93c.52.32,1.06.63,1.61.91a1.71,1.71,0,0,0-.27.14q-.86-.41-1.68-.87A1.83,1.83,0,0,1,15.41,42.44Zm0,0,.4-.17c.5.34,1,.66,1.51,1l-.31.13C16.5,43.06,16,42.75,15.44,42.42Zm.44-.18c.14-.06.3-.11.46-.16.45.35.92.68,1.4,1l-.36.12C16.87,42.9,16.37,42.58,15.88,42.24Zm.5-.17.51-.15c.42.36.85.71,1.28,1l-.4.11C17.3,42.75,16.83,42.42,16.38,42.07Zm.56-.16.57-.14c.37.38.75.73,1.14,1.06l-.44.11C17.78,42.62,17.35,42.27,16.94,41.91Zm.62-.15.62-.12c.32.39.65.75,1,1.09l-.48.09C18.3,42.49,17.93,42.14,17.56,41.76Zm.68-.13.67-.1-.07-.1-.68.11c-.32-.39-.63-.81-.94-1.24l.83-.13c.26.44.52.86.79,1.26l.07.1c.27.39.55.77.83,1.11l-.53.09C18.88,42.38,18.56,42,18.24,41.63Zm.73-.11.7-.08c.22.4.44.78.66,1.13l-.55.07C19.51,42.29,19.23,41.92,19,41.52Zm.76-.09.72-.06c.16.4.32.79.49,1.15l-.56,0C20.16,42.21,19.94,41.83,19.73,41.43Zm.78-.07.73,0c.1.41.2.8.31,1.16l-.57,0C20.82,42.15,20.67,41.77,20.51,41.36ZM21,39.91l.9,0c0,.46.08.9.12,1.31l-.74,0C21.18,40.8,21.09,40.37,21,39.91Zm1,0h.9c0,.46,0,.89,0,1.31h-.75C22.05,40.78,22,40.34,22,39.88Zm.86,2.58c0-.37,0-.76.05-1.17l.73,0c-.07.41-.15.8-.22,1.16Zm.84-1.15.71,0c-.13.4-.26.79-.39,1.15l-.55,0Zm.77,0,.69,0c-.18.41-.36.79-.55,1.15l-.55,0C24.17,42.14,24.31,41.76,24.44,41.35Zm.75.06h0l.68.07c-.24.4-.48.77-.72,1.12l-.53-.05C24.81,42.19,25,41.81,25.19,41.41Zm.73.08.66.08c-.29.4-.59.76-.88,1.11l-.51-.07C25.44,42.26,25.68,41.88,25.92,41.49Zm.06-.1c.24-.41.48-.83.71-1.27h0l.8.11c-.28.44-.56.85-.84,1.25C26.43,41.44,26.21,41.41,26,41.39Zm1.57-1.15.77.13c-.32.43-.65.84-1,1.22l-.63-.11C27,41.09,27.28,40.67,27.55,40.24Zm.83.14.72.15c-.36.42-.74.82-1.12,1.2l-.59-.13C27.72,41.22,28.06,40.81,28.38,40.38ZM28,41.74c.39-.38.76-.78,1.13-1.2l.67.17c-.4.41-.82.8-1.24,1.17Zm.45.23c-.42.36-.86.7-1.3,1l-.43-.11c.4-.33.8-.68,1.18-1.05Zm1.41-1.24.62.19c-.44.4-.9.77-1.36,1.13l-.52-.16C29.06,41.52,29.48,41.14,29.89,40.73Zm.67.2.56.21c-.48.39-1,.75-1.47,1.09l-.46-.17C29.66,41.71,30.11,41.33,30.56,40.93ZM30,42.52c-.53.32-1.08.62-1.63.89L28,43.27c.52-.29,1-.6,1.54-.94A3.71,3.71,0,0,1,30,42.52Zm.4.22.27.21c-.58.29-1.18.55-1.78.8a1.16,1.16,0,0,0-.21-.16C29.22,43.33,29.8,43.05,30.36,42.74Zm.14-.07c.56-.31,1.11-.65,1.65-1a2.85,2.85,0,0,1,.33.25c-.56.34-1.12.66-1.7.95A1.55,1.55,0,0,0,30.5,42.67Zm.64.67c.61-.26,1.2-.54,1.78-.85a1.14,1.14,0,0,1,.06.25,19.21,19.21,0,0,1-1.79.81A.54.54,0,0,0,31.14,43.34Zm.06.23A19,19,0,0,0,33,42.76.69.69,0,0,1,33,43c-.58.28-1.17.54-1.78.77A1.49,1.49,0,0,0,31.2,43.57Zm1.91-.63a.71.71,0,0,0,0-.25c.58-.3,1.15-.62,1.69-1a1,1,0,0,1,0,.3C34.25,42.35,33.69,42.66,33.11,42.94ZM35,41.63c.55-.34,1.08-.71,1.59-1.1a1,1,0,0,1,0,.34c-.51.37-1,.73-1.58,1.07A1.06,1.06,0,0,0,35,41.63Zm3.22-3c.46-.46.91-.93,1.34-1.41a1.29,1.29,0,0,1,.1.42c-.43.47-.88.93-1.35,1.37A1.24,1.24,0,0,0,38.18,38.66Zm1.45-1.54c.42-.48.83-1,1.21-1.52a1.48,1.48,0,0,1,.11.45c-.38.52-.79,1-1.22,1.49A1.7,1.7,0,0,0,39.63,37.12Zm1.3-1.65c.38-.52.74-1.07,1.07-1.62a1.41,1.41,0,0,1,.12.48c-.33.54-.69,1.08-1.07,1.59A1.5,1.5,0,0,0,40.93,35.47Zm.85-2.28c.33-.57.63-1.15.91-1.75A3.39,3.39,0,0,1,43,32c-.28.58-.59,1.16-.92,1.72A2,2,0,0,0,41.78,33.19Zm1-1.89c.27-.6.52-1.21.74-1.83a2.63,2.63,0,0,1,.31.52c-.22.62-.48,1.22-.75,1.81A2.88,2.88,0,0,0,42.76,31.3Zm.8-2c.22-.62.41-1.26.58-1.9a3.06,3.06,0,0,1,.32.54c-.17.64-.37,1.26-.59,1.88A2.85,2.85,0,0,0,43.56,29.32Zm.54-1.94c-.16.64-.36,1.27-.58,1.89a3.9,3.9,0,0,0-.49-.52c.21-.62.4-1.26.56-1.91a.94.94,0,0,0,0-.16c.16-.65.29-1.3.39-2a3.72,3.72,0,0,1,.52.54c-.1.66-.24,1.31-.4,2a4.22,4.22,0,0,0-.51-.54.94.94,0,0,1,0,.16A4.22,4.22,0,0,1,44.1,27.38Zm-.05-2.83q.15-1,.21-2a3.79,3.79,0,0,1,.52.55c0,.67-.11,1.34-.21,2A5.2,5.2,0,0,0,44.05,24.55Zm.22-2.18c0-.4,0-.79,0-1.19s0-.57,0-.85a4.38,4.38,0,0,1,.52.55c0,.28,0,.57,0,.85s0,.8,0,1.19A3.79,3.79,0,0,0,44.27,22.37ZM44,18a5.2,5.2,0,0,0-.72-.54c-.08-.65-.2-1.28-.34-1.9a6,6,0,0,1,.71.53C43.82,16.68,43.94,17.32,44,18Zm-1.1-2.6a17.9,17.9,0,0,0-.51-1.81,5.64,5.64,0,0,1,.69.52c.2.59.38,1.2.53,1.82A7.29,7.29,0,0,0,42.93,15.37Zm-.56-2c-.2-.58-.42-1.15-.67-1.71a6.3,6.3,0,0,1,.66.5c.26.56.49,1.14.7,1.73A5.64,5.64,0,0,0,42.37,13.41Zm-.73-1.85a17.18,17.18,0,0,0-.82-1.6,4.69,4.69,0,0,1,.63.47c.3.52.59,1.07.85,1.63A6.3,6.3,0,0,0,41.64,11.56Zm-.9-1.73q-.45-.78-1-1.5a6,6,0,0,1,.59.45,17.32,17.32,0,0,1,1,1.52A4.69,4.69,0,0,0,40.74,9.83Zm-.06,0a3.13,3.13,0,0,0-.36-.22l-.43-.24c-.29-.51-.6-1-.92-1.47l.41.23.34.21A13.52,13.52,0,0,1,40.68,9.79ZM39.3,8l-.41-.23c-.33-.46-.68-.91-1-1.33a2.42,2.42,0,0,1,.39.21,3.37,3.37,0,0,1,.32.19c.38.44.74.89,1.09,1.37Zm-.48-.26c-.28-.14-.57-.27-.89-.4A14.41,14.41,0,0,0,37,6c.3.12.57.24.83.37C38.14,6.8,38.49,7.24,38.82,7.71Zm-2-1.82c-.35-.41-.72-.8-1.1-1.17.27.11.52.22.76.34a16.66,16.66,0,0,1,1.16,1.21C37.43,6.14,37.16,6,36.87,5.89Zm-.08,0c-.29-.12-.6-.23-.93-.34a14.07,14.07,0,0,0-1-1.15c.3.1.58.21.85.32A15.09,15.09,0,0,1,36.79,5.86Zm-2-1.58a13,13,0,0,0-1.12-1c.28.09.53.18.78.28a14.39,14.39,0,0,1,1.19,1ZM33.55,3.21a11.81,11.81,0,0,0-1.2-.84l.68.25c.44.27.87.56,1.28.87C34.07,3.39,33.82,3.3,33.55,3.21Zm-.07,0c-.27-.09-.55-.18-.85-.26a9.42,9.42,0,0,0-1.1-.81l.76.23A11.69,11.69,0,0,1,33.48,3.19Zm-.92-.28c-.3-.09-.61-.16-.93-.24a10.47,10.47,0,0,0-1-.78l.82.21A10.24,10.24,0,0,1,32.56,2.91Zm-2-1.08a8.56,8.56,0,0,0-1.06-.61c.25.05.48.11.71.18A9.42,9.42,0,0,1,31.37,2Zm-.07,0q-.42-.11-.87-.18a6.6,6.6,0,0,0-.93-.59l.75.15A9.32,9.32,0,0,1,30.49,1.82Zm0,.61-1.05-.17a6.46,6.46,0,0,0-.74-.74l.93.16A8.55,8.55,0,0,1,30.48,2.43Zm-1.14-.19-1.09-.15a7.33,7.33,0,0,0-.62-.71l1,.13A7.19,7.19,0,0,1,29.34,2.24Zm-1.76-.92a4.54,4.54,0,0,0-.65-.54l.83.11a5.89,5.89,0,0,1,.78.56Zm-.08,0-1-.1A4.33,4.33,0,0,0,26,.68c.29,0,.58,0,.86.09A4.54,4.54,0,0,1,27.5,1.31ZM25.94.64a2.43,2.43,0,0,0-.53-.35l.71.07a4.11,4.11,0,0,1,.68.37Zm-.07,0L25,.56a1.63,1.63,0,0,0-.38-.33l.73.05A2.85,2.85,0,0,1,25.87.63Zm-.58.48-1.05-.05A4.42,4.42,0,0,0,24,.55l.91,0A3,3,0,0,1,25.29,1.11Zm-1.14-.05L23.08,1c0-.19,0-.36,0-.5l.93,0C24,.69,24.08.86,24.15,1.06ZM23,.49A2,2,0,0,0,23,.17h.76a1.89,1.89,0,0,1,.21.33ZM23,1H21.91A4,4,0,0,1,22,.53c.31,0,.62,0,.93,0C23,.67,23,.84,23,1ZM21.81,1l-1.08,0A4.73,4.73,0,0,1,21,.56l.94,0A3.75,3.75,0,0,0,21.81,1ZM21,.53,20,.58a2.26,2.26,0,0,1,.44-.34l.77,0A1.37,1.37,0,0,0,21,.53Zm0,0a4.89,4.89,0,0,0-.28.52c-.36,0-.72,0-1.07.06A3.18,3.18,0,0,1,20,.62Zm-1.44.59c-.36,0-.72.05-1.07.09A4.72,4.72,0,0,1,19,.71c.3,0,.61-.06.92-.09A4,4,0,0,0,19.48,1.15Zm-1.16.1-1,.12A5.37,5.37,0,0,1,18,.82l.9-.11A4.89,4.89,0,0,0,18.32,1.25Zm-1.13.14c-.35,0-.68.1-1,.15A6.58,6.58,0,0,1,17.07,1l.86-.14A6.26,6.26,0,0,0,17.19,1.39Zm-1.08.16-.92.18a7.46,7.46,0,0,1,1-.6L17,1A7,7,0,0,0,16.11,1.55ZM16,1.61a7.29,7.29,0,0,0-.84.75l-1,.2a8.64,8.64,0,0,1,.95-.77Zm-2,1-1,.22A11.33,11.33,0,0,1,14.18,2L15,1.8A9.93,9.93,0,0,0,14.07,2.58Zm-1,.24c-.31.08-.6.16-.87.25a10.74,10.74,0,0,1,1.17-.83L14.11,2A10.27,10.27,0,0,0,13,2.82Zm-.94.27-.77.27a12.16,12.16,0,0,1,1.26-.86l.69-.24A11.94,11.94,0,0,0,12.1,3.09Zm-.1.08a14.17,14.17,0,0,0-1.09,1l-.86.3c.38-.36.77-.7,1.17-1Q11.6,3.29,12,3.17ZM10,4.48c-.26.1-.51.2-.75.31a15.31,15.31,0,0,1,1.25-1c.21-.1.44-.2.68-.29A14.13,14.13,0,0,0,10,4.48Zm-.09.09A15,15,0,0,0,8.81,5.73c-.29.11-.56.23-.82.34.36-.41.75-.81,1.14-1.18C9.37,4.78,9.62,4.67,9.89,4.57Zm-2,1.53c-.25.12-.49.25-.7.37C7.61,6,8,5.64,8.43,5.25c.19-.11.41-.23.64-.34C8.67,5.29,8.29,5.69,7.93,6.1Zm-.09.11a15.17,15.17,0,0,0-1,1.33c-.27.12-.52.26-.76.39q.51-.7,1.08-1.35h0A7.81,7.81,0,0,1,7.84,6.21ZM6,8a6.67,6.67,0,0,0-.62.41C5.73,7.9,6.11,7.44,6.5,7c.17-.13.37-.25.58-.38Q6.51,7.26,6,8ZM4,11.42c-.24.55-.47,1.12-.66,1.7a7.49,7.49,0,0,0-.72.48c.2-.59.44-1.16.69-1.72C3.53,11.73,3.76,11.57,4,11.42ZM2.58,13.64a5.6,5.6,0,0,0-.56.49L2,14.28a7,7,0,0,1,.56-.49c-.2.59-.37,1.2-.52,1.81a6,6,0,0,0-.58.51q.24-.93.54-1.83L2,14.13c.21-.59.45-1.17.71-1.73a4.36,4.36,0,0,1,.54-.48A17.14,17.14,0,0,0,2.58,13.64ZM2,15.76c-.15.62-.27,1.26-.36,1.9a6.23,6.23,0,0,0-.59.52c.1-.65.22-1.29.37-1.91A6,6,0,0,1,2,15.76ZM1,18.22a4.48,4.48,0,0,0-.41.53c.1-.65.22-1.29.37-1.92a3.73,3.73,0,0,1,.41-.52C1.19,16.94,1.07,17.58,1,18.22Zm0,.17c-.09.65-.15,1.31-.18,2a2.87,2.87,0,0,0-.42.53,18.62,18.62,0,0,1,.19-2A3.28,3.28,0,0,1,1,18.39ZM.76,20.55c0,.28,0,.56,0,.85s0,.79,0,1.18a3.3,3.3,0,0,0-.42.54c0-.39,0-.79,0-1.19s0-.57,0-.85A2.87,2.87,0,0,1,.76,20.55Zm0,2.2c0,.68.11,1.35.2,2a3.79,3.79,0,0,0-.41.53c-.1-.66-.17-1.33-.21-2A3.3,3.3,0,0,1,.78,22.75ZM1,27.45A2.24,2.24,0,0,0,.73,28C.57,27.35.44,26.7.33,26a2.13,2.13,0,0,1,.24-.54C.67,26.16.81,26.81,1,27.45Zm0,.17c.16.63.35,1.26.57,1.88a2.36,2.36,0,0,0-.23.52c-.22-.62-.41-1.24-.58-1.88A2,2,0,0,1,1,27.62Zm.63,2c.22.62.47,1.22.74,1.82a2.38,2.38,0,0,0-.22.49q-.41-.88-.75-1.8A2.3,2.3,0,0,1,1.64,29.66Zm2.74,6.1c.39.52.79,1,1.21,1.51a1.43,1.43,0,0,0,0,.41A19,19,0,0,1,4.34,36.2,1.29,1.29,0,0,1,4.38,35.76ZM5.7,37.39c.43.48.88,1,1.34,1.4a1.58,1.58,0,0,0,0,.38c-.46-.44-.92-.89-1.34-1.37A1.46,1.46,0,0,1,5.7,37.39Zm1.42,1.92q.72.64,1.47,1.23a1.47,1.47,0,0,0,.08.35c-.5-.38-1-.78-1.46-1.2A1.31,1.31,0,0,1,7.12,39.31Zm1.6,1.33c.51.39,1,.75,1.59,1.1a1.09,1.09,0,0,0,.07.3c-.55-.33-1.07-.69-1.58-1.06A1.4,1.4,0,0,1,8.72,40.64Zm1.73,1.18c.54.34,1.11.66,1.69,1a.62.62,0,0,0,.06.26c-.58-.28-1.14-.58-1.69-.91A1.07,1.07,0,0,1,10.45,41.82Zm1.83,1c.58.29,1.18.55,1.79.79a.54.54,0,0,0,0,.21,18.59,18.59,0,0,1-1.78-.75A1.29,1.29,0,0,1,12.28,42.85Zm1.94.85c.61.24,1.24.45,1.87.63a.75.75,0,0,0,0,.16c-.63-.17-1.25-.36-1.86-.58A.8.8,0,0,1,14.22,43.7Zm4,1.13c-.66-.13-1.31-.28-1.95-.47a.77.77,0,0,1,0-.15q1,.3,1.95.51A.36.36,0,0,0,18.2,44.83ZM14.52,43a2.19,2.19,0,0,1,.22-.2c.57.3,1.16.58,1.76.83a.86.86,0,0,0-.17.15C15.71,43.57,15.11,43.31,14.52,43Zm.24-.21a2,2,0,0,1,.28-.19c.55.31,1.12.6,1.69.87l-.22.15C15.92,43.39,15.33,43.12,14.76,42.82Zm2.14.74a1.59,1.59,0,0,1,.26-.14,16.68,16.68,0,0,0,1.67.75l-.18.09C18.05,44.05,17.47,43.82,16.9,43.56Zm.28-.15a2.08,2.08,0,0,1,.3-.13c.52.29,1,.55,1.58.79l-.21.09A16.68,16.68,0,0,1,17.18,43.41Zm.33-.14.35-.12c.48.3,1,.58,1.46.83l-.24.09C18.55,43.83,18,43.56,17.51,43.27Zm.38-.13.39-.11c.44.31.88.6,1.33.87l-.27.08C18.85,43.72,18.36,43.44,17.89,43.14Zm.43-.12.43-.1c.39.32.78.62,1.18.9l-.3.07C19.19,43.63,18.75,43.33,18.32,43Zm.47-.11.47-.09a12.72,12.72,0,0,0,1,.93l-.33.07A14.16,14.16,0,0,1,18.79,42.91Zm.51-.1.51-.08a11.66,11.66,0,0,0,.86,1l-.35.06A12.75,12.75,0,0,1,19.3,42.81Zm.55-.08.54-.07c.22.35.45.68.68,1l-.37,0C20.41,43.39,20.13,43.07,19.85,42.73Zm.58-.07.55,0c.16.36.33.69.5,1l-.37,0C20.88,43.34,20.65,43,20.43,42.66Zm.6,0,.55,0c.1.36.21.7.32,1l-.38,0C21.35,43.3,21.19,43,21,42.61Zm.27-1.29.73,0c0,.42.09.81.14,1.17l-.57,0C21.5,42.11,21.4,41.73,21.3,41.32Zm.79,0h.73c0,.41,0,.8,0,1.17h-.57C22.17,42.09,22.13,41.71,22.09,41.29Zm.69,1.26c0,.36,0,.7-.05,1h-.38c-.05-.32-.09-.65-.13-1Zm0,0h.55c-.08.37-.15.7-.23,1h-.38Q22.79,43.09,22.82,42.55Zm.6,0,.54,0c-.14.36-.27.7-.41,1l-.38,0C23.26,43.26,23.34,42.93,23.42,42.57Zm.58,0,.53,0c-.19.35-.39.68-.58,1l-.37,0C23.72,43.29,23.86,43,24,42.6Zm.57,0,.51,0a11,11,0,0,1-.75,1l-.35,0C24.18,43.32,24.38,43,24.57,42.64Zm.56.06h0l.49.07c-.3.34-.61.65-.91.95l-.35,0C24.62,43.37,24.88,43.05,25.13,42.7Zm.53.07.47.08.09-.08-.48-.08c.3-.35.6-.72.89-1.11l.62.11c-.34.38-.68.74-1,1.08l-.09.08c-.35.34-.71.64-1.07.93l-.33-.06A12,12,0,0,0,25.66,42.77Zm.51.09.09-.08c.35-.34.7-.7,1-1.08l.59.12q-.59.55-1.17,1c-.15,0-.3-.07-.46-.09l-.09.08.45.09c-.41.32-.81.62-1.22.9l-.31-.07C25.45,43.5,25.82,43.19,26.17,42.86Zm.48.1.42.1a15.41,15.41,0,0,1-1.36.86l-.29-.07A14.72,14.72,0,0,0,26.65,43Zm.45.11.38.12c-.48.3-1,.57-1.48.82l-.27-.08C26.2,43.67,26.65,43.38,27.1,43.07Zm.11-.07q.67-.48,1.32-1l.5.16c-.47.34-.94.67-1.43,1Zm1.86-.85.46.17c-.51.33-1,.65-1.54.94l-.35-.13C28.12,42.82,28.6,42.5,29.07,42.15Zm-.88,1.33c-.56.27-1.13.51-1.7.73l-.21-.09c.54-.24,1.08-.5,1.6-.78Zm.67.28c.61-.24,1.21-.51,1.79-.8a1.2,1.2,0,0,1,.19.21q-.89.4-1.83.75A.75.75,0,0,0,28.86,43.76Zm-1.8,1c.66-.13,1.31-.29,2-.47a.77.77,0,0,1,0,.15l.16,0a.44.44,0,0,0,0-.16c.63-.19,1.26-.41,1.87-.65a.5.5,0,0,1,0,.21c-.61.22-1.23.42-1.87.6l-.16,0c-.63.17-1.28.31-1.94.43C27.05,44.87,27.06,44.84,27.06,44.8Zm4-.78c.6-.21,1.19-.45,1.76-.71a1.88,1.88,0,0,1-.18.24c-.57.25-1.15.47-1.74.67A.74.74,0,0,0,31.08,44ZM33,43.24c.57-.27,1.13-.56,1.67-.88a1.48,1.48,0,0,1-.22.29c-.53.3-1.08.58-1.64.84C32.87,43.4,32.94,43.32,33,43.24Zm1.8-1c.54-.32,1.06-.66,1.57-1a2.39,2.39,0,0,1-.25.33c-.5.35-1,.68-1.54,1A1.48,1.48,0,0,0,34.79,42.28Zm0,0a1.25,1.25,0,0,0,.12-.3c.55-.33,1.07-.69,1.59-1.07a1.43,1.43,0,0,1-.14.34C35.87,41.59,35.35,41.94,34.81,42.26Zm1.84-1.46c.5-.38,1-.79,1.47-1.21A2.05,2.05,0,0,1,38,40c-.47.41-1,.8-1.46,1.17A1.42,1.42,0,0,0,36.65,40.8Zm1.59-1.32c.46-.42.91-.87,1.34-1.33a1.43,1.43,0,0,1-.17.41c-.42.45-.87.89-1.33,1.3A1.8,1.8,0,0,0,38.24,39.48Zm0,0a1.58,1.58,0,0,0,0-.38c.47-.44.92-.89,1.35-1.37a1.39,1.39,0,0,1,0,.41A19,19,0,0,1,38.24,39.45Zm1.5-1.87c.42-.48.83-1,1.21-1.49a1.71,1.71,0,0,1,0,.45c-.39.5-.79,1-1.22,1.46A1.5,1.5,0,0,0,39.74,37.58Zm2.35-3.87c.33-.56.63-1.13.91-1.72a1.85,1.85,0,0,1,.13.5c-.28.58-.59,1.15-.92,1.7A2.11,2.11,0,0,0,42.09,33.71Zm1-1.87c.28-.59.53-1.19.76-1.8a1.66,1.66,0,0,1,.13.52c-.23.61-.48,1.2-.76,1.79A1.91,1.91,0,0,0,43.07,31.84Zm.82-2c.22-.61.42-1.24.58-1.87a1.81,1.81,0,0,1,.14.53c-.17.64-.37,1.26-.59,1.87A2.05,2.05,0,0,0,43.89,29.88Zm.29-2.62c.16-.64.29-1.29.4-2a2.38,2.38,0,0,1,.32.55c-.1.65-.24,1.3-.4,1.94A3.06,3.06,0,0,0,44.18,27.26Zm1-6a2.67,2.67,0,0,0-.33-.55c0-.68-.09-1.34-.18-2a2.43,2.43,0,0,1,.33.55C45.08,20,45.14,20.64,45.17,21.31ZM45,19.15a3,3,0,0,0-.33-.55c-.1-.65-.22-1.29-.37-1.92a2.07,2.07,0,0,1,.32.55C44.75,17.86,44.87,18.5,45,19.15Zm-1-3.94c.21.61.4,1.23.55,1.86a2.19,2.19,0,0,0-.32-.54,18.58,18.58,0,0,0-.54-1.84A2.38,2.38,0,0,1,44,15.21Zm-.4-.72a3.9,3.9,0,0,0-.49-.52.88.88,0,0,0,0,.15,4.81,4.81,0,0,1,.5.52c.2.6.38,1.21.54,1.84a4.22,4.22,0,0,0-.51-.54c-.15-.62-.33-1.23-.53-1.82a.88.88,0,0,1,0-.15c-.21-.59-.44-1.17-.7-1.73a3.7,3.7,0,0,1,.48.5C43.15,13.31,43.39,13.9,43.6,14.49Zm-.78-1.89a3.63,3.63,0,0,0-.47-.5c-.26-.56-.55-1.1-.86-1.63A3.4,3.4,0,0,1,42,11,16.18,16.18,0,0,1,42.82,12.6Zm-2-3.33h0c.36.5.7,1,1,1.54a3.91,3.91,0,0,0-.45-.47c-.31-.53-.65-1-1-1.52A3.57,3.57,0,0,1,40.85,9.27Zm-.56-.61c-.18-.15-.37-.3-.59-.45-.35-.47-.72-.93-1.1-1.37a5.26,5.26,0,0,1,.55.42C39.55,7.71,39.93,8.17,40.29,8.66Zm-2.5-2.78a16.78,16.78,0,0,1,1.26,1.27,5.26,5.26,0,0,0-.55-.42c-.39-.43-.79-.84-1.22-1.23A4.23,4.23,0,0,1,37.79,5.88Zm-.85-.59.29.17c.43.39.83.81,1.22,1.24l-.32-.19-.38-.21c-.37-.42-.76-.83-1.16-1.21ZM36.43,5l-.75-.35q-.59-.54-1.2-1c.24.1.47.2.68.31A15.84,15.84,0,0,1,36.43,5Zm-2.75-2a15.49,15.49,0,0,1,1.37.91c-.21-.11-.44-.21-.68-.31a12.74,12.74,0,0,0-1.29-.88C33.29,2.73,33.5,2.82,33.68,2.92ZM31.54,1.84a15,15,0,0,1,1.38.71l-.68-.25A12,12,0,0,0,31,1.63C31.16,1.69,31.36,1.77,31.54,1.84Zm-.63-.23a12.84,12.84,0,0,1,1.27.67l-.74-.22a10.39,10.39,0,0,0-1.18-.65C30.49,1.47,30.7,1.54,30.91,1.61Zm-2-.73a10.9,10.9,0,0,1,1.24.47l-.7-.18A8.84,8.84,0,0,0,28.3.73ZM27.63.59l.62.13a9.34,9.34,0,0,1,1.1.44c-.24,0-.49-.11-.74-.15A6.42,6.42,0,0,0,27.63.59Zm1,.45a5.92,5.92,0,0,1,.92.58c-.29-.05-.6-.11-.92-.15A5.25,5.25,0,0,0,27.83.9ZM26.86.46a4.47,4.47,0,0,1,.83.39L26.87.74a3.87,3.87,0,0,0-.69-.37ZM25.34.16a2.92,2.92,0,0,1,.72.18l-.7-.07A2,2,0,0,0,24.79.1ZM24.75.1a1.91,1.91,0,0,1,.55.16L24.58.21a1.34,1.34,0,0,0-.4-.16Zm-.62,0a1,1,0,0,1,.39.15c-.25,0-.49,0-.74,0l0,0c.25,0,.5,0,.75,0a2.29,2.29,0,0,1,.37.34L24,.52A1.57,1.57,0,0,0,23.8.19l0,0A.46.46,0,0,0,23.55,0ZM23.5,0a.48.48,0,0,1,.22.14H23c0-.08,0-.13-.06-.14ZM22.27,0h.59s0,.06,0,.14h-.75A.29.29,0,0,1,22.27,0Zm-.13.16c.26,0,.51,0,.77,0,0,.08,0,.18,0,.32H22A2,2,0,0,1,22.14.17Zm-.06,0A1.33,1.33,0,0,0,22,.5L21,.52a2.44,2.44,0,0,1,.29-.33ZM21,.07l.6,0a.69.69,0,0,0-.31.15l-.76,0A1.43,1.43,0,0,1,21,.07Zm-.63,0,.58,0a1.3,1.3,0,0,0-.48.16c-.25,0-.5,0-.74.06A2.88,2.88,0,0,1,20.35.12Zm-.7.19.76-.06A2,2,0,0,0,20,.59L19,.67A3,3,0,0,1,19.65.31Zm-.06,0A3.38,3.38,0,0,0,19,.68l-.89.1a4,4,0,0,1,.78-.37Zm-.81.1A4.26,4.26,0,0,0,18,.79l-.85.13a5.64,5.64,0,0,1,.92-.39ZM17.36.66,18,.54a5.53,5.53,0,0,0-.94.4c-.28,0-.54.09-.79.15A8.85,8.85,0,0,1,17.36.66Zm-1.22.48a9.94,9.94,0,0,0-1,.61l-.84.2a9.1,9.1,0,0,1,1.14-.63Zm-.79.19A12.83,12.83,0,0,0,14.2,2l-.76.22a11.45,11.45,0,0,1,1.25-.66Zm-1.3.41c.18-.07.38-.14.59-.2a10.81,10.81,0,0,0-1.26.66c-.24.08-.47.15-.68.24A12.29,12.29,0,0,1,14.05,1.74Zm-2.12,1c.19-.09.39-.18.6-.26a14.91,14.91,0,0,0-1.27.86l-.67.29A14.82,14.82,0,0,1,11.93,2.78ZM9.84,4.08c.18-.1.38-.21.59-.31-.44.33-.85.68-1.26,1.05-.23.11-.44.22-.64.34A16.67,16.67,0,0,1,9.84,4.08Zm-2,1.55a4.87,4.87,0,0,1,.53-.35c-.42.39-.82.79-1.21,1.22-.21.13-.4.25-.57.38C7,6.45,7.41,6,7.85,5.63ZM6,7.43A4.55,4.55,0,0,1,6.46,7c-.4.44-.77.9-1.13,1.38a4.06,4.06,0,0,0-.48.43C5.21,8.35,5.6,7.88,6,7.43ZM4.76,9a4.06,4.06,0,0,1,.48-.43q-.53.72-1,1.5a4.6,4.6,0,0,0-.51.46Q4.22,9.7,4.76,9Zm-1.1,1.66a4,4,0,0,1,.52-.46c-.31.53-.59,1.07-.85,1.62a6.5,6.5,0,0,0-.54.47C3.06,11.69,3.35,11.15,3.66,10.62ZM2.31,12.93a2.81,2.81,0,0,1,.38-.49c-.26.56-.5,1.14-.71,1.73a3.56,3.56,0,0,0-.4.51C1.8,14.08,2,13.5,2.31,12.93Zm-.78,1.9a4.33,4.33,0,0,1,.39-.51q-.3.9-.54,1.83a3.79,3.79,0,0,0-.41.53C1.13,16.05,1.32,15.43,1.53,14.83ZM.67,17.41a1.93,1.93,0,0,1,.24-.53c-.16.63-.28,1.27-.38,1.92a2.13,2.13,0,0,0-.24.54C.39,18.69.52,18,.67,17.41Zm-.4,2.1A2,2,0,0,1,.51,19c-.09.66-.16,1.32-.19,2a2.13,2.13,0,0,0-.24.54C.11,20.83.18,20.16.27,19.51Zm-.22,3c0-.28,0-.57,0-.85a2.55,2.55,0,0,1,.24-.54c0,.28,0,.56,0,.85a11.55,11.55,0,0,0,0,1.18,2.68,2.68,0,0,0-.25.55C.06,23.32.05,22.92.05,22.52Zm0,1.36a3.28,3.28,0,0,1,.24-.55q.06,1,.21,2a3.19,3.19,0,0,0-.24.54C.21,25.22.13,24.55.09,23.88Zm.17,2.75a1.66,1.66,0,0,1,.06-.54c.1.65.24,1.3.4,1.94a1.63,1.63,0,0,0-.06.53C.5,27.93.36,27.29.26,26.63ZM.7,28.72a1.92,1.92,0,0,1,.06-.53c.17.63.36,1.26.58,1.87a1.84,1.84,0,0,0-.05.52C1.07,30,.87,29.35.7,28.72Zm.64,2a1.51,1.51,0,0,1,.06-.52c.22.61.48,1.21.75,1.79a1.73,1.73,0,0,0,0,.5C1.82,31.93,1.57,31.34,1.34,30.74Zm1,2.46a1.46,1.46,0,0,1-.12-.5c.28.58.59,1.14.92,1.69a1.67,1.67,0,0,0,.11.48A18,18,0,0,1,2.29,33.2Zm1,1.8a1.67,1.67,0,0,1-.11-.48c.34.55.69,1.08,1.07,1.59a1.82,1.82,0,0,0,.1.45C4,36.06,3.61,35.54,3.28,35Zm1.16,1.69a1.46,1.46,0,0,1-.1-.45c.38.51.79,1,1.21,1.48a1.29,1.29,0,0,0,.1.42C5.22,37.67,4.82,37.19,4.44,36.69Zm1.56,2a1.75,1.75,0,0,1-.23-.42,18.56,18.56,0,0,0,1.34,1.32,1.86,1.86,0,0,0,.21.39Q6.63,39.39,6,38.71ZM7.44,40.1a2.08,2.08,0,0,1-.22-.38c.47.42,1,.82,1.46,1.19a2.08,2.08,0,0,0,.2.35C8.38,40.89,7.9,40.51,7.44,40.1ZM9,41.35a1.51,1.51,0,0,1-.2-.34c.51.37,1,.72,1.58,1.05a1.94,1.94,0,0,0,.17.31C10,42.05,9.51,41.71,9,41.35Zm1.68,1.09a1.69,1.69,0,0,1-.17-.29q.83.48,1.68.9a1.74,1.74,0,0,0,.15.26C11.78,43,11.23,42.76,10.69,42.44Zm1.8.93a.89.89,0,0,1-.14-.25c.58.28,1.17.52,1.77.75a1.13,1.13,0,0,0,.12.21C13.65,43.87,13.06,43.63,12.49,43.37Zm1.9.76a.71.71,0,0,1-.11-.21c.6.22,1.22.42,1.86.59a.89.89,0,0,0,.09.16C15.6,44.51,15,44.34,14.39,44.13Zm2,.57a.6.6,0,0,1-.09-.15c.63.16,1.28.3,1.93.4l.06.11C17.65,45,17,44.85,16.39,44.7Zm4,.56c-.67,0-1.32-.09-2-.18a.27.27,0,0,1-.06-.1c.66.1,1.32.18,2,.22Zm-2-.29a.36.36,0,0,1,0-.1c.66.12,1.34.21,2,.27a.13.13,0,0,0,0,.06C19.72,45.15,19.05,45.07,18.39,45Zm2,.17c-.68-.07-1.36-.16-2-.28a.41.41,0,0,1,0-.11q1,.21,2,.33Zm0-.06h0c-.68-.08-1.35-.2-2-.33a.54.54,0,0,1,.05-.11c.65.16,1.32.28,2,.38Zm0-.06c-.67-.1-1.33-.23-2-.39l.08-.1c.64.18,1.29.32,1.95.44Zm0-.06c-.66-.12-1.31-.26-1.95-.43l-.16-.05c-.64-.18-1.26-.38-1.88-.61a1.29,1.29,0,0,1,.17-.15q.9.38,1.83.66a.63.63,0,0,0-.12.1l.16,0,.11-.09q.93.28,1.89.48Zm.06-.05c-.64-.14-1.27-.3-1.89-.49l.15-.1a18.82,18.82,0,0,0,1.81.54Zm.08-.06c-.61-.15-1.22-.33-1.81-.53l.17-.09c.57.22,1.15.41,1.73.57Zm.1-.05c-.58-.17-1.16-.36-1.72-.58l.2-.09a17,17,0,0,0,1.63.62Zm.12,0c-.55-.18-1.09-.39-1.62-.62l.23-.09c.5.25,1,.47,1.51.67Zm.13,0c-.5-.2-1-.42-1.5-.67l.26-.08c.46.26.91.5,1.38.71Zm.15-.05c-.46-.21-.91-.44-1.36-.7l.29-.07a14.17,14.17,0,0,0,1.22.74Zm.17,0a12,12,0,0,1-1.22-.74l.32-.06a10.52,10.52,0,0,0,1.06.77Zm.18,0a12.36,12.36,0,0,1-1.06-.77l.34,0a10.83,10.83,0,0,0,.9.79Zm.19,0c-.29-.24-.59-.51-.88-.8l.36,0a9.74,9.74,0,0,0,.71.82Zm.21,0a9.67,9.67,0,0,1-.7-.82l.37,0a8.11,8.11,0,0,0,.52.84Zm.2,0a8.11,8.11,0,0,1-.5-.84l.36,0c.11.31.23.59.34.85Zm.21,0c-.1-.26-.21-.54-.31-.85l0-.08c-.1-.31-.21-.65-.31-1l.56,0c0,.37.09.71.13,1h-.38l0,.08h.37c0,.31.09.59.14.85Zm.41,0h-.19c0-.26-.09-.54-.13-.85h.37C22.71,44,22.7,44.24,22.68,44.5Zm0,0c0-.26,0-.54.06-.85h.36c-.07.31-.15.6-.23.85Zm.21,0c.08-.25.16-.54.24-.84h.36a6.57,6.57,0,0,1-.42.84Zm.2,0a9.13,9.13,0,0,0,.43-.83l.36,0c-.2.3-.4.58-.6.83Zm.2,0c.21-.25.41-.52.62-.82l.34,0a10.13,10.13,0,0,1-.78.81Zm.2,0a10.19,10.19,0,0,0,.79-.81l.33,0a9.56,9.56,0,0,1-.95.78Zm.19,0a11.35,11.35,0,0,0,.95-.79l.32.06a10.82,10.82,0,0,1-1.11.75Zm.17,0A11.62,11.62,0,0,0,25,43.85l.3.06a13.27,13.27,0,0,1-1.26.73Zm.17,0a12.58,12.58,0,0,0,1.28-.72l.27.07a14,14,0,0,1-1.4.69Zm.3.08-.14,0c.48-.2.95-.43,1.42-.68l.25.07A15.59,15.59,0,0,1,24.34,44.72ZM26,44c.5-.25,1-.52,1.49-.82h0l.35.13c-.53.28-1.06.54-1.6.78Zm-1.54.76c.56-.18,1.11-.38,1.66-.61a1.24,1.24,0,0,1,.2.1,17.13,17.13,0,0,1-1.76.55Zm.16.08-.05,0a18.18,18.18,0,0,0,1.77-.56l.09.06.08,0c-.61.2-1.22.37-1.85.51Zm.05,0a18.66,18.66,0,0,0,1.85-.51l.14.1c-.63.18-1.27.34-1.92.46A.18.18,0,0,0,24.69,44.89Zm.08,0q1-.18,1.92-.45l.1.11c-.65.16-1.3.29-2,.4Zm.05.06q1-.15,2-.39l.06.1.16,0a.41.41,0,0,0-.06-.11c.65-.16,1.28-.35,1.91-.57a.6.6,0,0,1,.09.15c-.63.21-1.28.38-1.94.53l-.16,0c-.66.14-1.33.26-2,.35Zm0,.06c.68-.08,1.34-.2,2-.34a.38.38,0,0,1,0,.1c-.66.13-1.34.23-2,.3A.13.13,0,0,0,24.86,45.06Zm0,.06c.68-.07,1.36-.16,2-.29a.41.41,0,0,1,0,.11c-.66.1-1.33.19-2,.24Zm0,.06q1-.07,2-.24a.54.54,0,0,1-.05.11c-.65.09-1.31.15-2,.19Zm0,.06c.67,0,1.34-.09,2-.18l-.08.1h0c-.64.07-1.29.12-1.95.13A.1.1,0,0,0,24.84,45.24Zm-.1.11.06-.05c.66,0,1.31-.06,1.95-.14l-.11.1C26,45.32,25.38,45.35,24.74,45.35Zm2.05-.1.12-.1c.64-.08,1.26-.19,1.88-.33a1.17,1.17,0,0,1-.16.15C28,45.09,27.42,45.18,26.79,45.25Zm2-.31.17-.15c.61-.14,1.22-.31,1.81-.5a1,1,0,0,1-.22.19A16.82,16.82,0,0,1,28.78,44.94Zm1.91-.5a2.19,2.19,0,0,0,.22-.2c.59-.2,1.16-.42,1.73-.67l-.27.24C31.83,44,31.26,44.25,30.69,44.44Zm1.82-.69.27-.24c.56-.26,1.11-.53,1.64-.84a3.09,3.09,0,0,1-.32.29C33.59,43.24,33.06,43.51,32.51,43.75Zm3.22-1.82c-.48.34-1,.66-1.49,1l.31-.28c.53-.31,1-.64,1.54-1A2.83,2.83,0,0,1,35.73,41.93Zm.51-.43a2,2,0,0,0,.25-.34A18,18,0,0,0,37.94,40a1.76,1.76,0,0,1-.28.36C37.21,40.76,36.73,41.14,36.24,41.5ZM39.09,39a17.42,17.42,0,0,1-1.31,1.27,1.9,1.9,0,0,0,.28-.37,18.11,18.11,0,0,0,1.33-1.3A2.2,2.2,0,0,1,39.09,39Zm.43-.55a1.32,1.32,0,0,0,.17-.41c.43-.47.83-1,1.22-1.45a1.83,1.83,0,0,1-.19.44C40.34,37.51,39.94,38,39.52,38.44Zm2.36-3.09c-.33.53-.69,1-1.06,1.54a1.85,1.85,0,0,0,.18-.44c.38-.51.74-1,1.08-1.57A2.14,2.14,0,0,1,41.88,35.35Zm.29-.64a1.56,1.56,0,0,0,0-.48c.33-.55.64-1.12.92-1.7a1.4,1.4,0,0,1,0,.5C42.81,33.61,42.5,34.16,42.17,34.71Zm1-1.82a1.41,1.41,0,0,0,0-.5c.28-.58.54-1.18.77-1.79a1.91,1.91,0,0,1,0,.53C43.69,31.73,43.44,32.32,43.16,32.89Zm1.41-3.76c-.17.62-.37,1.24-.59,1.84a1.51,1.51,0,0,0,0-.52c.23-.61.42-1.23.59-1.86A1.64,1.64,0,0,1,44.57,29.13Zm.08-.74a2.12,2.12,0,0,0-.13-.54c.16-.64.3-1.29.4-2a1.94,1.94,0,0,1,.14.55C45,27.11,44.82,27.75,44.65,28.39Zm.44-2.1a2.12,2.12,0,0,0-.14-.55c.1-.66.17-1.33.22-2a2.22,2.22,0,0,1,.14.55C45.26,25,45.19,25.63,45.09,26.29Z"/><path class="cls-1" d="M37.39,5.06,37.25,5Z"/><path class="cls-1" d="M37,4.76l.3.21-.1-.07Z"/><path class="cls-1" d="M34.81,3.51l.24.13L35,3.58Z"/><path class="cls-1" d="M35.34,3.8l-.29-.16Z"/><path class="cls-1" d="M10.83,5.8l-.38.3L11,5.65Z"/><path class="cls-1" d="M10.45,6.1Z"/><path class="cls-1" d="M2,25.81C2,25.88,2,26,2,26l0-.36Z"/><path class="cls-1" d="M2,26H2Z"/><path class="cls-1" d="M3.82,33.38l-.09-.23Z"/><path class="cls-1" d="M3.61,32.87l0,.11.08.17c-.1-.22-.19-.45-.27-.67Z"/></g></g></svg>