<svg xmlns="http://www.w3.org/2000/svg" viewBox="0 0 52.45 52.45"><defs><style>.cls-1{fill:#ffd431;}</style></defs><g id="Calque_2" data-name="Calque 2"><g id="Layer_1" data-name="Layer 1"><path class="cls-1" d="M15.32,40.93A3.17,3.17,0,0,1,13,40.09c-1.35-1.38-1.06-4.35.8-8.16,3.63-7.44,12.15-16.07,19-19.24,3.12-1.44,5.5-1.56,6.71-.33,1.35,1.38,1.06,4.35-.8,8.16-3.63,7.44-12.16,16.07-19,19.24A10.87,10.87,0,0,1,15.32,40.93ZM32.8,12.76l0,.07C26,16,17.53,24.58,13.91,32c-1.83,3.75-2.13,6.66-.83,8,1.16,1.17,3.48,1,6.54-.37,6.81-3.16,15.3-11.76,18.92-19.16,1.83-3.75,2.13-6.67.83-8s-3.48-1-6.54.37Z"/><path class="cls-1" d="M14.6,41.14a3.4,3.4,0,0,1-2.67-1c-1.38-1.58-.87-4.82,1.39-8.91,4.27-7.7,13.51-16.24,20.6-19C37,11,39.38,11,40.52,12.32c1.38,1.57.87,4.82-1.39,8.9-4.27,7.71-13.51,16.25-20.6,19A11.15,11.15,0,0,1,14.6,41.14ZM37.85,11.47a11.09,11.09,0,0,0-3.88.87c-7.06,2.77-16.26,11.28-20.52,19-2.22,4-2.74,7.2-1.4,8.73,1.09,1.24,3.37,1.27,6.42.08,7.07-2.78,16.27-11.28,20.52-19,2.23-4,2.75-7.21,1.41-8.73A3.23,3.23,0,0,0,37.85,11.47Z"/><path class="cls-1" d="M13.94,41.29a3.68,3.68,0,0,1-3-1.21c-1.4-1.79-.65-5.31,2-9.66,4.92-7.94,14.87-16.3,22.18-18.65,3.09-1,5.38-.77,6.45.6,1.4,1.79.65,5.31-2,9.66C34.6,30,24.65,38.33,17.34,40.67A11.38,11.38,0,0,1,13.94,41.29Zm24.57-30a11,11,0,0,0-3.35.61C27.88,14.25,18,22.59,13.06,30.5,10.4,34.79,9.65,38.25,11,40c1,1.32,3.26,1.52,6.28.55C24.57,38.2,34.48,29.86,39.39,22c2.66-4.3,3.4-7.75,2-9.48A3.52,3.52,0,0,0,38.51,11.31Z"/><path class="cls-1" d="M13.32,41.41a4,4,0,0,1-3.48-1.48c-1.4-2-.39-5.82,2.77-10.41,5.6-8.14,16.24-16.25,23.72-18.09,3.09-.76,5.26-.39,6.27,1.09,1.4,2,.39,5.82-2.77,10.41C34.24,31.06,23.6,39.18,16.11,41A11.51,11.51,0,0,1,13.32,41.41ZM39.13,11.2a11.81,11.81,0,0,0-2.76.37c-7.45,1.84-18,9.93-23.63,18C9.62,34.14,8.61,37.88,10,39.84c1,1.42,3.09,1.78,6.11,1C23.53,39,34.13,31,39.71,22.85c3.12-4.54,4.13-8.28,2.77-10.25A3.83,3.83,0,0,0,39.13,11.2Z"/><path class="cls-1" d="M12.84,41.47c-1.94,0-3.32-.6-4-1.78-1.39-2.29-.09-6.37,3.57-11.18C18.66,20.23,30,12.45,37.58,11.16l0,.08,0-.08c3-.51,5.12.05,6.06,1.6,1.39,2.29.09,6.37-3.57,11.18C33.79,32.22,22.48,40,14.86,41.28A11.52,11.52,0,0,1,12.84,41.47ZM39.61,11.13a11.3,11.3,0,0,0-2,.19C30,12.6,18.76,20.35,12.5,28.6c-3.56,4.69-4.89,8.81-3.56,11,.91,1.49,3,2,5.9,1.52,7.58-1.28,18.85-9,25.11-17.28,3.56-4.69,4.89-8.81,3.56-11C42.82,11.71,41.49,11.13,39.61,11.13Z"/><path class="cls-1" d="M12.5,41.5c-2.35,0-4-.74-4.71-2.17-1.33-2.55.33-7,4.44-11.94C19.21,19,31.15,11.67,38.85,11c2.94-.26,4.95.48,5.81,2.12,1.33,2.55-.33,7-4.44,11.94-7,8.36-18.92,15.72-26.62,16.39C13.21,41.48,12.85,41.5,12.5,41.5ZM38.86,11.08v.07c-7.67.67-19.57,8-26.52,16.34-4.07,4.88-5.72,9.28-4.42,11.77.82,1.58,2.78,2.29,5.65,2,7.67-.67,19.57-8,26.52-16.34,4.07-4.88,5.72-9.28,4.42-11.77-.83-1.58-2.78-2.29-5.65-2Z"/><path class="cls-1" d="M12.32,41.51h0c-2.85,0-4.76-.93-5.53-2.67-1.26-2.87.75-7.6,5.39-12.67,7.68-8.4,20.22-15.23,28-15.23h0c2.85,0,4.76.92,5.53,2.67,1.26,2.86-.75,7.6-5.39,12.67C32.59,34.68,20.05,41.51,12.32,41.51ZM40.13,11.1c-7.7,0-20.18,6.8-27.84,15.17-4.59,5-6.6,9.7-5.36,12.51.74,1.68,2.6,2.57,5.39,2.57h0c7.7,0,20.18-6.8,27.84-15.17,4.59-5,6.59-9.7,5.36-12.51-.74-1.68-2.61-2.57-5.39-2.57Z"/><path class="cls-1" d="M12.33,41.51q-.67,0-1.29-.06c-2.75-.26-4.55-1.38-5.22-3.23C4.67,35,7.07,30,12.23,24.84,20.62,16.47,33.71,10.27,41.41,11c2.75.26,4.55,1.38,5.21,3.23,1.16,3.22-1.24,8.22-6.41,13.38C32.28,35.52,20.14,41.51,12.33,41.51ZM40.11,11.1c-7.77,0-19.86,6-27.77,13.85C7.22,30.06,4.83,35,6,38.17,6.61,40,8.37,41,11.05,41.29c7.66.74,20.7-5.45,29.06-13.79,5.12-5.12,7.5-10.06,6.37-13.22-.64-1.79-2.4-2.87-5.08-3.13C41,11.11,40.56,11.1,40.11,11.1Z"/><path class="cls-1" d="M12.55,41.52a13.54,13.54,0,0,1-2.78-.26c-2.64-.53-4.33-1.85-4.87-3.83-1-3.59,1.81-8.84,7.51-14,9.08-8.27,22.66-13.75,30.27-12.22C45.32,11.71,47,13,47.55,15c1,3.6-1.81,8.85-7.51,14C32,36.37,20.38,41.52,12.55,41.52ZM39.89,11.08c-7.79,0-19.35,5.13-27.38,12.44C6.86,28.67,4.06,33.85,5.05,37.39c.53,1.92,2.17,3.21,4.75,3.72a14.14,14.14,0,0,0,2.76.26c7.79,0,19.35-5.13,27.38-12.44,5.65-5.15,8.44-10.33,7.46-13.87-.53-1.92-2.17-3.21-4.75-3.72A14.14,14.14,0,0,0,39.89,11.08Z"/><path class="cls-1" d="M13,41.56a15,15,0,0,1-4.51-.62C6,40.14,4.44,38.59,4,36.47c-.77-4,2.47-9.46,8.68-14.6,9.77-8.09,23.78-12.74,31.23-10.36,2.53.8,4.08,2.35,4.49,4.47.78,4-2.46,9.45-8.67,14.6C31.71,37.23,20.79,41.56,13,41.56ZM39.41,11c-7.73,0-18.6,4.31-26.61,11C6.63,27.1,3.41,32.5,4.18,36.44,4.58,38.5,6.09,40,8.56,40.8,16,43.16,29.92,38.52,39.65,30.46,45.81,25.35,49,20,48.27,16c-.4-2.06-1.91-3.57-4.39-4.36A15,15,0,0,0,39.41,11Z"/><path class="cls-1" d="M13.79,41.67A15.81,15.81,0,0,1,7.3,40.48,6.37,6.37,0,0,1,3.23,35.3c-.49-4.41,3.22-10,9.9-15.06,10.44-7.84,24.8-11.55,32-8.27a6.39,6.39,0,0,1,4.07,5.18c.49,4.41-3.22,10-9.9,15.06C31.46,38.11,21.37,41.67,13.79,41.67ZM38.65,10.93c-7.55,0-17.59,3.55-25.43,9.43-6.64,5-10.32,10.56-9.84,14.92a6.23,6.23,0,0,0,4,5.06c7.17,3.25,21.47-.45,31.87-8.25,6.64-5,10.32-10.57,9.84-14.92a6.22,6.22,0,0,0-4-5.06A15.76,15.76,0,0,0,38.65,10.93Z"/><path class="cls-1" d="M14.85,41.87a16.88,16.88,0,0,1-8.72-2,7,7,0,0,1-3.61-6C2.41,29.07,6.59,23.32,13.7,18.51,24.78,11,39.42,8.36,46.32,12.59a7,7,0,0,1,3.61,6c.1,4.82-4.07,10.57-11.18,15.38C31.24,39,22.11,41.87,14.85,41.87ZM37.59,10.73c-7.22,0-16.32,2.85-23.8,7.91C6.72,23.41,2.57,29.12,2.68,33.89a6.84,6.84,0,0,0,3.53,5.84c6.86,4.2,21.42,1.55,32.45-5.92C45.73,29,49.88,23.33,49.77,18.56a6.83,6.83,0,0,0-3.53-5.84A16.71,16.71,0,0,0,37.59,10.73Z"/><path class="cls-1" d="M16.19,42.21c-4.58,0-8.55-1-11.18-3.13A7.86,7.86,0,0,1,2,32.22C2.3,27,7,21.2,14.42,16.69c11.69-7.07,26.5-8.56,33-3.32a7.86,7.86,0,0,1,3.06,6.86c-.35,5.22-5,11-12.47,15.53A44,44,0,0,1,16.19,42.21ZM36.26,10.39A43.93,43.93,0,0,0,14.5,16.82C7.08,21.3,2.45,27.06,2.1,32.23a7.69,7.69,0,0,0,3,6.73c6.46,5.2,21.2,3.7,32.84-3.33,7.42-4.49,12-10.24,12.4-15.41a7.69,7.69,0,0,0-3-6.73C44.74,11.4,40.8,10.39,36.26,10.39Z"/><path class="cls-1" d="M17.76,42.71c-5.82,0-10.85-1.52-13.79-4.59a9,9,0,0,1-2.43-7.88c.89-5.55,6-11.33,13.75-15.45C27.56,8.24,42.45,8,48.48,14.33a9,9,0,0,1,2.42,7.88c-.88,5.55-6,11.33-13.74,15.45A42.32,42.32,0,0,1,17.76,42.71ZM34.7,9.89a42.2,42.2,0,0,0-19.34,5C7.68,19,2.57,24.76,1.7,30.26A8.82,8.82,0,0,0,4.08,38c6,6.24,20.79,6,33-.5,7.68-4.1,12.78-9.83,13.66-15.33a8.82,8.82,0,0,0-2.38-7.76C45.46,11.4,40.46,9.89,34.7,9.89Z"/><path class="cls-1" d="M19.44,43.41C12.32,43.41,6.14,41.21,3,37a10.4,10.4,0,0,1-1.66-9c1.49-5.82,7.08-11.47,15-15.13C29.12,6.89,44,8.07,49.43,15.46h0a10.42,10.42,0,0,1,1.66,9.05C49.6,30.33,44,36,36.12,39.63A40.28,40.28,0,0,1,19.44,43.41ZM33,9.19A40.21,40.21,0,0,0,16.39,13C8.55,16.59,3,22.2,1.51,28A10.28,10.28,0,0,0,3.14,36.9c5.42,7.33,20.19,8.49,32.92,2.59,7.84-3.63,13.4-9.24,14.88-15a10.27,10.27,0,0,0-1.63-8.92C46.22,11.37,40.08,9.19,33,9.19Z"/><path class="cls-1" d="M21.13,44.33c-8.45,0-15.83-3.08-19-8.65A12.22,12.22,0,0,1,1.45,25.3c2.13-6,8.14-11.41,16.08-14.53,13.26-5.2,28-2.51,32.75,6A12.22,12.22,0,0,1,51,27.15c-2.13,6-8.14,11.41-16.08,14.53A38.22,38.22,0,0,1,21.13,44.33ZM31.33,8.27a37.72,37.72,0,0,0-13.74,2.65C9.69,14,3.71,19.41,1.6,25.35a12.06,12.06,0,0,0,.7,10.26c4.76,8.44,19.37,11.1,32.56,5.92,7.9-3.1,13.88-8.49,16-14.43a12.1,12.1,0,0,0-.7-10.26h0C47,11.32,39.71,8.27,31.33,8.27Z"/><path class="cls-1" d="M22.69,45.49c-9.74,0-18.3-4.21-21.26-11.31a14.43,14.43,0,0,1,.45-11.87c2.77-6,9.14-11.1,17-13.63C32.58,4.29,47,8.6,51,18.27a14.41,14.41,0,0,1-.45,11.86c-2.77,6-9.14,11.11-17,13.64A35.49,35.49,0,0,1,22.69,45.49ZM29.76,7.11A35.51,35.51,0,0,0,19,8.82C11.1,11.34,4.77,16.41,2,22.38a14.32,14.32,0,0,0-.44,11.74c2.94,7,11.43,11.21,21.12,11.22a35.51,35.51,0,0,0,10.8-1.71C41.34,41.11,47.68,36,50.43,30.07a14.29,14.29,0,0,0,.45-11.74C47.94,11.28,39.44,7.11,29.76,7.11Z"/><path class="cls-1" d="M24,46.88C13,46.88,3.4,41.27.83,32.49A17,17,0,0,1,2.68,19C6.13,13,12.61,8.47,20.46,6.54c14-3.45,28,2.57,31.16,13.42a17,17,0,0,1-1.85,13.48C46.32,39.43,39.84,44,32,45.91A33.16,33.16,0,0,1,24,46.88ZM28.42,5.72a33,33,0,0,0-7.92,1C12.69,8.61,6.24,13.13,2.81,19.09A16.81,16.81,0,0,0,1,32.44C3.53,41.16,13.1,46.73,24,46.73a33,33,0,0,0,7.92-1c7.81-1.92,14.26-6.44,17.69-12.4A16.82,16.82,0,0,0,51.47,20C48.92,11.29,39.35,5.72,28.42,5.72Z"/><path class="cls-1" d="M25.09,48.52C12.9,48.52,2.33,41.18.38,30.6A20.08,20.08,0,0,1,3.9,15.43,28,28,0,0,1,22.2,4.37C36.45,2,49.85,9.8,52.07,21.85A20,20,0,0,1,48.54,37,28,28,0,0,1,30.25,48.08,31.45,31.45,0,0,1,25.09,48.52ZM27.36,4.09a31,31,0,0,0-5.13.43A27.78,27.78,0,0,0,4,15.52,19.91,19.91,0,0,0,.53,30.57C2.47,41.08,13,48.36,25.09,48.36a31,31,0,0,0,5.13-.43,27.78,27.78,0,0,0,18.2-11,19.87,19.87,0,0,0,3.49-15h0C50,11.37,39.48,4.09,27.36,4.09Z"/><path class="cls-1" d="M25.83,50.37C12.48,50.38,1.19,41,.1,28.51c-1.16-13.26,9.62-25.07,24-26.33A27.24,27.24,0,0,1,43.21,7.61a22.79,22.79,0,0,1,3,34,27.23,27.23,0,0,1-17.85,8.65C27.49,50.34,26.65,50.37,25.83,50.37Zm.82-48.14c-.83,0-1.67,0-2.52.11C9.81,3.59-.9,15.32.25,28.5,1.34,40.9,12.56,50.22,25.83,50.22c.82,0,1.65,0,2.48-.11a27.11,27.11,0,0,0,17.76-8.6,22.63,22.63,0,0,0-3-33.78A26.83,26.83,0,0,0,26.65,2.23Z"/><path class="cls-1" d="M26.22,52.45A26.23,26.23,0,1,1,52.45,26.22,26.26,26.26,0,0,1,26.22,52.45Zm0-52.3A26.07,26.07,0,1,0,52.29,26.22,26.11,26.11,0,0,0,26.22.15Z"/></g></g></svg>